<?xml version="1.0" encoding="UTF-8" standalone="no"?>
<!DOCTYPE svg PUBLIC "-//W3C//DTD SVG 1.1//EN" "http://www.w3.org/Graphics/SVG/1.1/DTD/svg11.dtd">
<svg width="100%" height="100%" viewBox="0 0 88 88" version="1.1" xmlns="http://www.w3.org/2000/svg" xmlns:xlink="http://www.w3.org/1999/xlink" xml:space="preserve" xmlns:serif="http://www.serif.com/" style="fill-rule:evenodd;clip-rule:evenodd;stroke-linejoin:round;stroke-miterlimit:2;">
    <path d="M31.892,1.25C32.012,1.39 32.122,1.54 32.242,1.68C32.362,1.82 32.472,1.96 32.582,2.11C32.802,2.4 33.022,2.69 33.232,2.97C33.442,3.26 33.652,3.55 33.852,3.84C34.062,4.13 34.252,4.43 34.452,4.71C35.232,5.88 35.952,7.08 36.602,8.36C36.722,8.61 36.842,8.86 36.952,9.12C37.062,9.37 37.152,9.64 37.252,9.89C37.302,10.02 37.352,10.15 37.392,10.28L37.512,10.67C37.592,10.93 37.672,11.2 37.742,11.46C37.872,12 38.002,12.52 38.082,13.07L38.142,13.48L38.172,13.68L38.192,13.89C38.222,14.16 38.242,14.44 38.272,14.71C38.292,14.98 38.302,15.26 38.312,15.54C38.312,15.68 38.312,15.82 38.322,15.95L38.322,16.37C38.322,16.65 38.322,16.93 38.302,17.2C38.282,17.48 38.262,17.76 38.232,18.04C38.232,18.18 38.202,18.32 38.182,18.46L38.062,19.3C38.042,19.44 38.012,19.58 37.992,19.72C37.942,20 37.892,20.29 37.832,20.57C37.772,20.85 37.702,21.14 37.632,21.42C37.032,23.66 36.212,25.62 35.132,27.51C35.052,27.62 34.982,27.74 34.902,27.86L34.792,28.03L34.672,28.2C34.512,28.42 34.352,28.65 34.192,28.88L34.072,29.05L33.942,29.21C33.852,29.32 33.772,29.43 33.682,29.54C33.592,29.65 33.512,29.76 33.422,29.87C33.332,29.98 33.252,30.09 33.162,30.2C32.802,30.63 32.442,31.07 32.062,31.48C31.872,31.69 31.692,31.9 31.492,32.11C31.292,32.32 31.092,32.53 30.882,32.74L30.582,33.05L30.292,33.33C30.102,33.52 29.902,33.71 29.712,33.9C29.532,34.08 29.342,34.27 29.162,34.46L28.622,35.03C27.912,35.8 27.242,36.63 26.632,37.5C26.482,37.67 26.192,38.02 26.002,38.35C25.902,38.51 25.832,38.67 25.822,38.79C25.802,38.91 25.842,39.01 25.952,39.04C24.772,40.69 23.782,42.45 23.152,44.32C22.522,46.19 22.252,48.16 22.472,50.08C22.542,50.88 22.552,51.71 22.642,52.55L22.722,53.18C22.752,53.39 22.792,53.58 22.822,53.78C22.852,53.97 22.922,54.2 22.982,54.41C23.012,54.52 23.042,54.63 23.082,54.73L23.122,54.85L23.172,54.99C23.682,56.17 24.242,57.31 24.992,58.37C25.732,59.43 26.662,60.39 27.772,61.1C27.942,61.18 28.222,61.26 28.492,61.35C28.632,61.39 28.762,61.44 28.872,61.48C28.992,61.52 29.082,61.56 29.142,61.6C29.512,61.86 29.892,62.09 30.292,62.28C30.692,62.48 31.102,62.63 31.512,62.77C31.922,62.9 32.352,63 32.772,63.07C33.192,63.14 33.622,63.19 34.042,63.2C34.892,63.24 35.722,63.17 36.532,63.04C37.342,62.9 38.132,62.71 38.882,62.45C39.482,62.27 39.992,62.06 40.482,61.84C40.972,61.61 41.442,61.37 41.952,61.09C41.952,60.98 42.012,60.89 42.102,60.81C42.192,60.73 42.322,60.64 42.432,60.52C42.612,60.4 43.012,60.16 43.502,59.83C43.992,59.5 44.552,59.05 45.082,58.56C45.612,58.07 46.102,57.54 46.472,57.11C46.812,56.73 47.132,56.31 47.252,56.24C47.282,56.22 47.222,56.36 47.082,56.63C47.052,56.7 47.012,56.77 46.972,56.85C46.932,56.92 46.892,56.99 46.842,57.07C46.792,57.15 46.752,57.24 46.692,57.33C46.632,57.42 46.572,57.52 46.512,57.62C46.002,58.44 45.192,59.47 44.232,60.34C43.272,61.22 42.162,61.91 41.292,62.34C40.422,62.78 39.812,62.98 39.872,63.03C39.998,63.015 40.121,62.988 40.242,62.95C40.442,62.89 40.722,62.8 41.032,62.67C41.352,62.55 41.702,62.38 42.082,62.19C42.452,61.99 42.842,61.77 43.212,61.51C43.962,61.01 44.652,60.4 45.162,59.88C45.672,59.36 46.022,58.94 46.122,58.83C44.615,61.101 42.437,62.845 39.892,63.82C38.862,64.22 37.892,64.45 37.042,64.59C36.182,64.73 35.442,64.78 34.802,64.79C34.162,64.8 33.642,64.79 33.222,64.75C33.012,64.74 32.832,64.72 32.672,64.71C32.512,64.69 32.382,64.69 32.272,64.67C31.832,64.62 31.772,64.64 32.002,64.7C32.232,64.76 32.742,64.87 33.462,64.94C34.182,65.01 35.092,65.05 36.112,64.97C36.622,64.93 37.142,64.86 37.682,64.76C38.222,64.66 38.762,64.52 39.292,64.35C39.82,64.181 40.338,63.981 40.842,63.75C41.342,63.52 41.812,63.26 42.252,62.98C42.832,62.71 43.472,62.26 44.162,61.64C44.842,61.02 45.572,60.25 46.352,59.31C45.962,59.92 45.352,60.88 44.652,61.68C44.312,62.09 43.952,62.44 43.632,62.74C43.472,62.88 43.332,63 43.202,63.11C43.072,63.21 42.972,63.28 42.892,63.33C42.172,63.81 41.632,64.11 41.192,64.35C40.972,64.47 40.772,64.58 40.582,64.67C39.984,64.977 39.349,65.206 38.692,65.35C38.132,65.47 37.412,65.59 36.402,65.6C35.572,65.61 34.602,65.6 33.552,65.5C33.032,65.45 32.492,65.38 31.952,65.28C31.412,65.18 30.862,65.06 30.332,64.92C29.792,64.77 29.262,64.61 28.762,64.41C28.502,64.32 28.262,64.21 28.012,64.11C27.772,64 27.532,63.9 27.302,63.79C26.842,63.57 26.422,63.33 26.032,63.1C25.842,62.98 25.652,62.87 25.482,62.75C25.312,62.63 25.152,62.52 25.002,62.41C25.712,62.77 26.902,63.28 28.162,63.68C28.792,63.88 29.452,64.07 30.072,64.23C30.692,64.4 31.272,64.55 31.782,64.7C30.702,64.3 29.872,63.98 29.132,63.72C28.392,63.46 27.752,63.25 27.112,63.01C26.462,62.77 25.812,62.49 25.092,62.03C24.382,61.57 23.602,60.93 22.812,59.91C22.512,59.54 22.152,59.12 21.772,58.65C21.502,58.14 21.282,57.64 21.042,57C20.992,56.88 20.932,56.76 20.882,56.64L20.732,56.28C20.682,56.16 20.642,56.04 20.592,55.92L20.522,55.74L20.492,55.65L20.492,55.63L20.482,55.62L20.482,55.58L20.452,55.54C20.382,55.32 20.312,55.1 20.232,54.88C20.21,54.825 20.194,54.768 20.182,54.71L20.132,54.53C20.092,54.41 20.062,54.29 20.022,54.17C19.762,53.22 19.562,52.28 19.422,51.33C19.152,49.42 19.192,47.46 19.622,45.48C19.562,45.82 19.312,46 19.232,46.36C19.012,47.22 18.892,48.08 18.872,48.92C18.852,49.77 18.902,50.6 19.022,51.43C19.272,53.09 19.722,54.71 20.352,56.52C20.412,56.7 20.492,56.89 20.602,57.07C20.662,57.16 20.712,57.26 20.782,57.35C20.852,57.44 20.912,57.53 20.982,57.63C21.252,58 21.552,58.34 21.752,58.67C22.182,59.33 22.582,59.95 23.012,60.55C23.442,61.15 23.892,61.72 24.412,62.25C23.202,61.39 22.062,60.18 21.172,58.74C20.722,58.02 20.342,57.26 20.032,56.47C19.952,56.27 19.882,56.07 19.812,55.87C19.752,55.68 19.692,55.49 19.632,55.31L19.552,55.05C19.522,54.96 19.492,54.85 19.472,54.76C19.412,54.56 19.362,54.36 19.302,54.16C19.212,53.84 19.072,53.51 18.932,53.18C18.802,52.85 18.652,52.55 18.552,52.3C18.572,52.48 18.602,52.67 18.632,52.85L18.722,53.4L18.832,53.94L18.892,54.21L18.962,54.49L19.112,55.06L19.132,55.13L19.192,55.31L19.332,55.79L19.372,55.91L19.402,55.99L19.402,56.03L19.442,56.1C19.512,56.29 19.572,56.47 19.642,56.66C20.162,57.95 20.972,59.21 21.952,60.32C22.932,61.43 24.092,62.38 25.272,63.15C26.462,63.92 27.672,64.52 28.792,65.01C29.352,65.25 29.902,65.47 30.402,65.67C30.912,65.87 31.392,66.06 31.822,66.24C31.932,66.25 32.042,66.26 32.272,66.27C32.322,66.31 32.392,66.34 32.472,66.36C33.182,66.49 34.032,66.65 34.812,66.84C34.812,66.84 34.682,66.83 34.502,66.81C34.312,66.79 34.062,66.76 33.812,66.72C33.562,66.69 33.312,66.64 33.132,66.61C32.942,66.57 32.822,66.55 32.822,66.55C30.172,66.44 27.372,65.41 24.982,63.66C23.782,62.78 22.682,61.73 21.732,60.53C20.782,59.33 19.992,58 19.392,56.58C19.322,56.42 19.252,56.25 19.192,56.07L19.192,56.05L19.162,55.98L19.162,55.95L19.132,55.89L19.102,55.77C19.082,55.69 19.062,55.61 19.032,55.52C19.012,55.44 18.992,55.35 18.972,55.26L18.952,55.19L18.932,55.11L18.902,54.95L18.782,54.29C18.652,53.45 18.562,52.62 18.432,51.99C18.062,50.15 18.042,48.2 18.332,46.31C18.622,44.42 19.242,42.6 20.052,40.97C21.472,37.99 23.422,35.41 25.612,33.18C26.152,32.62 26.732,32.08 27.292,31.57L28.122,30.82C28.382,30.58 28.632,30.34 28.892,30.09C29.912,29.09 30.872,28.02 31.732,26.88C32.592,25.74 33.352,24.51 33.982,23.21C34.602,21.91 35.082,20.52 35.382,19.08C35.672,17.64 35.772,16.14 35.682,14.64C35.592,13.14 35.322,11.63 34.882,10.17C34.762,9.91 34.642,9.66 34.522,9.41C34.522,9.54 34.542,9.67 34.552,9.8C34.482,9.54 34.422,9.28 34.342,9.03C33.652,7.64 32.902,6.32 32.212,4.94C32.092,4.65 32.262,4.86 32.502,5.2C32.622,5.37 32.762,5.57 32.892,5.74C32.962,5.83 33.022,5.91 33.092,5.98C33.152,6.05 33.212,6.11 33.262,6.15C33.182,5.99 33.092,5.84 33.032,5.73C32.962,5.62 32.922,5.54 32.922,5.54L33.162,5.54C32.972,5.34 32.982,5.14 32.932,4.94C33.932,6.35 34.832,7.86 35.552,9.48C36.294,11.118 36.805,12.851 37.072,14.63C37.122,14.52 37.142,14.37 37.152,14.19L37.152,13.92C37.152,13.83 37.132,13.73 37.122,13.64C37.092,13.45 37.062,13.25 37.022,13.08C37.002,12.99 36.992,12.91 36.972,12.83C36.952,12.75 36.942,12.68 36.922,12.62C36.572,11.46 36.092,10.37 35.732,9.34C35.092,7.97 34.432,6.59 33.692,5.27C32.952,3.95 32.142,2.68 31.232,1.57C31.092,1.34 30.932,1.12 30.792,0.9C30.642,0.68 30.502,0.45 30.362,0.23C30.332,0.06 30.342,0 30.412,0C30.442,0 30.492,0.01 30.552,0.04C30.612,0.07 30.692,0.12 30.772,0.17C30.932,0.28 31.132,0.44 31.332,0.62C31.432,0.71 31.532,0.81 31.622,0.91C31.712,1.02 31.802,1.12 31.882,1.23L31.892,1.25ZM22.762,38.43C23.332,37.67 23.972,37 24.642,36.33C24.842,36.07 25.052,35.82 25.262,35.57C25.392,35.42 25.532,35.26 25.662,35.08C25.792,34.91 25.922,34.73 26.052,34.54C26.662,33.91 27.302,33.31 27.962,32.74C28.292,32.45 28.622,32.17 28.942,31.89L29.192,31.68L29.912,31.02L29.372,31.41C29.282,31.48 29.192,31.54 29.102,31.61L28.822,31.8C28.452,32.06 28.072,32.33 27.702,32.63C26.942,33.22 26.192,33.92 25.462,34.76C25.682,34.48 25.922,34.21 26.152,33.94C26.392,33.68 26.622,33.42 26.872,33.17C26.992,33.05 27.112,32.92 27.242,32.8C27.372,32.68 27.492,32.56 27.612,32.45C27.862,32.21 28.112,31.99 28.362,31.77C28.872,31.33 29.322,30.89 29.802,30.46C30.032,30.24 30.262,30.01 30.492,29.79L30.832,29.45L31.172,29.1C32.062,28.18 32.912,27.21 33.672,26.15C34.432,25.09 35.122,23.95 35.672,22.69C35.972,21.92 36.192,21.11 36.372,20.29C36.412,20.08 36.452,19.87 36.482,19.66L36.532,19.34L36.562,19.18L36.582,19.02C36.622,18.59 36.682,18.16 36.692,17.73C36.732,16.51 36.602,15.3 36.342,14.16C36.382,14.62 36.432,15.08 36.432,15.55C36.432,15.78 36.452,16.01 36.432,16.24L36.402,16.93C36.402,17.16 36.362,17.39 36.352,17.61L36.322,17.95C36.322,18.06 36.302,18.18 36.282,18.29L36.172,18.96L36.142,19.13L36.102,19.3L36.032,19.63C35.852,20.51 35.562,21.37 35.252,22.2C35.072,22.61 34.922,23.02 34.722,23.42L34.432,24.01L34.112,24.59C33.912,24.98 33.662,25.34 33.442,25.71C33.332,25.9 33.202,26.07 33.082,26.25L32.712,26.78C32.442,27.12 32.192,27.47 31.922,27.8L31.502,28.29L31.292,28.54C31.222,28.62 31.142,28.7 31.072,28.78C30.782,29.09 30.502,29.42 30.192,29.72C29.892,30.02 29.592,30.33 29.282,30.61C28.972,30.9 28.672,31.18 28.332,31.47C28.002,31.76 27.672,32.04 27.342,32.34C25.986,33.542 24.738,34.86 23.612,36.28C22.45,37.74 21.45,39.323 20.632,41C19.812,42.71 19.192,44.55 18.842,46.49C18.502,48.42 18.452,50.44 18.722,52.43C18.572,49.83 18.872,47.29 19.572,44.93C20.282,42.57 21.382,40.39 22.772,38.42L22.762,38.43ZM22.212,40.1C21.352,41.79 20.722,43.59 20.372,45.43C20.102,46.67 19.942,47.98 19.942,49.28C19.935,50.851 20.144,52.416 20.562,53.93C20.602,54.08 20.652,54.22 20.692,54.36C20.732,54.5 20.782,54.65 20.832,54.77C20.882,54.9 20.922,55.03 20.972,55.16C20.992,55.22 21.022,55.29 21.042,55.35L21.042,55.37L21.052,55.37L21.052,55.39L21.072,55.45L21.112,55.55C21.172,55.68 21.222,55.81 21.282,55.94C21.342,56.06 21.402,56.19 21.462,56.31C21.962,57.27 22.562,58.05 23.162,58.62C22.822,58.19 22.502,57.73 22.212,57.25C21.922,56.77 21.672,56.26 21.442,55.74L21.282,55.34L21.142,54.94L21.002,54.55L20.742,53.73L20.632,53.31C20.592,53.17 20.552,53.03 20.522,52.89L20.432,52.47C20.192,51.34 20.052,50.17 20.042,48.99C20.032,47.81 20.132,46.61 20.352,45.43C20.292,45.71 20.242,45.96 20.202,46.18C20.162,46.4 20.132,46.6 20.112,46.76C20.072,47.09 20.042,47.31 20.032,47.43C20.012,47.67 20.032,47.49 20.102,46.98C20.172,46.47 20.302,45.64 20.572,44.57C20.632,44.3 20.722,44.03 20.802,43.73C20.892,43.44 20.992,43.13 21.092,42.82C21.312,42.19 21.572,41.52 21.872,40.83C21.902,40.69 22.032,40.42 22.182,40.08L22.212,40.1Z" style="fill:rgb(0,121,52);fill-rule:nonzero;"/>
    <path d="M35.403,17.21C35.553,16.2 35.603,15.16 35.553,14.1C35.503,13.05 35.353,11.99 35.153,10.94C35.153,11.15 35.153,11.36 35.143,11.57C35.143,11.77 35.133,11.98 35.123,12.18C35.123,12.39 35.103,12.6 35.093,12.81C35.083,13.03 35.093,13.25 35.073,13.48C35.093,14.73 35.123,16.02 35.003,17.3C34.893,18.58 34.643,19.85 34.203,21C34.123,21.21 34.043,21.41 33.953,21.62C33.873,21.82 33.773,22.02 33.683,22.22C33.513,22.62 33.283,23.01 33.093,23.4C32.653,24.17 32.203,24.93 31.683,25.64C31.433,26.01 31.153,26.35 30.893,26.71C30.763,26.89 30.613,27.06 30.473,27.23L30.043,27.74L29.593,28.24C29.443,28.41 29.303,28.58 29.143,28.74C28.833,29.06 28.523,29.4 28.203,29.7L27.733,30.16L27.673,30.22L27.603,30.28L27.473,30.4L27.203,30.65L26.673,31.15L26.113,31.69C25.373,32.42 24.673,33.18 23.993,33.99C22.611,35.638 21.423,37.44 20.453,39.36C20.233,39.73 19.803,40.6 19.633,41.31C20.753,38.75 22.253,36.49 23.933,34.5C24.773,33.5 25.663,32.57 26.593,31.7L26.943,31.37L27.273,31.07L27.943,30.46C28.343,30.07 28.753,29.7 29.143,29.28L29.443,28.97L29.593,28.82L29.733,28.66L30.303,28.02C30.493,27.81 30.663,27.58 30.853,27.36L31.123,27.03L31.383,26.69C31.733,26.24 32.053,25.77 32.373,25.3L32.823,24.58C32.973,24.34 33.103,24.09 33.243,23.84C34.333,21.84 35.123,19.62 35.413,17.23L35.403,17.21ZM18.553,55.7L18.773,56.3C18.863,56.51 18.943,56.73 19.033,56.93C19.213,57.35 19.413,57.75 19.623,58.15C20.043,58.94 20.513,59.68 21.003,60.38C20.633,59.69 20.213,58.88 19.833,58.02C19.643,57.59 19.473,57.15 19.313,56.72C19.233,56.5 19.163,56.28 19.093,56.07C19.033,55.88 18.983,55.69 18.923,55.5L18.863,55.33L18.833,55.24L18.803,55.14L18.563,54.28L18.363,53.46C18.333,53.32 18.313,53.19 18.283,53.05C18.233,52.78 18.173,52.5 18.143,52.22C17.972,51.119 17.895,50.005 17.913,48.89C17.693,51.11 17.863,53.42 18.533,55.69L18.553,55.7ZM19.634,41.31C19.544,41.51 19.454,41.72 19.374,41.93C18.455,44.137 17.963,46.499 17.924,48.89C18.154,46.55 18.814,44.34 19.694,42.27C19.494,42.21 19.504,41.8 19.624,41.31L19.634,41.31Z" style="fill:rgb(0,121,52);fill-rule:nonzero;"/>
    <path d="M0.002,85.51C0.022,84.55 0.132,83.65 0.312,82.81C0.492,81.97 0.732,81.17 1.002,80.42C1.552,78.91 2.252,77.55 3.052,76.26C3.692,75.27 4.412,74.38 5.182,73.57C5.952,72.76 6.792,72.04 7.662,71.37C9.422,70.04 11.342,68.94 13.482,67.96C14.552,67.48 15.592,67.08 16.652,66.74C17.712,66.4 18.782,66.11 19.892,65.9C21.022,65.74 22.192,65.66 23.382,65.64C23.972,65.64 24.572,65.64 25.172,65.68C25.472,65.7 25.762,65.71 26.082,65.74C26.242,65.75 26.392,65.77 26.552,65.78C26.692,65.8 26.832,65.81 26.972,65.83C27.102,65.85 27.242,65.86 27.372,65.88C27.502,65.89 27.632,65.91 27.772,65.92C28.042,65.95 28.302,65.96 28.572,65.98C28.842,66 29.112,66.01 29.382,66.02C29.652,66.02 29.922,66.02 30.192,66.03C31.272,66.03 32.372,65.95 33.452,65.79C33.692,65.79 34.152,65.74 34.532,65.65C34.912,65.55 35.202,65.41 35.082,65.2C37.152,64.88 39.152,64.28 40.982,63.34C42.802,62.39 44.432,61.09 45.712,59.5C45.852,59.34 45.992,59.17 46.132,59.01L46.352,58.77L46.562,58.53L46.772,58.3C46.772,58.3 46.842,58.22 46.882,58.17L47.002,58.04L47.432,57.54C47.702,57.23 47.942,56.89 48.162,56.53C48.372,56.17 48.562,55.8 48.702,55.41C49.112,54.13 49.452,52.82 49.622,51.46C49.792,50.11 49.772,48.7 49.442,47.37C49.372,47.19 49.222,46.92 49.082,46.65C49.012,46.52 48.942,46.39 48.892,46.28C48.832,46.17 48.792,46.07 48.772,45.99C48.592,45.07 48.242,44.21 47.802,43.43C47.354,42.664 46.802,41.964 46.162,41.35C45.532,40.75 44.842,40.24 44.112,39.82C43.382,39.4 42.622,39.06 41.842,38.78C41.242,38.54 40.682,38.39 40.132,38.27C39.582,38.15 39.032,38.04 38.412,37.94C38.272,38.11 37.982,38.05 37.622,38.08C37.152,38.03 35.602,37.82 34.022,37.86L33.732,37.86C33.632,37.86 33.532,37.86 33.442,37.87C33.252,37.88 33.052,37.88 32.872,37.9C32.682,37.91 32.502,37.92 32.332,37.94C32.162,37.95 32.002,37.97 31.852,37.98L31.432,38.01C31.292,38.03 31.162,38.04 31.052,38.05C30.832,38.07 30.672,38.07 30.592,38.05C30.552,38.05 30.702,37.99 31.002,37.9C31.072,37.88 31.162,37.85 31.252,37.83C31.342,37.8 31.442,37.77 31.542,37.75C31.742,37.7 31.962,37.64 32.212,37.58C33.222,37.34 34.622,37.11 36.012,37.07C37.402,37.02 38.782,37.16 39.782,37.37C39.912,37.4 40.022,37.42 40.142,37.44C40.252,37.46 40.362,37.49 40.462,37.52C40.562,37.54 40.652,37.56 40.742,37.58C40.832,37.6 40.902,37.62 40.972,37.64C41.112,37.68 41.222,37.7 41.292,37.71C41.362,37.72 41.402,37.72 41.392,37.71C41.372,37.68 41.242,37.62 41.032,37.54C40.832,37.46 40.542,37.37 40.202,37.26C39.512,37.06 38.592,36.89 37.632,36.81C36.682,36.73 35.702,36.75 34.922,36.81C34.732,36.83 34.542,36.84 34.382,36.85C34.212,36.87 34.062,36.89 33.932,36.9C33.672,36.92 33.482,36.95 33.402,36.95C34.242,36.76 35.052,36.63 35.832,36.54C36.612,36.46 37.352,36.44 38.062,36.46C38.772,36.48 39.442,36.55 40.082,36.65C40.402,36.7 40.702,36.77 41.002,36.83C41.292,36.9 41.582,36.97 41.862,37.06C42.142,37.14 42.402,37.24 42.662,37.32C42.792,37.37 42.912,37.42 43.032,37.47L43.392,37.62C43.512,37.67 43.622,37.72 43.742,37.77C43.852,37.83 43.962,37.88 44.072,37.93C44.292,38.03 44.492,38.15 44.692,38.26C45.472,38.71 46.102,39.17 46.612,39.59C47.632,40.44 48.192,41.09 48.502,41.43C48.662,41.6 48.742,41.7 48.782,41.72C48.812,41.75 48.802,41.7 48.732,41.6C48.662,41.5 48.552,41.34 48.392,41.13C48.222,40.93 48.022,40.67 47.762,40.4C47.134,39.722 46.437,39.112 45.682,38.58C44.822,37.97 43.792,37.41 42.702,37.01C42.162,36.8 41.592,36.65 41.042,36.52C40.762,36.46 40.482,36.4 40.212,36.36L39.802,36.3C39.662,36.28 39.532,36.27 39.392,36.26C38.742,36.11 37.922,36.07 36.952,36.11C35.982,36.15 34.872,36.27 33.602,36.45C34.342,36.26 35.492,35.94 36.582,35.77C37.672,35.59 38.702,35.54 39.082,35.6C39.302,35.61 39.512,35.64 39.702,35.66C39.802,35.66 39.892,35.68 39.982,35.69C40.072,35.7 40.162,35.71 40.242,35.73C40.412,35.75 40.572,35.77 40.712,35.79C40.862,35.81 40.992,35.84 41.122,35.86C41.382,35.9 41.612,35.95 41.822,35.99C42.042,36.03 42.242,36.09 42.442,36.14C42.91,36.268 43.365,36.439 43.802,36.65C43.932,36.72 44.082,36.79 44.232,36.87C44.382,36.95 44.542,37.05 44.712,37.15C44.882,37.25 45.052,37.37 45.252,37.5C45.442,37.63 45.632,37.78 45.842,37.94C46.522,38.48 47.302,39.15 48.052,39.95C48.422,40.35 48.792,40.78 49.152,41.24C49.502,41.7 49.842,42.18 50.142,42.67C50.752,43.66 51.262,44.7 51.622,45.7C51.812,46.19 51.952,46.68 52.082,47.13C52.142,47.36 52.192,47.57 52.242,47.78C52.282,47.99 52.332,48.19 52.362,48.38C52.292,48.19 52.202,47.97 52.112,47.72C52.012,47.48 51.912,47.21 51.782,46.93C51.542,46.37 51.242,45.76 50.912,45.15C50.252,43.92 49.472,42.73 48.892,41.79C49.032,42.05 49.162,42.31 49.292,42.55C49.412,42.79 49.532,43.02 49.632,43.24C49.852,43.67 50.042,44.07 50.232,44.43C50.602,45.16 50.932,45.78 51.242,46.42C51.552,47.07 51.832,47.75 52.042,48.6C52.252,49.45 52.382,50.49 52.272,51.8C52.242,52.29 52.232,52.86 52.192,53.48C52.042,54.06 51.882,54.59 51.632,55.25C51.472,55.77 51.292,56.28 51.092,56.78C50.882,57.27 50.672,57.76 50.412,58.22C50.352,58.34 50.292,58.45 50.222,58.57C50.152,58.68 50.092,58.8 50.022,58.91L49.812,59.24L49.762,59.32L49.762,59.34L49.722,59.38L49.702,59.42L49.602,59.57L49.402,59.86C49.332,59.96 49.272,60.05 49.192,60.16C49.042,60.37 48.892,60.57 48.742,60.77C47.532,62.34 46.112,63.77 44.362,64.93C44.652,64.72 44.962,64.75 45.282,64.55C46.062,64.06 46.762,63.51 47.392,62.91C48.022,62.3 48.572,61.66 49.102,60.97C49.232,60.79 49.362,60.61 49.502,60.43L49.602,60.29L49.682,60.16L49.852,59.91C49.912,59.83 49.962,59.74 50.022,59.66L50.082,59.57L50.132,59.5L50.222,59.35C50.282,59.25 50.342,59.15 50.412,59.05C50.966,58.106 51.438,57.115 51.822,56.09C51.982,55.73 52.052,55.27 52.092,54.8C52.112,54.57 52.122,54.33 52.142,54.11C52.152,53.88 52.182,53.67 52.212,53.47C52.342,52.67 52.452,51.92 52.542,51.17C52.632,50.42 52.692,49.67 52.672,48.91C52.962,50.41 52.982,52.11 52.692,53.81C52.402,55.51 51.802,57.21 50.952,58.73C50.862,58.89 50.782,59.06 50.702,59.24L50.462,59.78L50.462,59.81L50.442,59.83L50.422,59.86L50.402,59.92C50.382,59.96 50.372,60 50.352,60.03C50.322,60.1 50.292,60.18 50.262,60.25C50.202,60.39 50.152,60.52 50.112,60.64L50.422,60.23L50.572,60.03L50.592,60L50.642,59.94L50.682,59.88L50.772,59.75C50.892,59.58 51.012,59.41 51.112,59.23C51.222,59.05 51.332,58.88 51.432,58.7C51.842,57.98 52.172,57.23 52.452,56.46C52.682,55.79 52.862,55.07 52.982,54.34C53.102,53.6 53.162,52.85 53.172,52.09C53.192,50.57 53.002,49.06 52.662,47.64C52.322,46.22 51.852,44.9 51.342,43.72C50.832,42.54 50.302,41.51 49.862,40.62C49.782,40.53 49.702,40.45 49.542,40.28C49.519,40.206 49.485,40.135 49.442,40.07C48.972,39.46 48.402,38.76 47.902,38.07L48.142,38.31C48.272,38.46 48.462,38.65 48.632,38.85C48.792,39.035 48.945,39.225 49.092,39.42C49.212,39.58 49.302,39.68 49.302,39.68C50.292,40.66 51.162,41.85 51.812,43.18C52.472,44.51 52.952,45.96 53.222,47.47C53.762,50.48 53.552,53.68 52.582,56.69C52.392,57.37 51.952,58.21 51.412,58.99C51.272,59.18 51.142,59.38 51.002,59.56C50.932,59.65 50.862,59.74 50.792,59.84C50.762,59.89 50.722,59.93 50.692,59.98L50.642,60.05L50.622,60.08L50.582,60.13C50.472,60.27 50.362,60.41 50.262,60.54L50.112,60.75C50.062,60.82 50.012,60.9 49.962,60.97L49.742,61.28C49.672,61.38 49.592,61.49 49.522,61.58C49.372,61.77 49.222,61.96 49.082,62.15C48.772,62.52 48.452,62.89 48.112,63.24C47.432,63.95 46.702,64.61 45.912,65.2C44.349,66.376 42.616,67.307 40.772,67.96C39.173,68.549 37.518,68.972 35.832,69.22C34.172,69.47 32.512,69.56 30.872,69.51C30.052,69.49 29.242,69.43 28.432,69.35L27.832,69.28L26.932,69.16L26.352,69.08L26.082,69.04C25.732,68.99 25.362,68.95 25.002,68.92L24.452,68.88L23.902,68.86C23.162,68.84 22.422,68.85 21.682,68.9C18.712,69.1 15.732,69.89 12.972,71.22C11.592,71.88 10.252,72.68 9.002,73.6C7.728,74.528 6.552,75.583 5.492,76.75C5.322,76.99 5.162,77.24 5.002,77.48L5.332,77.24L5.042,77.54L4.762,77.85C4.332,78.54 3.932,79.25 3.542,79.97C3.162,80.69 2.802,81.43 2.462,82.19C2.292,82.5 2.372,82.21 2.492,81.77C2.612,81.33 2.822,80.77 2.842,80.5C2.672,80.84 2.522,81.19 2.522,81.19L2.382,80.99C2.322,81.28 2.162,81.41 2.022,81.59C2.582,79.75 3.472,78.08 4.522,76.55C5.582,75.03 6.832,73.65 8.222,72.44C7.972,72.48 7.652,72.7 7.352,72.95C7.052,73.2 6.762,73.49 6.572,73.67C6.162,74.14 5.782,74.62 5.402,75.09C5.022,75.56 4.662,76.03 4.302,76.48C3.422,77.8 2.542,79.18 1.842,80.72C1.492,81.49 1.192,82.3 0.982,83.14C0.772,83.99 0.642,84.87 0.652,85.77C0.602,86.44 0.592,87.12 0.642,87.81C0.642,87.97 0.602,88.02 0.542,87.98C0.501,87.947 0.467,87.906 0.442,87.86C0.402,87.78 0.352,87.67 0.312,87.55C0.262,87.43 0.222,87.28 0.182,87.13C0.142,86.97 0.102,86.8 0.072,86.63C0.012,86.28 -0.008,85.9 0.002,85.55L0.002,85.51ZM36.962,67.89C35.982,68.03 35.012,68.05 34.022,68.04L33.512,68.09L33.002,68.12C32.892,68.12 32.792,68.13 32.682,68.14C32.572,68.14 32.462,68.16 32.352,68.17C32.132,68.19 31.902,68.23 31.662,68.26C30.742,68.24 29.832,68.18 28.932,68.08C28.702,68.06 28.482,68.03 28.252,68L27.912,67.96L27.572,67.91C27.122,67.85 26.682,67.76 26.232,67.69C26.452,67.75 26.672,67.82 26.902,67.88C27.122,67.95 27.352,68 27.582,68.06C27.812,68.12 28.042,68.17 28.282,68.22C28.522,68.27 28.762,68.32 29.012,68.36C30.002,68.52 31.072,68.61 32.232,68.56C31.852,68.59 31.482,68.6 31.112,68.62L30.012,68.62C29.282,68.6 28.572,68.53 27.872,68.45C27.522,68.4 27.172,68.35 26.832,68.29C26.662,68.26 26.492,68.23 26.332,68.2C26.172,68.17 26.002,68.15 25.842,68.12C25.182,68.03 24.522,67.95 23.852,67.9C21.192,67.71 18.472,67.91 15.762,68.7C14.162,69.27 12.592,70.02 11.102,70.99C10.062,71.68 9.122,72.48 8.272,73.33C11.252,70.95 14.732,69.36 18.302,68.63C20.092,68.27 21.902,68.11 23.682,68.18C24.132,68.2 24.572,68.23 25.012,68.27C25.232,68.29 25.452,68.32 25.672,68.34L26.322,68.43L26.992,68.54L27.682,68.65C27.912,68.69 28.142,68.71 28.372,68.74C28.602,68.77 28.832,68.8 29.072,68.82C30.932,69.01 32.832,69.03 34.742,68.83C36.652,68.64 38.572,68.23 40.442,67.54C42.302,66.86 44.102,65.92 45.742,64.72C46.562,64.12 47.342,63.46 48.072,62.75C48.262,62.58 48.432,62.39 48.612,62.21L48.882,61.93L49.142,61.64C49.312,61.45 49.482,61.26 49.652,61.05L49.902,60.74L50.032,60.58L50.142,60.44C50.052,60.55 49.922,60.68 49.802,60.8L49.452,61.18L48.752,61.88C48.512,62.1 48.272,62.33 48.032,62.54C47.782,62.75 47.542,62.97 47.282,63.17C46.272,63.99 45.212,64.72 44.102,65.35C41.892,66.604 39.478,67.461 36.972,67.88L36.962,67.89ZM38.612,67.08C40.492,66.46 42.272,65.56 43.862,64.43C44.412,64.07 44.942,63.66 45.472,63.24C45.982,62.81 46.492,62.36 46.962,61.88C47.442,61.41 47.882,60.9 48.302,60.4C48.512,60.14 48.722,59.87 48.902,59.62C48.992,59.49 49.082,59.37 49.172,59.24L49.302,59.05L49.332,59.01L49.352,58.98L49.382,58.93L49.452,58.83C49.812,58.28 50.112,57.72 50.352,57.15C50.592,56.59 50.772,56.02 50.912,55.48C51.052,54.94 51.132,54.41 51.182,53.91C51.222,53.41 51.232,52.95 51.192,52.52C51.122,53.67 50.902,54.82 50.542,55.95C50.362,56.51 50.132,57.07 49.872,57.61C49.802,57.74 49.742,57.88 49.662,58.01L49.442,58.41L49.202,58.8L49.172,58.85L49.152,58.87L48.952,59.17L48.702,59.53L48.432,59.9C48.342,60.02 48.252,60.15 48.162,60.27L47.882,60.63C47.502,61.1 47.102,61.56 46.682,62C45.832,62.89 44.892,63.7 43.872,64.42C44.852,63.75 45.372,63.31 45.562,63.15C45.652,63.07 45.662,63.06 45.602,63.11C45.542,63.16 45.402,63.27 45.192,63.44C44.782,63.77 44.072,64.3 43.102,64.9C42.132,65.51 40.882,66.16 39.412,66.75C39.282,66.82 38.992,66.94 38.632,67.07L38.612,67.08Z" style="fill:rgb(177,25,23);fill-rule:nonzero;"/>
    <path d="M11.412,72.33C9.502,73.29 7.702,74.57 6.072,76.08C6.832,75.62 7.522,75.26 8.352,74.76C9.442,74.04 10.552,73.29 11.722,72.6C12.892,71.92 14.112,71.31 15.352,70.9C16.242,70.61 17.142,70.36 18.052,70.17C18.962,69.97 19.872,69.83 20.792,69.74C21.712,69.65 22.632,69.61 23.542,69.62C23.772,69.62 24.002,69.62 24.232,69.64C24.462,69.64 24.692,69.66 24.922,69.68C25.152,69.69 25.382,69.72 25.602,69.74C25.832,69.76 26.042,69.79 26.252,69.82C26.502,69.85 26.752,69.89 27.002,69.92C27.272,69.95 27.532,69.98 27.802,70.02C28.072,70.04 28.342,70.07 28.602,70.09C28.872,70.11 29.142,70.13 29.412,70.14C30.492,70.2 31.592,70.19 32.702,70.13C34.912,69.99 37.152,69.59 39.332,68.84C39.552,68.78 39.902,68.67 40.272,68.52C40.462,68.44 40.652,68.36 40.842,68.27C41.032,68.18 41.212,68.08 41.372,67.99C40.702,68.27 40.012,68.5 39.322,68.72C38.972,68.82 38.632,68.93 38.292,69.01L37.772,69.14L37.252,69.26C35.872,69.56 34.482,69.74 33.122,69.82C31.752,69.91 30.402,69.88 29.062,69.78C28.392,69.73 27.732,69.66 27.082,69.57L26.952,69.55L26.832,69.53L26.602,69.5C26.452,69.48 26.282,69.45 26.152,69.44L25.732,69.39L25.302,69.35C20.662,68.91 15.812,69.95 11.392,72.33L11.412,72.33ZM52.662,57.98C53.382,56.22 53.752,54.41 53.962,52.68C53.772,53.45 53.542,54.36 53.252,55.27C52.962,56.18 52.612,57.1 52.232,57.89C51.972,58.45 51.692,59.01 51.352,59.55C51.272,59.69 51.182,59.82 51.092,59.95L50.962,60.15L50.822,60.35L50.602,60.66L50.492,60.81L50.432,60.89L50.362,60.98C50.182,61.22 49.992,61.46 49.812,61.69C49.632,61.91 49.442,62.13 49.262,62.34L48.692,62.97C48.492,63.17 48.292,63.38 48.092,63.58C48.302,63.39 48.522,63.2 48.742,63.02C48.952,62.82 49.162,62.63 49.362,62.43C49.562,62.22 49.762,62.02 49.962,61.81C50.162,61.59 50.372,61.35 50.572,61.12L50.652,61.03L50.712,60.96L51.072,60.51L51.132,60.44L51.152,60.42L51.152,60.41L51.232,60.31L51.382,60.11C51.482,59.98 51.582,59.84 51.662,59.71C52.032,59.16 52.352,58.58 52.642,57.99L52.662,57.98ZM41.383,67.99L41.713,67.86L42.033,67.72C42.243,67.62 42.463,67.53 42.673,67.43C44.633,66.5 46.503,65.18 48.113,63.59C46.273,65.14 44.203,66.34 42.043,67.25C42.093,67.34 42.043,67.46 41.923,67.59C41.863,67.66 41.783,67.72 41.693,67.79C41.603,67.86 41.493,67.93 41.383,67.99" style="fill:rgb(177,25,23);fill-rule:nonzero;"/>
    <path d="M85.823,67.59C85.623,67.65 85.433,67.7 85.243,67.76C85.053,67.82 84.863,67.87 84.663,67.92C84.273,68.02 83.893,68.11 83.513,68.21L82.373,68.45L82.093,68.51L81.813,68.56C81.623,68.59 81.433,68.62 81.243,68.66C79.733,68.9 78.233,69.06 76.703,69.11C76.403,69.11 76.113,69.11 75.813,69.09C75.663,69.09 75.523,69.08 75.373,69.07C75.223,69.07 75.083,69.05 74.933,69.03L74.063,68.94C73.773,68.9 73.493,68.85 73.203,68.8C72.633,68.71 72.073,68.56 71.513,68.43C71.233,68.36 70.963,68.27 70.683,68.18C70.413,68.09 70.133,68.01 69.863,67.91L69.053,67.61C68.783,67.51 68.523,67.38 68.253,67.27C67.723,67.05 67.203,66.77 66.683,66.51C66.423,66.38 66.173,66.22 65.913,66.08C65.783,66.01 65.653,65.93 65.523,65.86C65.393,65.79 65.273,65.7 65.143,65.63C64.893,65.47 64.633,65.31 64.373,65.15C64.123,64.98 63.873,64.81 63.613,64.63C63.493,64.54 63.363,64.46 63.243,64.37L62.883,64.1C62.643,63.92 62.403,63.74 62.183,63.55C61.733,63.17 61.283,62.81 60.863,62.4C60.003,61.63 59.223,60.79 58.453,59.9C58.283,59.66 58.103,59.42 57.933,59.18L57.803,59L57.683,58.81C57.603,58.69 57.523,58.56 57.433,58.43C57.353,58.3 57.273,58.18 57.183,58.05L56.943,57.67C56.793,57.41 56.633,57.15 56.483,56.89C55.893,55.83 55.323,54.73 54.843,53.58C54.593,53.02 54.373,52.4 54.133,51.8C53.943,51.24 53.753,50.68 53.563,50.11C53.193,49.04 52.763,47.98 52.253,46.94C52.163,46.71 51.983,46.25 51.773,45.91C51.563,45.56 51.323,45.32 51.163,45.49C50.203,43.52 49.033,41.67 47.573,40.13C46.843,39.36 46.053,38.66 45.183,38.08C44.323,37.5 43.393,37.02 42.423,36.67C41.623,36.36 40.813,36.01 39.953,35.72C39.743,35.65 39.523,35.57 39.323,35.52L39.013,35.44L38.853,35.4C38.803,35.39 38.733,35.38 38.673,35.36L38.313,35.29L38.133,35.26L38.043,35.26L38.023,35.24C38.023,35.24 38.123,35.25 38.073,35.24L38.033,35.24C37.833,35.22 37.633,35.2 37.423,35.21C36.113,35.28 34.803,35.55 33.513,36.06C32.233,36.57 30.993,37.33 29.973,38.32C29.913,38.4 29.843,38.51 29.763,38.63C29.683,38.75 29.603,38.88 29.513,39.02C29.343,39.28 29.193,39.53 29.063,39.65C28.333,40.3 27.713,41.06 27.203,41.86C26.703,42.67 26.303,43.53 26.003,44.4C25.703,45.28 25.503,46.17 25.383,47.06C25.263,47.95 25.213,48.83 25.233,49.69C25.233,50.37 25.283,50.96 25.373,51.53C25.463,52.1 25.573,52.65 25.713,53.24C25.933,53.3 25.983,53.58 26.153,53.88C26.233,54.09 26.363,54.56 26.603,55.12C26.833,55.68 27.183,56.34 27.593,56.96C28.003,57.58 28.493,58.16 28.903,58.6C29.103,58.8 29.243,58.98 29.433,59.15C29.593,59.31 29.713,59.44 29.753,59.51C29.773,59.54 29.623,59.46 29.363,59.29C29.293,59.25 29.223,59.2 29.143,59.15C29.073,59.1 29.003,59.05 28.923,58.99C28.843,58.93 28.763,58.87 28.673,58.81C28.583,58.74 28.493,58.66 28.393,58.58C27.603,57.94 26.653,56.93 25.973,55.75C25.633,55.16 25.343,54.54 25.133,53.93C24.923,53.32 24.773,52.74 24.683,52.22C24.593,51.71 24.533,51.28 24.503,50.99C24.473,50.7 24.443,50.54 24.413,50.56C24.383,50.63 24.363,51.14 24.433,51.86C24.503,52.59 24.693,53.53 25.033,54.42C25.193,54.87 25.403,55.31 25.613,55.71C25.723,55.91 25.823,56.11 25.943,56.28C26.003,56.37 26.053,56.46 26.113,56.55C26.173,56.63 26.223,56.72 26.283,56.79C26.723,57.42 27.113,57.84 27.213,57.97C26.054,56.911 25.143,55.61 24.543,54.16C23.993,52.83 23.743,51.51 23.663,50.33C23.633,50.03 23.633,49.74 23.623,49.46C23.623,49.18 23.623,48.9 23.643,48.64C23.663,48.11 23.723,47.61 23.773,47.15C23.903,46.23 24.083,45.44 24.263,44.78C24.633,43.46 24.973,42.65 25.143,42.21C25.223,41.99 25.273,41.87 25.283,41.82C25.283,41.78 25.263,41.82 25.193,41.92C25.133,42.03 25.043,42.21 24.923,42.45C24.813,42.69 24.673,43 24.533,43.35C24.253,44.07 23.933,45 23.703,46.06C23.583,46.59 23.493,47.16 23.423,47.74C23.353,48.32 23.333,48.92 23.333,49.52C23.343,50.72 23.523,51.92 23.843,52.98C23.953,53.66 24.253,54.45 24.723,55.32C24.963,55.75 25.233,56.2 25.573,56.66C25.903,57.12 26.273,57.6 26.713,58.08C26.573,57.95 26.403,57.81 26.233,57.64C26.143,57.56 26.053,57.47 25.963,57.38C25.873,57.29 25.783,57.19 25.683,57.1C25.493,56.91 25.313,56.7 25.123,56.48C24.943,56.26 24.753,56.04 24.593,55.81C23.913,54.9 23.463,53.92 23.353,53.54C23.063,52.66 22.923,52 22.813,51.47C22.703,50.94 22.643,50.52 22.593,50.09C22.573,49.87 22.563,49.65 22.553,49.41L22.553,49.02C22.553,48.88 22.553,48.74 22.573,48.59C22.623,47.98 22.733,47.2 23.023,46.16C23.263,45.31 23.573,44.31 23.973,43.27C24.173,42.75 24.403,42.22 24.653,41.69C24.913,41.16 25.173,40.63 25.473,40.12C25.773,39.61 26.083,39.11 26.413,38.63C26.743,38.15 27.083,37.71 27.423,37.29C28.113,36.46 28.813,35.76 29.413,35.25C29.283,35.41 29.123,35.6 28.953,35.81C28.873,35.92 28.783,36.03 28.693,36.14C28.603,36.26 28.513,36.38 28.423,36.51C28.053,37.02 27.663,37.59 27.283,38.19C26.523,39.39 25.843,40.69 25.243,41.65C25.943,40.63 26.503,39.86 26.963,39.16C27.433,38.47 27.813,37.86 28.233,37.25C28.653,36.64 29.103,36.04 29.763,35.4C30.093,35.09 30.473,34.76 30.923,34.45C31.383,34.14 31.913,33.82 32.543,33.55C33.013,33.33 33.543,33.06 34.163,32.81C34.783,32.68 35.373,32.58 36.133,32.54C36.713,32.47 37.303,32.45 37.873,32.47C38.013,32.47 38.163,32.49 38.303,32.49L38.453,32.49L38.543,32.51L38.723,32.53C38.973,32.56 39.203,32.58 39.483,32.63C40.033,32.71 40.543,32.81 41.053,32.92C41.303,32.98 41.563,33.04 41.813,33.11C42.063,33.18 42.313,33.26 42.563,33.33C44.553,33.96 46.433,34.95 48.113,36.35C47.803,36.13 47.763,35.8 47.453,35.55C46.733,34.92 45.963,34.39 45.153,33.96C44.343,33.53 43.503,33.19 42.633,32.92C42.413,32.86 42.193,32.79 41.973,32.73C41.753,32.67 41.533,32.62 41.303,32.57C41.193,32.54 41.083,32.52 40.963,32.49C40.853,32.47 40.733,32.45 40.623,32.42C40.393,32.38 40.173,32.33 39.923,32.29C39.683,32.25 39.443,32.22 39.193,32.18C38.973,32.15 38.763,32.13 38.543,32.1L38.463,32.1L38.423,32.08L38.123,32.08C37.993,32.06 37.853,32.05 37.723,32.04C37.453,32.04 37.183,32.02 36.903,32.04C36.793,32.04 36.683,32.04 36.573,32.05C36.463,32.06 36.343,32.08 36.223,32.11C35.983,32.15 35.743,32.23 35.503,32.31C35.263,32.39 35.033,32.49 34.803,32.57C34.583,32.66 34.363,32.73 34.153,32.8C33.333,33.06 32.573,33.33 31.833,33.63C31.103,33.93 30.393,34.27 29.713,34.69C30.903,33.65 32.453,32.73 34.253,32.2C35.153,31.94 36.103,31.78 37.063,31.74L37.783,31.74L38.143,31.76L38.323,31.76L38.373,31.77L38.463,31.77L38.483,31.78L38.553,31.78C38.743,31.81 38.943,31.84 39.133,31.86L39.273,31.88L39.443,31.91C39.553,31.93 39.663,31.95 39.773,31.96L40.053,31.99C40.103,31.99 40.153,31.99 40.203,32C40.253,32 40.293,32 40.343,32.01L40.923,32.04C41.303,32.05 41.673,32.07 41.963,32.08C41.573,31.97 41.193,31.85 40.803,31.76C40.603,31.71 40.413,31.67 40.213,31.62L39.583,31.5L39.423,31.47L39.343,31.47L39.273,31.45L38.623,31.35L38.553,31.35L38.423,31.33L38.383,31.33C38.153,31.31 37.933,31.29 37.703,31.29L37.023,31.29C36.233,31.33 35.423,31.46 34.643,31.69C33.863,31.91 33.103,32.22 32.383,32.59C30.943,33.33 29.673,34.31 28.593,35.35C27.503,36.39 26.593,37.49 25.803,38.52C25.023,39.55 24.353,40.51 23.753,41.31L23.593,41.75C23.543,41.79 23.493,41.86 23.443,41.93C23.103,42.62 22.713,43.44 22.293,44.18L22.413,43.87C22.493,43.68 22.593,43.44 22.703,43.2C22.753,43.08 22.813,42.96 22.863,42.84C22.913,42.73 22.973,42.62 23.013,42.53L23.163,42.23C23.613,40.91 24.263,39.6 25.103,38.37C25.974,37.108 27.002,35.962 28.163,34.96C29.353,33.93 30.713,33.03 32.233,32.34C33.743,31.65 35.433,31.19 37.203,31.09C37.403,31.08 37.613,31.07 37.833,31.08C37.943,31.08 38.063,31.09 38.183,31.11C38.243,31.11 38.303,31.12 38.363,31.13L38.453,31.13L38.463,31.14L38.573,31.14L38.573,31.15L38.623,31.15C38.803,31.19 39.003,31.23 39.193,31.27L39.343,31.3L39.513,31.34L39.873,31.43C40.363,31.54 40.783,31.68 41.193,31.8C41.393,31.87 41.593,31.93 41.783,31.98C41.883,32 41.973,32.03 42.063,32.05C42.153,32.08 42.243,32.1 42.323,32.12C44.293,32.61 46.213,33.54 47.883,34.76C48.723,35.37 49.493,36.05 50.203,36.78C50.913,37.51 51.543,38.28 52.113,39.08C53.163,40.5 54.033,42.01 54.773,43.56C55.143,44.33 55.483,45.11 55.783,45.9C56.083,46.69 56.363,47.48 56.613,48.28L56.883,49.18L56.963,49.46L57.203,50.33L57.243,50.47L57.283,50.6L57.633,51.66L58.043,52.73C58.623,54.14 59.323,55.51 60.163,56.8C61.833,59.38 64.053,61.67 66.713,63.39C69.373,65.11 72.463,66.26 75.703,66.73L76.613,66.73L76.223,66.58L76.643,66.66L77.063,66.72C78.733,66.69 80.363,66.55 82.023,66.46C82.363,66.46 82.083,66.54 81.643,66.63C81.203,66.71 80.613,66.83 80.373,66.94C80.563,66.94 80.753,66.91 80.893,66.89C81.033,66.88 81.123,66.87 81.123,66.87C81.123,66.87 81.073,66.98 81.013,67.09C81.293,67 81.483,67.09 81.703,67.12C79.863,67.48 77.983,67.66 76.083,67.62C74.183,67.58 72.283,67.31 70.443,66.79C70.623,66.97 70.993,67.12 71.383,67.25C71.583,67.32 71.783,67.36 71.963,67.4C72.153,67.44 72.323,67.48 72.453,67.51C73.723,67.67 74.993,67.75 76.153,67.85C77.773,67.85 79.413,67.85 81.053,67.7C82.683,67.55 84.313,67.29 85.803,66.83C86.093,66.78 86.373,66.71 86.663,66.65C86.943,66.59 87.233,66.53 87.513,66.48C87.673,66.45 87.733,66.48 87.703,66.55C87.678,66.596 87.644,66.637 87.603,66.67C87.543,66.72 87.463,66.77 87.373,66.83C87.193,66.95 86.943,67.08 86.673,67.2C86.543,67.26 86.393,67.32 86.253,67.38C86.103,67.43 85.963,67.47 85.813,67.51L85.823,67.59ZM53.183,42.9C53.613,43.83 53.933,44.76 54.223,45.74C54.363,46.06 54.493,46.39 54.623,46.72C54.693,46.93 54.783,47.14 54.883,47.35C54.973,47.56 55.083,47.78 55.193,48C55.333,48.45 55.473,48.9 55.593,49.36L55.953,50.71L56.043,51.05L56.143,51.38L56.353,52.04C56.423,52.26 56.503,52.48 56.583,52.7L56.823,53.36C56.763,53.13 56.713,52.9 56.653,52.66C56.593,52.43 56.533,52.2 56.483,51.96C56.433,51.73 56.383,51.49 56.323,51.25C56.293,51.13 56.263,51.01 56.243,50.89C56.223,50.77 56.193,50.64 56.173,50.52C56.073,50.02 55.953,49.52 55.813,48.98C55.673,48.45 55.493,47.9 55.283,47.34C55.583,48.06 55.833,48.77 56.063,49.48C56.173,49.83 56.273,50.18 56.383,50.52C56.433,50.69 56.483,50.87 56.543,51.03C56.593,51.19 56.653,51.36 56.703,51.52C56.753,51.69 56.813,51.85 56.863,52.01C56.923,52.17 56.983,52.34 57.043,52.5C57.103,52.66 57.163,52.83 57.223,52.99L57.313,53.23L57.413,53.47L57.803,54.43C57.943,54.75 58.083,55.06 58.233,55.37C58.826,56.624 59.515,57.831 60.293,58.98L60.593,59.41C60.693,59.55 60.793,59.7 60.903,59.84C61.123,60.12 61.343,60.4 61.563,60.67C61.803,60.94 62.043,61.2 62.283,61.47C62.533,61.73 62.793,61.98 63.053,62.24C63.213,62.39 63.393,62.52 63.563,62.66C63.733,62.8 63.913,62.93 64.083,63.07C64.443,63.33 64.813,63.59 65.183,63.84C65.373,63.96 65.563,64.08 65.763,64.19C65.953,64.31 66.143,64.43 66.353,64.53C66.553,64.64 66.753,64.74 66.963,64.85C67.063,64.9 67.163,64.96 67.273,65.01L67.583,65.15C67.883,65.28 68.173,65.42 68.473,65.53C68.773,65.64 69.073,65.74 69.383,65.85C69.683,65.95 69.993,66.03 70.293,66.11C70.593,66.2 70.903,66.26 71.213,66.32C70.273,66.03 69.363,65.64 68.483,65.23C68.263,65.12 68.053,65.01 67.833,64.89C67.613,64.78 67.403,64.67 67.193,64.54C66.773,64.29 66.353,64.05 65.963,63.77C64.363,62.7 62.913,61.43 61.683,60C60.465,58.588 59.418,57.037 58.563,55.38C58.463,55.17 58.363,54.96 58.263,54.76C58.163,54.55 58.063,54.35 57.973,54.14L57.703,53.51C57.613,53.3 57.523,53.09 57.443,52.87L57.083,51.91L56.983,51.59C56.853,51.16 56.703,50.75 56.593,50.28L56.413,49.6L56.223,48.91C56.163,48.68 56.093,48.45 56.023,48.21C55.953,47.98 55.883,47.75 55.803,47.52C55.503,46.6 55.163,45.68 54.773,44.78C53.993,42.98 53.033,41.21 51.833,39.57C50.643,37.92 49.203,36.39 47.503,35.11C45.813,33.83 43.863,32.81 41.783,32.17C43.103,32.67 44.343,33.31 45.493,34.05C46.073,34.41 46.613,34.82 47.143,35.23C47.663,35.66 48.173,36.09 48.643,36.56C49.593,37.48 50.453,38.48 51.203,39.55C51.953,40.608 52.622,41.721 53.203,42.88L53.183,42.9ZM51.913,41.51C50.763,39.83 49.383,38.3 47.803,37.05C47.673,36.94 47.533,36.84 47.403,36.73L47.203,36.57L46.993,36.42C46.853,36.32 46.713,36.21 46.573,36.11L46.143,35.82L45.923,35.67L45.703,35.53L45.253,35.26L44.793,35.01L44.563,34.88L44.323,34.76C44.163,34.68 44.013,34.61 43.853,34.53L43.373,34.32C43.053,34.18 42.723,34.07 42.403,33.95C41.753,33.73 41.103,33.54 40.453,33.41C40.293,33.38 40.133,33.34 39.973,33.31C39.813,33.28 39.643,33.26 39.483,33.24C39.153,33.19 38.853,33.16 38.553,33.13C38.483,33.13 38.403,33.12 38.333,33.11L37.603,33.11C37.443,33.11 37.293,33.12 37.143,33.14C36.993,33.16 36.843,33.17 36.693,33.19C36.103,33.28 35.563,33.42 35.073,33.6C34.833,33.7 34.593,33.79 34.383,33.9C34.273,33.95 34.163,34 34.063,34.06C33.963,34.12 33.863,34.18 33.773,34.23C34.863,33.75 36.063,33.44 37.303,33.37C37.463,33.37 37.613,33.36 37.773,33.36L38.243,33.36L38.273,33.37L38.493,33.37L38.713,33.4C38.863,33.41 39.013,33.42 39.163,33.44C39.473,33.48 39.783,33.52 40.093,33.58C40.393,33.64 40.703,33.69 41.003,33.76C42.213,34.04 43.423,34.45 44.573,35.01C45.729,35.576 46.822,36.263 47.833,37.06C46.883,36.27 46.283,35.91 46.063,35.76C45.843,35.62 46.003,35.73 46.463,36.04C46.913,36.36 47.653,36.89 48.533,37.69C49.403,38.48 50.423,39.53 51.413,40.83C51.523,40.93 51.723,41.19 51.953,41.51L51.913,41.51Z" style="fill:rgb(0,53,149);fill-rule:nonzero;"/>
    <path d="M68.574,64.22C69.524,64.77 70.524,65.28 71.584,65.68C71.714,65.73 71.844,65.79 71.984,65.84L72.384,65.98C72.654,66.07 72.924,66.17 73.194,66.25C73.464,66.33 73.744,66.41 74.014,66.48L74.224,66.54L74.854,66.69C74.644,66.6 74.444,66.51 74.244,66.42C74.054,66.32 73.854,66.23 73.654,66.13C73.454,66.03 73.254,65.94 73.054,65.84C72.844,65.73 72.634,65.63 72.404,65.53C71.164,65.01 69.884,64.48 68.644,63.84C67.404,63.2 66.224,62.45 65.214,61.57C65.034,61.41 64.864,61.24 64.684,61.08L64.424,60.84L64.174,60.58L63.664,60.07C63.504,59.89 63.344,59.71 63.184,59.54L62.944,59.28C62.864,59.19 62.794,59.1 62.714,59C62.564,58.82 62.414,58.63 62.264,58.45C62.114,58.26 61.974,58.07 61.834,57.88C61.694,57.69 61.544,57.5 61.414,57.3C61.284,57.1 61.144,56.91 61.014,56.71L60.914,56.56L60.824,56.41L60.634,56.1C60.514,55.9 60.374,55.7 60.264,55.49C60.144,55.28 60.034,55.07 59.914,54.86C59.854,54.76 59.794,54.65 59.744,54.55L59.584,54.23C59.474,54.02 59.374,53.8 59.264,53.59C59.164,53.37 59.074,53.15 58.974,52.93C58.874,52.71 58.774,52.5 58.694,52.27C58.524,51.82 58.334,51.38 58.194,50.94C58.114,50.72 58.044,50.51 57.964,50.29C57.884,50.04 57.814,49.79 57.734,49.54L57.614,49.17L57.494,48.79C57.404,48.53 57.324,48.26 57.234,48C57.054,47.47 56.864,46.95 56.654,46.42C55.824,44.33 54.764,42.28 53.414,40.35C53.174,39.95 52.574,39.11 52.004,38.58C53.844,40.95 55.204,43.51 56.224,46.1C56.344,46.43 56.474,46.75 56.594,47.08L56.764,47.57L56.924,48.06C57.034,48.39 57.134,48.72 57.234,49.05C57.324,49.36 57.414,49.67 57.514,49.98L57.654,50.45L57.934,51.29C57.984,51.43 58.024,51.57 58.084,51.71C58.194,51.99 58.304,52.28 58.414,52.56C58.524,52.84 58.654,53.12 58.774,53.39C58.834,53.53 58.894,53.67 58.964,53.81L59.364,54.63L59.464,54.83L60.014,55.83L60.494,56.61C61.154,57.63 61.894,58.62 62.714,59.55C63.534,60.47 64.444,61.33 65.424,62.12C66.404,62.91 67.454,63.64 68.594,64.26L68.574,64.22ZM38.654,30.67L38.504,30.67L38.504,30.66L37.354,30.66L36.964,30.69C36.704,30.71 36.444,30.73 36.184,30.77L35.804,30.82L35.424,30.89C34.424,31.08 33.484,31.37 32.604,31.7C33.444,31.49 34.434,31.26 35.494,31.13C36.014,31.06 36.564,31.03 37.094,31.03C37.364,31.03 37.624,31.03 37.884,31.05C38.014,31.05 38.144,31.07 38.264,31.08C38.324,31.08 38.394,31.09 38.454,31.1L38.474,31.1L38.604,31.12L38.634,31.12L38.704,31.14L39.094,31.19L39.294,31.21L39.394,31.21L39.514,31.24C39.834,31.29 40.154,31.34 40.464,31.4C40.764,31.46 41.064,31.52 41.354,31.59C41.644,31.67 41.944,31.74 42.234,31.83C43.404,32.17 44.534,32.63 45.604,33.18C44.574,32.55 43.464,32 42.294,31.58C42.004,31.48 41.704,31.38 41.404,31.29C41.104,31.2 40.794,31.12 40.494,31.04C40.164,30.97 39.834,30.9 39.494,30.83C39.214,30.78 38.954,30.74 38.684,30.7L38.654,30.67ZM51.982,38.55L51.532,37.99C51.382,37.8 51.212,37.62 51.062,37.44C49.517,35.683 47.658,34.228 45.582,33.15C46.672,33.82 47.662,34.59 48.572,35.43C49.482,36.27 50.312,37.17 51.062,38.11C51.222,37.96 51.572,38.19 51.982,38.56L51.982,38.55Z" style="fill:rgb(0,53,149);fill-rule:nonzero;"/>
</svg>
