<?xml version="1.0" encoding="UTF-8" standalone="no"?>
<!DOCTYPE svg PUBLIC "-//W3C//DTD SVG 1.1//EN" "http://www.w3.org/Graphics/SVG/1.1/DTD/svg11.dtd">
<svg width="100%" height="100%" viewBox="0 0 96 96" version="1.1" xmlns="http://www.w3.org/2000/svg" xmlns:xlink="http://www.w3.org/1999/xlink" xml:space="preserve" xmlns:serif="http://www.serif.com/" style="fill-rule:evenodd;clip-rule:evenodd;stroke-linejoin:round;stroke-miterlimit:2;">
    <g id="ICML-Logo-2018" serif:id="ICML Logo 2018" transform="matrix(1.333333,0,0,-1.333333,-6.403733,119.5584)">
        <g id="g614">
        </g>
        <g id="g618">
            <g id="g620">
                <g id="g626">
                </g>
                <g id="g630">
                </g>
                <g id="g634">
                </g>
                <g id="g640">
                </g>
                <g id="g644">
                </g>
                <g id="g648">
                </g>
                <g id="g652">
                </g>
                <g id="g656">
                </g>
                <g id="g660">
                </g>
                <g id="g664">
                </g>
                <g id="g670">
                </g>
                <g id="g674">
                </g>
                <g id="g678">
                </g>
                <g id="g684">
                </g>
                <g id="g688">
                </g>
                <g id="g692">
                </g>
                <g id="g696">
                </g>
                <g id="g700">
                </g>
                <g id="g704">
                </g>
                <g id="g708">
                </g>
                <g id="g712">
                </g>
                <g id="g716">
                </g>
                <g id="g720">
                </g>
                <g id="g724">
                </g>
                <g id="g728">
                </g>
                <g id="g732">
                </g>
                <g id="g736">
                </g>
                <g id="g740">
                </g>
                <g id="g744">
                </g>
                <g id="g750">
                </g>
                <g id="g754">
                </g>
                <g id="g758">
                </g>
                <g id="g762">
                </g>
                <g id="g766">
                </g>
                <g id="g770">
                </g>
                <g id="g774">
                </g>
                <g id="g780">
                </g>
                <g id="g784">
                </g>
                <g id="g788">
                </g>
                <g id="g792" transform="matrix(1,0,0,1,25.2256,57.9727)">
                    <path id="path794" d="M0,0C0,-0.682 -0.553,-1.235 -1.235,-1.235L-9.635,-1.235C-10.317,-1.235 -10.871,-0.682 -10.871,0L-10.871,8.4C-10.871,9.083 -10.317,9.636 -9.635,9.636L-1.235,9.636C-0.553,9.636 0,9.083 0,8.4L0,0Z" style="fill:rgb(148,210,34);fill-rule:nonzero;"/>
                </g>
                <g id="g796" transform="matrix(1,0,0,1,35.6738,68.8438)">
                    <path id="path798" d="M0,0C0,-0.682 -0.554,-1.235 -1.235,-1.235L-8.345,-1.235C-9.027,-1.235 -9.581,-0.682 -9.581,0L-9.581,7.11C-9.581,7.792 -9.027,8.345 -8.345,8.345L-1.235,8.345C-0.554,8.345 0,7.792 0,7.11L0,0Z" style="fill:rgb(42,65,158);fill-rule:nonzero;"/>
                </g>
                <g id="g800" transform="matrix(1,0,0,1,23.3193,75.0635)">
                    <path id="path802" d="M0,0C0,-0.683 -0.553,-1.235 -1.234,-1.235L-6.158,-1.235C-6.84,-1.235 -7.394,-0.683 -7.394,0L-7.394,4.923C-7.394,5.605 -6.84,6.159 -6.158,6.159L-1.234,6.159C-0.553,6.159 0,5.605 0,4.923L0,0Z" style="fill:rgb(237,30,36);fill-rule:nonzero;"/>
                </g>
                <g id="g804" transform="matrix(1,0,0,1,12.9688,69.1479)">
                    <path id="path806" d="M0,0C0,-0.682 -0.554,-1.235 -1.236,-1.235L-4.68,-1.235C-5.362,-1.235 -5.916,-0.682 -5.916,0L-5.916,3.444C-5.916,4.127 -5.362,4.68 -4.68,4.68L-1.236,4.68C-0.554,4.68 0,4.127 0,3.444L0,0Z" style="fill:rgb(247,144,17);fill-rule:nonzero;"/>
                </g>
                <g id="g808" transform="matrix(1,0,0,1,60.2002,72.3828)">
                    <path id="path810" d="M0,0C0,-0.682 -0.554,-1.235 -1.235,-1.235L-2.647,-1.235C-3.329,-1.235 -3.883,-0.682 -3.883,0L-3.883,1.412C-3.883,2.094 -3.329,2.646 -2.647,2.646L-1.235,2.646C-0.554,2.646 0,2.094 0,1.412L0,0ZM-1.479,-10.26C-1.479,-10.942 -2.032,-11.495 -2.715,-11.495L-7.268,-11.495C-7.95,-11.495 -8.504,-10.942 -8.504,-10.26L-8.504,-5.706C-8.504,-5.023 -7.95,-4.47 -7.268,-4.47L-2.715,-4.47C-2.032,-4.47 -1.479,-5.023 -1.479,-5.706L-1.479,-10.26ZM-10.075,-20.889C-10.075,-21.57 -10.629,-22.124 -11.311,-22.124L-19.47,-22.124C-20.151,-22.124 -20.704,-21.57 -20.704,-20.889L-20.704,-12.73C-20.704,-12.048 -20.151,-11.495 -19.47,-11.495L-11.311,-11.495C-10.629,-11.495 -10.075,-12.048 -10.075,-12.73L-10.075,-20.889ZM-12.108,6.864C-12.108,7.547 -11.556,8.1 -10.874,8.1L-7.891,8.1C-7.209,8.1 -6.655,7.547 -6.655,6.864L-6.655,3.882C-6.655,3.2 -7.209,2.646 -7.891,2.646L-10.874,2.646C-11.556,2.646 -12.108,3.2 -12.108,3.882L-12.108,6.864ZM10.446,-13.423C9.674,-13.81 9.48,-14.003 9.48,-12.94L9.48,-6.665C9.48,-5.213 10.028,14.286 -12.436,14.286C-18.525,14.286 -24.084,12.741 -24.084,11.292C-24.084,9.844 -24.117,7.817 -24.117,6.658C-24.117,5.414 -23.442,4.806 -22.476,4.806L-16.876,4.806C-16.199,4.806 -15.139,4.735 -15.139,3.541L-15.139,-2.707C-15.139,-4.348 -15.948,-4.565 -16.817,-4.565L-22.609,-4.565C-23.478,-4.565 -24.311,-5.024 -24.311,-6.086L-24.311,-11.959C-24.311,-12.813 -24.696,-13.52 -25.951,-13.52L-31.764,-13.52C-32.536,-13.52 -33.37,-14.484 -33.37,-15.932C-33.37,-17.38 -33.386,-20.375 -33.386,-21.244C-33.386,-22.113 -34.158,-22.016 -36.089,-22.016C-36.089,-22.016 -36.089,-24.815 -34.834,-28.002C-34.163,-29.706 -33.096,-30.125 -31.262,-29.546C-31.262,-29.546 -31.04,-34.165 -29.978,-37.061C-28.916,-39.957 -27.979,-41.809 -24.986,-43.932C-21.992,-46.057 -21.703,-46.636 -19.676,-48.277C-17.649,-49.919 -16.78,-51.463 -11.662,-51.463C-6.449,-51.463 -5.194,-49.436 -3.07,-47.312C-0.946,-45.187 1.49,-45.105 4.46,-40.649C6.971,-36.884 7.107,-33.837 7.453,-29.449C7.453,-29.449 10.157,-30.801 11.026,-28.098C11.558,-26.441 13.149,-19.023 13.729,-15.065C14.308,-11.106 11.219,-13.037 10.446,-13.423" style="fill:rgb(35,31,32);fill-rule:nonzero;"/>
                </g>
            </g>
        </g>
    </g>
</svg>
