<?xml version="1.0" encoding="UTF-8" standalone="no"?>
<!DOCTYPE svg PUBLIC "-//W3C//DTD SVG 1.1//EN" "http://www.w3.org/Graphics/SVG/1.1/DTD/svg11.dtd">
<svg width="100%" height="100%" viewBox="0 0 110 79" version="1.1" xmlns="http://www.w3.org/2000/svg" xmlns:xlink="http://www.w3.org/1999/xlink" xml:space="preserve" xmlns:serif="http://www.serif.com/" style="fill-rule:evenodd;clip-rule:evenodd;stroke-linejoin:round;stroke-miterlimit:2;">
    <g transform="matrix(1.3333,0,0,-1.3333,-98.183,964.65)">
        <g transform="matrix(0.89409,0,0,0.89409,7.7986,76.622)">
            <g transform="matrix(1,0,0,1,27.259,178.29)">
                <g>
                    <g transform="matrix(1,0,0,1,117.52,532.28)">
                        <path d="M0,0L20.249,5.016C20.9,5.179 21.291,4.231 20.768,3.77L1.931,-12.84C1.407,-13.3 0.695,-12.645 0.984,-11.972L4.778,-3.191C4.963,-2.766 4.731,-2.261 4.319,-2.183L0.034,-1.388C-0.648,-1.26 -0.673,-0.167 -0,0" style="fill:rgb(217,45,39);fill-rule:nonzero;"/>
                    </g>
                    <g transform="matrix(1,0,0,1,131.14,537.51)">
                        <path d="M0,0L-0.739,7.129C-0.739,7.129 -0.787,7.615 -1.281,7.684C-1.776,7.757 -1.929,7.352 -1.929,7.352L-5.728,-1.42L-3.579,-0.887L-2.003,2.727L-1.681,-0.417L0,0Z" style="fill:rgb(217,45,39);fill-rule:nonzero;"/>
                    </g>
                    <g transform="matrix(1,0,0,1,132.14,528.21)">
                        <path d="M0,0L0.88,-8.49C0.88,-8.49 0.953,-9.02 0.517,-9.219C0.079,-9.419 -0.196,-9.047 -0.196,-9.047L-4.374,-3.856L-3.009,-2.657L-1.229,-4.895L-1.598,-1.406L0,0Z" style="fill:rgb(217,45,39);fill-rule:nonzero;"/>
                    </g>
                    <g transform="matrix(1,0,0,1,66.118,489.97)">
                        <path d="M0,0C-4.911,-4.444 -7.263,-5.215 -8.229,-5.278C-9.279,-5.348 -10.057,-4.079 -10.074,-1.427C-10.092,1.224 -9.061,3.771 -6.768,7.831C-4.297,12.21 -0.405,16.542 1.206,18.274C5.013,22.104 9.177,25.389 13.579,28.041C17.879,30.634 21.808,32.064 25.251,32.293C26.652,32.387 27.842,32.317 28.82,32.097C28.82,32.097 28.858,32.089 28.913,32.078L15.955,16.755L11.378,11.543C8.819,8.701 5.009,4.836 0,0M58.093,19.407C57.709,19.629 57.195,19.463 56.805,19.053C56.749,18.994 56.496,18.704 56.436,18.629C53.275,14.699 47.566,8.685 42.623,4.36C38.222,0.513 34.417,-1.653 33.727,-2.085C31.009,-3.789 29.8,-2.98 29.374,-2.582C28.796,-2.013 28.432,-1.115 28.367,-0.107C28.352,0.098 28.144,3.797 29.185,7.758C30.548,12.953 33.326,18.846 34.134,20.343C37.231,26.079 41.761,30.669 41.761,30.669C43.983,33.317 43.025,36.552 40.998,38.254C38.994,39.936 35.823,40.284 33.647,37.69L32.708,36.568C32.271,36.943 31.775,37.302 31.224,37.64C28.987,39.016 26.367,39.616 23.438,39.421C20.712,39.241 17.893,38.687 15.056,37.775C12.17,36.846 8.469,34.842 3.741,31.648C-0.887,28.52 -5.357,24.783 -9.546,20.537C-13.814,16.21 -16.874,11.758 -18.631,7.332C-19.494,5.281 -19.855,3.121 -19.708,0.912C-19.556,-1.393 -18.662,-3.524 -17.051,-5.413C-15.504,-7.233 -13.654,-8.615 -11.552,-9.522C-9.445,-10.434 -7.453,-10.834 -5.634,-10.713C-1.829,-10.461 2.286,-8.32 6.601,-4.35C10.722,-0.559 14.359,3.405 17.411,7.43C17.724,7.842 18.017,8.226 18.29,8.584C17.833,5.709 17.692,2.93 17.868,0.276C17.974,-1.327 18.237,-2.788 18.648,-4.065L18.692,-4.188C20.474,-8.451 23.627,-11.025 28.031,-10.735C32.301,-10.452 36.941,-7.822 41.58,-3.867C44.034,-1.839 47.399,1.783 51.867,7.212C56.011,12.249 57.909,15.942 58.394,17.906C58.403,17.945 58.44,18.07 58.464,18.216C58.488,18.364 58.499,18.534 58.497,18.546C58.498,18.919 58.372,19.247 58.093,19.407" style="fill:rgb(38,59,128);fill-rule:nonzero;"/>
                    </g>
                </g>
            </g>
        </g>
    </g>
</svg>
