<?xml version="1.0" encoding="UTF-8" standalone="no"?>
<!DOCTYPE svg PUBLIC "-//W3C//DTD SVG 1.1//EN" "http://www.w3.org/Graphics/SVG/1.1/DTD/svg11.dtd">
<svg width="100%" height="100%" viewBox="0 0 1240 1240" version="1.1" xmlns="http://www.w3.org/2000/svg" xmlns:xlink="http://www.w3.org/1999/xlink" xml:space="preserve" xmlns:serif="http://www.serif.com/" style="fill-rule:evenodd;clip-rule:evenodd;stroke-linejoin:round;stroke-miterlimit:2;">
    <g transform="matrix(4.166667,0,0,4.166667,619.925,10.141667)">
        <path d="M0,292.676C-80.697,292.676 -146.349,227.033 -146.349,146.347C-146.349,65.651 -80.697,-0.002 0,-0.002C80.686,-0.002 146.328,65.651 146.328,146.347C146.328,227.033 80.686,292.676 0,292.676M0,-2.434C-82.039,-2.434 -148.782,64.309 -148.782,146.347C-148.782,228.373 -82.039,295.11 0,295.11C82.028,295.11 148.764,228.373 148.764,146.347C148.764,64.309 82.028,-2.434 0,-2.434" style="fill:rgb(15,73,148);fill-rule:nonzero;"/>
    </g>
    <g transform="matrix(-4.166667,0,0,4.166667,619.898333,659.864167)">
        <path d="M-0.002,-19.193C5.299,-19.193 9.597,-14.898 9.597,-9.596C9.597,-4.295 5.299,0 -0.002,0C-5.301,0 -9.599,-4.295 -9.599,-9.596C-9.599,-14.898 -5.301,-19.193 -0.002,-19.193" style="fill:rgb(15,73,148);fill-rule:nonzero;"/>
    </g>
    <g transform="matrix(4.166667,0,0,4.166667,746.98,546.433333)">
        <path d="M0,35.256C-3.153,35.256 -5.719,32.693 -5.719,29.54C-5.719,26.386 -3.153,23.821 0,23.821C3.151,23.821 5.716,26.386 5.716,29.54C5.716,32.693 3.151,35.256 0,35.256M-10.651,-2.828C-10.651,-5.981 -8.087,-8.547 -4.933,-8.547C-1.779,-8.547 0.785,-5.981 0.785,-2.828C0.785,0.323 -1.779,2.889 -4.933,2.889C-8.087,2.889 -10.651,0.323 -10.651,-2.828M-9.874,13.168C-9.911,13.273 -10.015,13.35 -10.126,13.342L-13.638,13.273L-16.117,33.035C-16.132,33.147 -16.214,33.236 -16.325,33.256C-16.435,33.284 -16.546,33.226 -16.601,33.129L-18.296,30.05L-36.651,37.786C-36.684,37.799 -36.718,37.807 -36.752,37.807C-36.825,37.807 -36.898,37.775 -36.949,37.718C-37.021,37.633 -37.032,37.511 -36.975,37.414L-35.157,34.406L-51.033,22.378C-51.123,22.31 -51.159,22.192 -51.123,22.086C-51.086,21.982 -50.985,21.921 -50.872,21.912L-47.359,21.982L-44.88,2.219C-44.865,2.108 -44.783,2.018 -44.671,1.998C-44.562,1.968 -44.451,2.027 -44.396,2.125L-42.7,5.204L-24.346,-2.532C-24.245,-2.573 -24.121,-2.549 -24.048,-2.462C-23.976,-2.379 -23.966,-2.255 -24.022,-2.16L-25.84,0.848L-9.964,12.876C-9.874,12.945 -9.838,13.063 -9.874,13.168M-25.566,55.713C-28.718,55.713 -31.283,53.149 -31.283,49.997C-31.283,46.843 -28.718,44.278 -25.566,44.278C-22.413,44.278 -19.848,46.843 -19.848,49.997C-19.848,53.149 -22.413,55.713 -25.566,55.713M-56.063,43.803C-59.215,43.803 -61.78,41.235 -61.78,38.084C-61.78,34.933 -59.215,32.365 -56.063,32.365C-52.91,32.365 -50.345,34.933 -50.345,38.084C-50.345,41.235 -52.91,43.803 -56.063,43.803M-66.713,5.714C-66.713,2.563 -64.148,-0.002 -60.997,-0.002C-57.843,-0.002 -55.278,2.563 -55.278,5.714C-55.278,8.868 -57.843,11.433 -60.997,11.433C-64.148,11.433 -66.713,8.868 -66.713,5.714M-35.431,-20.459C-32.279,-20.459 -29.714,-17.892 -29.714,-14.741C-29.714,-11.589 -32.279,-9.022 -35.431,-9.022C-38.584,-9.022 -41.149,-11.589 -41.149,-14.741C-41.149,-17.892 -38.584,-20.459 -35.431,-20.459M57.444,-15.285L33.852,-33.021L-9.223,-24.678L-0.735,-49.28L-15.03,-74.99L-42.188,-63.426L-56.499,-21.951L-73.559,-41.602L-102.974,-42.078L-106.538,-12.775L-77.776,20.354L-103.324,25.305L-118.441,50.539L-94.848,68.277L-51.774,59.934L-60.262,84.534L-45.967,110.246L-18.81,98.68L-4.498,57.207L12.563,76.859L41.977,77.332L45.542,48.031L16.776,14.901L42.327,9.949L57.444,-15.285Z" style="fill:rgb(15,73,148);fill-rule:nonzero;"/>
    </g>
    <g transform="matrix(4.166667,0,0,4.166667,619.890417,222.63)">
        <path d="M0,190.627C-52.556,190.627 -95.313,147.871 -95.313,95.314C-95.313,42.758 -52.556,0 0,0C52.555,0 95.313,42.758 95.313,95.314C95.313,147.871 52.555,190.627 0,190.627M0,-2.591C-53.984,-2.591 -97.905,41.329 -97.905,95.314C-97.905,149.3 -53.984,193.218 0,193.218C53.985,193.218 97.905,149.3 97.905,95.314C97.905,41.329 53.985,-2.591 0,-2.591" style="fill:rgb(15,73,148);fill-rule:nonzero;"/>
    </g>
    <g transform="matrix(4.166667,0,0,4.166667,450.24125,1094.487083)">
        <path d="M0,3.353C-0.038,3.478 0.125,3.6 0.498,3.721L2.717,4.45C3.004,4.542 3.16,4.559 3.178,4.499C3.205,4.425 3.227,3.972 3.245,3.142L3.293,-1.206L0.425,2.729C0.172,3.053 0.031,3.263 0,3.353" style="fill:rgb(15,73,148);fill-rule:nonzero;"/>
    </g>
    <g transform="matrix(4.166667,0,0,4.166667,781.281667,1116.552917)">
        <path d="M0,-1.769C-0.263,-2.652 -0.564,-3.501 -0.905,-4.312C-1.245,-5.125 -1.634,-5.818 -2.077,-6.396C-2.519,-6.971 -3.022,-7.392 -3.589,-7.656C-4.153,-7.918 -4.802,-7.939 -5.528,-7.728C-6.194,-7.526 -6.674,-7.186 -6.964,-6.692C-7.253,-6.203 -7.411,-5.607 -7.437,-4.918C-7.462,-4.226 -7.386,-3.465 -7.212,-2.627C-7.036,-1.793 -6.815,-0.927 -6.548,-0.024C-6.259,0.952 -5.937,1.854 -5.587,2.676C-5.239,3.502 -4.846,4.19 -4.411,4.745C-3.976,5.299 -3.493,5.692 -2.962,5.923C-2.431,6.154 -1.832,6.17 -1.166,5.971C-0.522,5.782 -0.048,5.454 0.259,4.98C0.569,4.51 0.749,3.931 0.804,3.247C0.86,2.567 0.808,1.794 0.653,0.939C0.498,0.081 0.279,-0.822 0,-1.769" style="fill:rgb(15,73,148);fill-rule:nonzero;"/>
    </g>
    <g transform="matrix(4.166667,0,0,4.166667,518.08,1150.69875)">
        <path d="M0,-13.507C-0.249,-13.564 -0.456,-13.596 -0.622,-13.604C-0.788,-13.615 -0.927,-13.587 -1.039,-13.519C-1.15,-13.454 -1.241,-13.336 -1.31,-13.17C-1.376,-13.004 -1.441,-12.778 -1.504,-12.494L-3.743,-2.066C-3.824,-1.685 -3.862,-1.385 -3.858,-1.171C-3.852,-0.956 -3.797,-0.778 -3.698,-0.641C-3.597,-0.503 -3.454,-0.402 -3.267,-0.337C-3.079,-0.272 -2.844,-0.207 -2.559,-0.147C-1.354,0.108 -0.336,-0.228 0.494,-1.167C1.326,-2.106 1.986,-3.717 2.479,-6.009C2.963,-8.268 3.026,-10.005 2.666,-11.228C2.304,-12.442 1.415,-13.202 0,-13.507" style="fill:rgb(15,73,148);fill-rule:nonzero;"/>
    </g>
    <g transform="matrix(4.166667,0,0,4.166667,364.885833,1060.350833)">
        <path d="M0,2.116C-0.062,2.23 0.079,2.38 0.423,2.566L2.47,3.687C2.737,3.833 2.885,3.878 2.915,3.821C2.954,3.752 3.059,3.31 3.229,2.501L4.071,-1.762L0.533,1.578C0.225,1.849 0.047,2.031 0,2.116" style="fill:rgb(15,73,148);fill-rule:nonzero;"/>
    </g>
    <g transform="matrix(4.166667,0,0,4.166667,326.763333,203.455)">
        <path d="M0,0.064C0.03,-0.086 0.002,-0.244 -0.079,-0.373C-0.162,-0.507 -0.314,-0.581 -0.47,-0.56C-0.747,-0.526 -0.982,-0.335 -1.075,-0.07C-1.146,0.138 -1.122,0.368 -1.008,0.553C-0.956,0.614 -0.875,0.645 -0.795,0.634C-0.601,0.608 -0.417,0.542 -0.251,0.436C-0.12,0.351 -0.028,0.217 0,0.064" style="fill:rgb(15,73,148);fill-rule:nonzero;"/>
    </g>
    <g transform="matrix(4.166667,0,0,4.166667,326.451667,227.285)">
        <path d="M0,1.419C0.133,1.453 0.275,1.434 0.393,1.357C0.524,1.272 0.605,1.126 0.611,0.968C0.617,0.849 0.629,0.729 0.647,0.611C0.682,0.401 0.595,0.19 0.421,0.065C0.281,-0.032 0.095,-0.034 -0.047,0.061C-0.187,0.158 -0.253,0.328 -0.215,0.494C-0.168,0.696 -0.178,0.909 -0.245,1.107C-0.271,1.185 -0.249,1.272 -0.187,1.324C-0.132,1.368 -0.069,1.401 0,1.419" style="fill:rgb(15,73,148);fill-rule:nonzero;"/>
    </g>
    <g transform="matrix(4.166667,0,0,4.166667,624.740833,112.262083)">
        <path d="M0,3.796C-0.01,3.858 0.024,3.918 0.081,3.939C0.19,3.979 0.305,3.999 0.422,3.999C0.512,3.999 0.584,3.926 0.584,3.837L0.584,3.829C0.575,3.683 0.581,3.537 0.605,3.396C0.631,3.218 0.78,3.084 0.958,3.073C1.198,3.058 1.439,3.039 1.682,3.024C1.868,3.009 2.057,3.009 2.245,3.024C2.499,3.041 2.733,2.884 2.809,2.641C2.876,2.424 2.893,2.195 2.852,1.971C2.792,1.635 2.782,1.29 2.822,0.95C2.846,0.735 2.875,0.525 2.903,0.311C2.915,0.222 2.911,0.129 2.893,0.039C2.876,-0.037 2.828,-0.104 2.761,-0.142C2.656,-0.203 2.526,-0.199 2.426,-0.135C2.176,0.035 1.981,0.275 1.868,0.554C1.656,1.092 1.35,1.59 0.967,2.024C0.694,2.331 0.418,2.635 0.138,2.935C0.069,3.007 0,3.08 -0.067,3.157C-0.115,3.214 -0.118,3.297 -0.071,3.356C0.004,3.488 0.028,3.647 0,3.796" style="fill:rgb(15,73,148);fill-rule:nonzero;"/>
    </g>
    <g transform="matrix(4.166667,0,0,4.166667,634.21125,99.750417)">
        <path d="M0,0.832C0.055,0.896 0.091,0.972 0.109,1.055C0.181,1.391 0.304,1.713 0.472,2.01C0.515,2.247 0.63,2.463 0.8,2.632C0.864,2.694 0.964,2.702 1.036,2.649C1.109,2.599 1.153,2.52 1.164,2.431C1.313,1.072 1.326,-0.298 1.2,-1.662C1.192,-1.751 1.126,-1.824 1.036,-1.842C0.896,-1.87 0.747,-1.853 0.618,-1.787C0.401,-1.683 0.223,-1.51 0.109,-1.298C-0.002,-1.091 -0.089,-0.868 -0.146,-0.642C-0.181,-0.513 -0.234,-0.389 -0.31,-0.277C-0.413,-0.128 -0.433,0.062 -0.364,0.23C-0.277,0.449 -0.153,0.651 0,0.832" style="fill:rgb(15,73,148);fill-rule:nonzero;"/>
    </g>
    <g transform="matrix(4.166667,0,0,4.166667,327.631667,230.022083)">
        <path d="M0,-11.608L0.077,-11.608C0.522,-11.608 0.968,-11.563 1.401,-11.47C1.788,-11.385 2.17,-11.259 2.534,-11.091C2.785,-10.976 3.002,-10.796 3.162,-10.572C3.263,-10.429 3.295,-10.252 3.249,-10.082C3.166,-9.786 3.064,-9.478 2.945,-9.172C2.895,-9.042 2.775,-8.952 2.638,-8.94C2.32,-8.906 1.998,-8.897 1.68,-8.92C1.494,-8.929 1.308,-8.936 1.122,-8.936C0.937,-8.936 0.751,-8.929 0.569,-8.918C0.565,-9.051 0.565,-9.187 0.569,-9.321C0.575,-9.625 0.437,-9.92 0.2,-10.112C0.095,-10.199 0.046,-10.338 0.081,-10.47C0.178,-10.859 0.113,-11.268 -0.101,-11.604C-0.067,-11.608 -0.034,-11.608 0,-11.608M-5.354,-9.065C-4.654,-8.912 -3.935,-8.867 -3.221,-8.927C-2.937,-8.952 -2.686,-9.118 -2.557,-9.369C-2.344,-9.774 -1.896,-9.999 -1.447,-9.923C-1.249,-9.891 -1.113,-9.707 -1.142,-9.51C-1.196,-9.138 -1.083,-8.766 -0.838,-8.484C-0.484,-8.082 -0.093,-7.71 0.326,-7.378C0.53,-7.215 0.785,-7.127 1.046,-7.127C1.233,-7.129 1.409,-7.042 1.52,-6.891C1.905,-6.379 2.332,-5.897 2.795,-5.452C3.18,-5.082 3.433,-4.596 3.516,-4.068C3.583,-3.63 3.506,-3.183 3.293,-2.795C3.099,-2.438 2.959,-2.053 2.878,-1.657C2.828,-1.418 2.984,-1.185 3.223,-1.134C3.273,-1.127 3.326,-1.125 3.376,-1.13C3.555,-1.159 3.727,-1.223 3.876,-1.325C4.194,-1.54 4.437,-1.851 4.569,-2.212C4.725,-2.64 4.735,-3.106 4.597,-3.542C4.47,-3.942 4.273,-4.317 4.014,-4.648C3.967,-4.71 3.939,-4.782 3.935,-4.859C3.923,-5.07 4.083,-5.248 4.292,-5.259C4.407,-5.264 4.506,-5.34 4.541,-5.452C4.642,-5.77 4.725,-6.093 4.79,-6.421C4.891,-6.918 5.251,-7.321 5.732,-7.474C6.17,-7.612 6.613,-7.734 7.062,-7.835C7.411,-7.912 7.767,-7.74 7.921,-7.418C8.034,-7.187 8.081,-6.927 8.061,-6.671C8.024,-6.227 7.86,-5.804 7.589,-5.452C7.421,-5.232 7.214,-5.046 6.979,-4.9C6.751,-4.755 6.613,-4.503 6.619,-4.234C6.625,-3.9 6.597,-3.566 6.536,-3.236C6.459,-2.827 6.583,-2.406 6.868,-2.102C7.306,-1.636 7.704,-1.134 8.061,-0.604C8.281,-0.276 8.486,0.068 8.67,0.42C8.864,0.792 8.832,1.242 8.587,1.582C8.154,2.181 7.607,2.69 6.979,3.079C6.601,3.311 6.223,3.541 5.844,3.77C5.362,4.06 4.947,4.447 4.624,4.906C4.421,5.194 4.49,5.594 4.779,5.796C4.856,5.849 4.945,5.885 5.041,5.902C5.451,5.973 5.87,5.991 6.287,5.958C6.988,5.902 7.676,5.752 8.338,5.515C8.806,5.347 9.237,5.092 9.611,4.768C9.949,4.473 10.301,4.198 10.666,3.936C11.23,3.532 11.769,3.088 12.273,2.606C12.805,2.1 13.37,1.628 13.963,1.194C14.202,1.019 14.328,0.732 14.295,0.436C14.222,-0.215 13.939,-0.827 13.492,-1.308C12.763,-2.089 12.077,-2.912 11.441,-3.772C11.14,-4.179 10.896,-4.629 10.72,-5.102C10.629,-5.345 10.528,-5.586 10.415,-5.823C9.925,-6.851 9.301,-7.81 8.559,-8.672C8.225,-9.063 7.969,-9.515 7.812,-10.004C7.555,-10.786 7.152,-11.508 6.619,-12.136C6.034,-12.827 5.443,-13.51 4.844,-14.187C4.243,-14.871 3.518,-15.433 2.71,-15.851C2.095,-16.167 1.534,-16.576 1.044,-17.065C0.887,-17.221 0.7,-17.344 0.494,-17.429C0.069,-17.599 -0.407,-17.591 -0.824,-17.401C-1.33,-17.17 -1.8,-16.873 -2.223,-16.514C-2.83,-16.001 -3.33,-15.369 -3.69,-14.661C-4.15,-13.761 -4.629,-12.875 -5.131,-12.001C-5.348,-11.624 -5.539,-11.236 -5.704,-10.835C-5.895,-10.373 -5.86,-9.851 -5.613,-9.42C-5.629,-9.254 -5.518,-9.102 -5.354,-9.065" style="fill:rgb(15,73,148);fill-rule:nonzero;"/>
    </g>
    <g transform="matrix(4.166667,0,0,4.166667,347.10625,227.575)">
        <path d="M0,2.825C0.004,2.902 0.024,2.975 0.061,3.044C0.109,3.104 0.199,3.117 0.268,3.062C0.367,2.975 0.47,2.894 0.579,2.817C0.798,2.668 1.035,2.546 1.284,2.453C1.415,2.406 1.496,2.274 1.484,2.137C1.454,1.825 1.461,1.51 1.506,1.198C1.553,0.888 1.567,0.574 1.551,0.259C1.539,0.056 1.417,-0.126 1.233,-0.215C1.069,-0.292 0.879,-0.286 0.721,-0.199C0.51,-0.081 0.399,0.157 0.443,0.396C0.506,0.724 0.445,1.066 0.273,1.351C0.021,1.801 -0.077,2.319 0,2.825" style="fill:rgb(15,73,148);fill-rule:nonzero;"/>
    </g>
    <g transform="matrix(4.166667,0,0,4.166667,333.50125,211.430417)">
        <path d="M0,2.352C0.006,2.348 0.01,2.344 0.017,2.341C0.152,2.256 0.261,2.137 0.334,1.996C0.478,1.724 0.528,1.413 0.48,1.109C0.445,0.89 0.379,0.68 0.282,0.486C0.178,0.277 0.022,0.099 -0.17,-0.033C-0.247,-0.086 -0.334,-0.122 -0.425,-0.146C-0.548,-0.174 -0.678,-0.146 -0.779,-0.073C-0.919,0.032 -0.981,0.21 -0.939,0.38C-0.87,0.643 -0.941,0.922 -1.125,1.122C-1.223,1.237 -1.243,1.396 -1.178,1.534C-1.081,1.737 -0.974,1.935 -0.86,2.129C-0.684,2.429 -0.297,2.526 0,2.352" style="fill:rgb(15,73,148);fill-rule:nonzero;"/>
    </g>
    <g transform="matrix(4.166667,0,0,4.166667,138.28875,397.19625)">
        <path d="M0,1.569C0.279,1.945 0.646,2.249 1.069,2.451C1.203,2.564 1.354,2.65 1.516,2.707C1.739,2.779 1.956,2.868 2.168,2.967C2.227,2.994 2.297,2.969 2.326,2.911C2.33,2.901 2.332,2.892 2.334,2.884C2.389,2.617 2.417,2.348 2.417,2.077C2.417,1.848 2.31,1.633 2.127,1.496C2.032,1.425 1.954,1.334 1.899,1.228C1.806,1.05 1.777,0.844 1.816,0.648C1.844,0.504 1.858,0.358 1.858,0.213C1.856,0.022 1.743,-0.148 1.567,-0.221C1.423,-0.282 1.29,-0.367 1.174,-0.472C0.988,-0.638 0.869,-0.865 0.842,-1.112C0.83,-1.225 0.759,-1.318 0.656,-1.363C0.5,-1.425 0.322,-1.393 0.198,-1.278C0.03,-1.119 -0.091,-0.921 -0.154,-0.699C-0.21,-0.496 -0.223,-0.285 -0.194,-0.077C-0.158,0.18 -0.172,0.439 -0.235,0.69C-0.292,0.905 -0.261,1.135 -0.154,1.33C-0.107,1.413 -0.057,1.492 0,1.569" style="fill:rgb(15,73,148);fill-rule:nonzero;"/>
    </g>
    <g transform="matrix(4.166667,0,0,4.166667,1121.044167,398.76875)">
        <path d="M0,106.134C-0.302,106.481 -0.688,106.734 -1.158,106.892C-1.049,107.211 -0.966,107.533 -0.907,107.853C-0.849,108.171 -0.824,108.488 -0.832,108.8C-1.411,108.719 -1.979,108.598 -2.532,108.432C-3.085,108.268 -3.646,108.068 -4.21,107.828C-4.597,107.666 -4.974,107.496 -5.341,107.321C-5.704,107.149 -6.069,106.954 -6.437,106.745L-5.96,105.608C-5.468,105.817 -4.947,105.977 -4.399,106.092C-3.853,106.205 -3.319,106.243 -2.802,106.199C-2.284,106.156 -1.815,106.015 -1.397,105.772C-0.979,105.529 -0.664,105.158 -0.454,104.656C-0.263,104.201 -0.166,103.792 -0.162,103.43C-0.158,103.07 -0.228,102.743 -0.368,102.458C-0.511,102.173 -0.708,101.926 -0.964,101.715C-1.217,101.507 -1.507,101.333 -1.834,101.193C-2.356,100.975 -2.836,100.896 -3.273,100.956C-3.713,101.019 -4.136,101.245 -4.547,101.636C-5.16,102.211 -5.743,102.736 -6.298,103.201C-6.854,103.667 -7.437,104.029 -8.044,104.286C-8.653,104.543 -9.3,104.673 -9.983,104.675C-10.668,104.673 -11.433,104.494 -12.283,104.138C-12.923,103.865 -13.46,103.527 -13.893,103.118C-14.325,102.709 -14.651,102.268 -14.87,101.792C-15.091,101.315 -15.202,100.819 -15.204,100.302C-15.206,99.786 -15.103,99.284 -14.896,98.794C-14.716,98.363 -14.441,97.992 -14.073,97.679C-13.704,97.369 -13.227,97.179 -12.636,97.113C-12.878,96.86 -13.046,96.57 -13.138,96.241C-13.227,95.916 -13.267,95.613 -13.251,95.329C-12.464,95.454 -11.609,95.689 -10.692,96.028C-9.775,96.367 -8.913,96.705 -8.109,97.043L-8.617,98.252C-9.253,98.092 -9.847,97.981 -10.395,97.911C-10.945,97.845 -11.441,97.839 -11.887,97.892C-12.33,97.946 -12.702,98.064 -13.008,98.243C-13.312,98.424 -13.532,98.677 -13.67,99.003C-13.956,99.679 -14,100.279 -13.808,100.798C-13.613,101.319 -13.235,101.699 -12.668,101.936C-12.265,102.104 -11.909,102.181 -11.601,102.158C-11.294,102.138 -10.987,102.047 -10.685,101.885C-10.378,101.73 -10.067,101.507 -9.745,101.224C-9.423,100.94 -9.059,100.626 -8.647,100.279C-8.183,99.883 -7.735,99.53 -7.304,99.215C-6.874,98.904 -6.417,98.675 -5.933,98.528C-5.452,98.381 -4.921,98.335 -4.347,98.383C-3.77,98.436 -3.093,98.624 -2.317,98.952C-1.573,99.266 -0.95,99.643 -0.448,100.079C0.052,100.517 0.433,100.999 0.692,101.53C0.953,102.058 1.087,102.613 1.093,103.199C1.101,103.784 0.979,104.375 0.729,104.97C0.546,105.402 0.304,105.79 0,106.134M-7.185,120.234L-8.085,119.755C-7.551,118.747 -7.696,118.027 -8.524,117.589L-18.032,112.543C-19.103,111.976 -19.925,112.234 -20.499,113.317L-21.442,112.817L-16.338,103.199L-12.071,105.292L-12.506,106.371C-13.345,106.055 -14.024,105.879 -14.546,105.845C-15.069,105.813 -15.495,105.877 -15.832,106.043C-16.166,106.211 -16.443,106.456 -16.661,106.784C-16.882,107.112 -17.104,107.487 -17.329,107.911C-17.526,108.28 -17.608,108.602 -17.581,108.875C-17.552,109.147 -17.411,109.353 -17.155,109.487L-13.403,111.479C-13.061,111.66 -12.821,111.622 -12.687,111.364C-12.544,111.096 -12.435,110.839 -12.358,110.594C-12.283,110.349 -12.275,110.1 -12.332,109.845C-12.391,109.594 -12.538,109.33 -12.779,109.062C-13.021,108.788 -13.389,108.5 -13.884,108.195L-13.368,107.223L-7.651,110.258L-8.168,111.23C-8.672,111.005 -9.093,110.853 -9.435,110.772C-9.775,110.691 -10.063,110.679 -10.294,110.736C-10.524,110.792 -10.727,110.911 -10.895,111.092C-11.065,111.276 -11.235,111.513 -11.411,111.806C-11.569,112.209 -11.478,112.5 -11.136,112.681L-7.132,114.804C-6.445,115.168 -5.881,114.934 -5.437,114.096C-5.075,113.413 -4.854,112.832 -4.773,112.355C-4.692,111.875 -4.723,111.432 -4.864,111.029C-5.007,110.622 -5.251,110.23 -5.595,109.847C-5.939,109.462 -6.368,109.027 -6.878,108.541L-6.2,107.677L-2.019,110.498L-7.185,120.234ZM-9.659,124.095C-9.755,124.683 -9.974,125.229 -10.315,125.743C-10.951,126.702 -11.662,127.404 -12.445,127.836C-13.229,128.274 -14.063,128.5 -14.945,128.517C-15.827,128.529 -16.741,128.359 -17.683,127.994C-18.628,127.634 -19.585,127.132 -20.554,126.488C-21.591,125.8 -22.489,125.083 -23.253,124.334C-24.016,123.581 -24.591,122.816 -24.976,122.019C-25.362,121.225 -25.538,120.415 -25.506,119.593C-25.476,118.772 -25.184,117.946 -24.632,117.112C-24.472,116.873 -24.278,116.626 -24.056,116.379C-23.833,116.132 -23.591,115.905 -23.325,115.691C-23.059,115.48 -22.776,115.306 -22.478,115.16C-22.178,115.019 -21.872,114.93 -21.561,114.893C-21.909,114.281 -22.012,113.679 -21.864,113.075C-20.47,113.456 -18.747,114.326 -16.7,115.683L-17.433,116.788C-18.983,116.14 -20.204,115.849 -21.103,115.917C-21.997,115.983 -22.702,116.4 -23.212,117.168C-23.568,117.702 -23.706,118.241 -23.627,118.783C-23.548,119.322 -23.325,119.849 -22.964,120.375C-22.601,120.893 -22.123,121.404 -21.53,121.905C-20.938,122.404 -20.312,122.868 -19.651,123.306C-18.749,123.909 -17.876,124.423 -17.038,124.861C-16.2,125.294 -15.419,125.593 -14.692,125.759C-13.964,125.921 -13.306,125.925 -12.716,125.768C-12.128,125.613 -11.638,125.241 -11.247,124.65C-10.737,123.881 -10.583,123.068 -10.785,122.2C-10.989,121.338 -11.577,120.31 -12.55,119.119L-11.777,118.655C-11.229,119.229 -10.781,119.828 -10.435,120.444C-10.087,121.063 -9.849,121.679 -9.714,122.298C-9.583,122.917 -9.565,123.517 -9.659,124.095M-15.761,133.44L-29.251,132.812L-23.944,137.155C-22.568,138.285 -21.474,138.346 -20.655,137.35L-19.868,137.993L-22.862,141.65L-23.649,141.006C-22.978,140.18 -23.327,139.208 -24.702,138.079L-32.839,131.415C-33.229,131.095 -33.793,131.378 -34.518,132.217L-31.888,134.695L-32.625,135.597C-33.331,135.046 -33.929,134.678 -34.419,134.491C-34.906,134.306 -35.335,134.241 -35.704,134.302C-36.074,134.363 -36.412,134.516 -36.718,134.763C-37.023,135.01 -37.348,135.306 -37.689,135.642C-37.985,135.937 -38.159,136.221 -38.212,136.488C-38.265,136.759 -38.191,136.993 -37.987,137.2L-34.989,140.212C-34.718,140.484 -34.479,140.52 -34.272,140.314C-34.056,140.099 -33.876,139.889 -33.729,139.674C-33.587,139.463 -33.505,139.229 -33.485,138.97C-33.465,138.71 -33.53,138.415 -33.68,138.087C-33.831,137.755 -34.097,137.37 -34.479,136.933L-33.7,136.155L-29.136,140.747L-29.917,141.52C-30.329,141.155 -30.688,140.889 -30.991,140.71C-31.293,140.532 -31.562,140.435 -31.802,140.419C-32.038,140.406 -32.265,140.459 -32.479,140.585C-32.696,140.706 -32.931,140.884 -33.184,141.115C-33.455,141.451 -33.453,141.759 -33.18,142.03L-29.981,145.244C-29.435,145.795 -28.825,145.735 -28.153,145.067C-27.606,144.52 -27.224,144.034 -27.006,143.597C-26.785,143.163 -26.684,142.735 -26.7,142.306C-26.716,141.876 -26.833,141.427 -27.048,140.961C-27.265,140.488 -27.546,139.949 -27.888,139.334L-26.987,138.71L-23.823,142.642L-31.638,150.41L-32.356,149.69C-31.548,148.888 -31.476,148.155 -32.138,147.491L-39.728,139.861C-40.582,139.002 -41.444,139.006 -42.315,139.872L-43.065,139.115L-35.348,131.436L-35.306,131.476L-33.19,128.897L-21.146,129.569L-25.964,125.621C-27.226,124.585 -28.261,124.561 -29.07,125.549L-29.896,124.872L-26.915,121.238L-26.089,121.913C-26.819,122.804 -26.552,123.763 -25.289,124.796L-15.521,132.804L-15.761,133.44ZM-37.78,155.589L-38.44,154.812C-37.544,154.054 -37.415,153.297 -38.052,152.544L-44.91,144.472C-45.737,143.5 -46.618,143.41 -47.554,144.2L-48.244,143.391L-43.184,139.091L-42.493,139.905C-43.352,140.634 -43.366,141.484 -42.54,142.459L-35.682,150.528C-35.042,151.281 -34.271,151.273 -33.364,150.504L-32.706,151.277L-37.78,155.589ZM-40.593,156.508C-40.686,157.131 -40.88,157.702 -41.171,158.212C-41.465,158.726 -41.862,159.163 -42.364,159.528C-43.297,160.204 -44.206,160.605 -45.093,160.742C-45.979,160.876 -46.839,160.791 -47.671,160.495C-48.501,160.199 -49.294,159.722 -50.052,159.05C-50.811,158.382 -51.529,157.576 -52.214,156.633C-52.944,155.629 -53.536,154.637 -53.989,153.674C-54.44,152.702 -54.708,151.779 -54.788,150.901C-54.872,150.022 -54.754,149.204 -54.437,148.443C-54.12,147.682 -53.558,147.014 -52.748,146.423C-52.513,146.257 -52.246,146.091 -51.952,145.941C-51.657,145.787 -51.349,145.657 -51.025,145.552C-50.704,145.447 -50.376,145.382 -50.048,145.35C-49.718,145.322 -49.397,145.346 -49.093,145.423C-49.206,144.727 -49.091,144.123 -48.742,143.613C-47.567,144.455 -46.259,145.876 -44.819,147.864L-45.894,148.642C-47.116,147.491 -48.159,146.791 -49.023,146.54C-49.884,146.289 -50.689,146.431 -51.438,146.974C-51.958,147.35 -52.278,147.808 -52.392,148.338C-52.507,148.872 -52.485,149.447 -52.327,150.063C-52.169,150.678 -51.901,151.322 -51.521,151.997C-51.143,152.674 -50.72,153.329 -50.254,153.973C-49.618,154.852 -48.983,155.641 -48.352,156.342C-47.718,157.042 -47.091,157.597 -46.467,158.001C-45.841,158.41 -45.228,158.646 -44.62,158.706C-44.016,158.767 -43.427,158.588 -42.854,158.176C-42.104,157.633 -41.675,156.92 -41.562,156.042C-41.45,155.163 -41.642,153.993 -42.137,152.536L-41.246,152.37C-40.937,153.103 -40.726,153.82 -40.616,154.52C-40.507,155.216 -40.499,155.88 -40.593,156.508M-50.259,163.318C-50.359,163.896 -50.58,164.427 -50.92,164.905C-51.261,165.382 -51.708,165.786 -52.261,166.118C-52.661,166.358 -53.088,166.528 -53.536,166.629C-53.985,166.726 -54.446,166.701 -54.918,166.552C-55.019,166.876 -55.141,167.184 -55.282,167.479C-55.424,167.771 -55.59,168.042 -55.78,168.284C-56.203,167.88 -56.588,167.447 -56.938,166.989C-57.286,166.528 -57.618,166.033 -57.937,165.507C-58.151,165.147 -58.354,164.791 -58.548,164.435C-58.739,164.078 -58.922,163.71 -59.094,163.322L-58.037,162.686C-57.763,163.147 -57.438,163.58 -57.063,163.997C-56.687,164.414 -56.278,164.754 -55.835,165.026C-55.392,165.297 -54.931,165.459 -54.45,165.511C-53.971,165.56 -53.497,165.447 -53.031,165.163C-52.608,164.912 -52.286,164.641 -52.071,164.35C-51.854,164.062 -51.718,163.758 -51.665,163.443C-51.61,163.127 -51.624,162.811 -51.706,162.491C-51.786,162.171 -51.918,161.86 -52.101,161.556C-52.392,161.071 -52.731,160.722 -53.122,160.516C-53.513,160.309 -53.989,160.24 -54.552,160.314C-55.386,160.418 -56.167,160.495 -56.89,160.54C-57.612,160.588 -58.296,160.54 -58.94,160.39C-59.584,160.237 -60.181,159.961 -60.733,159.556C-61.286,159.152 -61.798,158.556 -62.274,157.763C-62.63,157.171 -62.863,156.58 -62.97,155.993C-63.079,155.406 -63.081,154.856 -62.979,154.342C-62.873,153.831 -62.669,153.366 -62.367,152.949C-62.063,152.532 -61.685,152.184 -61.229,151.908C-60.829,151.669 -60.388,151.532 -59.905,151.499C-59.426,151.463 -58.929,151.593 -58.411,151.888C-58.46,151.54 -58.422,151.204 -58.303,150.888C-58.183,150.572 -58.035,150.305 -57.857,150.082C-57.294,150.654 -56.743,151.342 -56.203,152.159C-55.661,152.973 -55.167,153.759 -54.718,154.503L-55.839,155.176C-56.261,154.674 -56.671,154.237 -57.075,153.856C-57.48,153.476 -57.878,153.18 -58.269,152.961C-58.657,152.738 -59.027,152.617 -59.38,152.58C-59.731,152.548 -60.058,152.621 -60.363,152.803C-60.991,153.18 -61.382,153.637 -61.533,154.172C-61.683,154.706 -61.601,155.233 -61.284,155.763C-61.06,156.139 -60.816,156.406 -60.556,156.572C-60.294,156.735 -59.995,156.844 -59.655,156.892C-59.314,156.945 -58.933,156.948 -58.505,156.912C-58.077,156.872 -57.597,156.835 -57.06,156.795C-56.45,156.75 -55.882,156.731 -55.349,156.731C-54.817,156.731 -54.315,156.816 -53.837,156.986C-53.361,157.152 -52.905,157.427 -52.471,157.807C-52.036,158.188 -51.603,158.738 -51.167,159.459C-50.75,160.155 -50.471,160.827 -50.323,161.475C-50.179,162.123 -50.155,162.738 -50.259,163.318M-74.796,176.609L-75.183,175.669C-74.177,175.256 -73.897,174.507 -74.345,173.414L-78.253,163.884C-78.737,162.701 -79.524,162.333 -80.614,162.779L-81.019,161.795L-71.154,157.746L-69.09,161.933L-70.192,162.54C-70.6,161.852 -70.986,161.329 -71.356,160.973C-71.729,160.621 -72.1,160.399 -72.472,160.305C-72.847,160.216 -73.243,160.22 -73.665,160.322C-74.087,160.427 -74.552,160.58 -75.054,160.787C-75.687,161.046 -75.897,161.431 -75.688,161.937L-74.114,165.775C-73.926,166.237 -73.537,166.35 -72.952,166.107C-72.661,165.989 -72.436,165.856 -72.282,165.714C-72.13,165.576 -72.03,165.394 -71.99,165.175C-71.95,164.957 -71.962,164.694 -72.022,164.378C-72.083,164.062 -72.171,163.665 -72.284,163.192L-71.337,162.799L-68.917,168.697L-69.884,169.094L-70.112,168.535C-70.187,168.354 -70.286,168.163 -70.409,167.961C-70.533,167.758 -70.699,167.588 -70.903,167.454C-71.108,167.322 -71.362,167.248 -71.671,167.237C-71.976,167.22 -72.347,167.301 -72.78,167.479C-73.003,167.572 -73.13,167.677 -73.163,167.79C-73.196,167.912 -73.179,168.054 -73.112,168.22L-71.464,172.232C-71.017,173.325 -70.199,173.624 -69.005,173.135L-68.618,174.078L-74.796,176.609ZM-78.543,175.981C-78.913,176.839 -79.438,177.564 -80.114,178.155C-80.79,178.741 -81.589,179.175 -82.511,179.447C-83.383,179.705 -84.247,179.798 -85.1,179.722C-85.954,179.649 -86.759,179.373 -87.521,178.896C-88.282,178.426 -88.974,177.734 -89.602,176.823C-90.228,175.912 -90.747,174.762 -91.16,173.369C-91.579,171.956 -91.782,170.697 -91.768,169.588C-91.753,168.483 -91.563,167.516 -91.194,166.69C-90.826,165.863 -90.302,165.18 -89.624,164.641C-88.945,164.107 -88.158,163.706 -87.261,163.439C-86.377,163.171 -85.494,163.095 -84.614,163.196C-83.731,163.297 -82.903,163.588 -82.126,164.074C-81.349,164.56 -80.644,165.244 -80.013,166.127C-79.381,167.009 -78.871,168.103 -78.486,169.402C-78.096,170.722 -77.913,171.933 -77.942,173.037C-77.97,174.139 -78.171,175.122 -78.543,175.981M-100.647,168.803L-103.176,176.726L-102.611,181.466C-102.544,182.03 -101.907,182.236 -100.7,182.09L-100.581,183.102L-107.419,183.92L-107.538,182.907C-106.283,182.758 -105.692,182.373 -105.767,181.746L-106.312,177.196L-110.157,171.066C-110.696,170.212 -111.236,169.701 -111.774,169.503C-111.815,169.511 -111.886,169.507 -111.925,169.52C-112.151,169.597 -112.331,169.694 -112.464,169.815C-112.597,169.937 -112.68,170.07 -112.718,170.216C-112.755,170.362 -112.772,170.515 -112.772,170.677L-112.493,181.632C-112.462,182.811 -111.896,183.398 -110.798,183.394L-110.791,184.409L-116.806,184.439L-116.81,183.422C-115.71,183.414 -115.161,182.879 -115.165,181.815L-115.366,171.681L-119.063,184.45L-120.769,184.458L-124.888,171.803L-124.918,181.519C-124.912,182.815 -124.291,183.454 -123.052,183.45L-123.046,184.466L-127.771,184.49L-127.774,183.475C-127.206,183.471 -126.771,183.296 -126.467,182.948C-126.166,182.596 -126.009,182.058 -126.001,181.333L-125.9,170.738C-125.9,170.544 -125.91,170.369 -125.931,170.216C-125.951,170.062 -126.02,169.933 -126.141,169.831C-126.263,169.726 -126.449,169.641 -126.702,169.58C-126.874,169.535 -127.108,169.511 -127.374,169.499L-127.645,172.993L-128.807,172.989C-128.823,172.094 -128.912,171.394 -129.074,170.896C-129.236,170.402 -129.457,170.03 -129.732,169.779C-130.009,169.528 -130.341,169.362 -130.728,169.277C-131.113,169.196 -131.544,169.127 -132.023,169.074C-132.437,169.03 -132.767,169.07 -133.009,169.199C-133.252,169.325 -133.39,169.531 -133.42,169.82L-133.886,174.041C-133.926,174.426 -133.803,174.633 -133.516,174.665C-133.212,174.697 -132.935,174.701 -132.677,174.686C-132.42,174.661 -132.186,174.576 -131.971,174.43C-131.758,174.284 -131.57,174.05 -131.408,173.726C-131.244,173.402 -131.113,172.952 -131.011,172.382L-129.917,172.503L-130.625,178.932L-131.718,178.815C-131.696,178.264 -131.71,177.815 -131.762,177.467C-131.813,177.118 -131.906,176.851 -132.044,176.653C-132.184,176.462 -132.368,176.321 -132.599,176.228C-132.831,176.139 -133.115,176.066 -133.453,176.013C-133.886,176.013 -134.123,176.207 -134.165,176.592L-134.661,181.098C-134.746,181.871 -134.317,182.309 -133.374,182.414C-132.606,182.495 -131.985,182.487 -131.509,182.386C-131.034,182.284 -130.633,182.09 -130.311,181.811C-129.987,181.528 -129.71,181.155 -129.481,180.694C-129.252,180.228 -129.007,179.673 -128.744,179.017L-127.691,179.329L-128.767,184.26L-139.722,183.054L-139.612,182.041C-138.481,182.167 -137.863,181.766 -137.76,180.831L-136.584,170.135C-136.453,168.929 -136.997,168.26 -138.216,168.127L-138.098,167.066L-127.277,168.252L-127.289,168.418L-122.686,168.394L-118.969,180.111L-115.495,168.362L-112.542,168.35L-106.274,167.597L-106.147,168.657C-107.038,168.763 -107.46,169.033 -107.407,169.467C-107.389,169.629 -107.255,169.896 -107.006,170.273L-103.913,175.199L-102.237,169.726C-102.202,169.479 -102.21,169.155 -102.257,168.754C-102.302,168.382 -102.813,168.26 -103.794,168.374L-103.919,167.318L-99.38,166.775L-99.253,167.831C-99.931,167.912 -100.396,168.24 -100.647,168.803M-141.969,180.722C-142.612,181.252 -143.375,181.584 -144.258,181.718C-145.141,181.851 -146.175,181.79 -147.361,181.535L-153.816,180.147L-153.604,179.155C-153.244,179.228 -152.946,179.269 -152.707,179.269C-152.468,179.273 -152.272,179.216 -152.116,179.098C-151.962,178.985 -151.835,178.803 -151.738,178.552C-151.636,178.301 -151.542,177.956 -151.45,177.531L-149.379,167.888C-149.264,167.35 -149.209,166.952 -149.22,166.694C-149.229,166.435 -149.292,166.244 -149.408,166.122C-149.523,165.997 -149.691,165.896 -149.914,165.815C-150.134,165.735 -150.404,165.609 -150.715,165.443L-150.493,164.398C-150.193,164.516 -149.91,164.605 -149.641,164.682C-149.374,164.758 -149.096,164.823 -148.812,164.884C-148.428,164.969 -148.078,165.033 -147.758,165.086C-147.44,165.139 -147.092,165.192 -146.715,165.248C-146.341,165.305 -145.906,165.378 -145.414,165.467C-144.924,165.556 -144.307,165.677 -143.564,165.839C-142.6,166.046 -141.774,166.374 -141.09,166.827C-140.404,167.28 -139.874,167.88 -139.497,168.62C-139.119,169.362 -138.906,170.269 -138.857,171.337C-138.809,172.406 -138.937,173.653 -139.242,175.07C-139.534,176.43 -139.9,177.58 -140.341,178.515C-140.78,179.454 -141.323,180.192 -141.969,180.722M-160.148,178.103L-159.839,177.159C-159.661,177.183 -159.474,177.212 -159.278,177.239C-159.082,177.273 -158.901,177.292 -158.737,177.305C-158.578,177.313 -158.438,177.309 -158.325,177.288C-158.209,177.264 -158.145,177.22 -158.122,177.159C-158.098,177.086 -158.083,176.989 -158.082,176.88C-158.078,176.771 -158.076,176.649 -158.071,176.515L-157.942,173.443C-157.934,173.26 -158.015,173.103 -158.185,172.969C-158.355,172.835 -158.541,172.738 -158.746,172.673L-161.377,171.807C-161.762,171.681 -162.047,171.758 -162.231,172.037L-163.58,174.196C-163.628,174.264 -163.675,174.345 -163.715,174.435C-163.76,174.52 -163.798,174.616 -163.833,174.726C-164.029,175.325 -163.616,175.79 -162.596,176.126L-162.944,177.183L-167.142,175.807L-166.796,174.746C-166.102,174.908 -165.432,174.548 -164.786,173.673L-156.244,162.062L-154.665,162.912L-154.894,177.786C-154.901,177.969 -154.869,178.135 -154.796,178.277C-154.724,178.422 -154.628,178.548 -154.511,178.653C-154.394,178.758 -154.266,178.856 -154.136,178.941C-154.005,179.026 -153.875,179.098 -153.748,179.159L-154.058,180.103L-160.148,178.103ZM-169.889,174.535C-170.478,174.544 -171.057,174.418 -171.626,174.171C-172.679,173.71 -173.488,173.135 -174.053,172.439C-174.618,171.738 -174.982,170.956 -175.15,170.09C-175.316,169.224 -175.302,168.297 -175.109,167.301C-174.917,166.309 -174.587,165.28 -174.12,164.216C-173.622,163.074 -173.069,162.067 -172.462,161.188C-171.856,160.305 -171.195,159.605 -170.478,159.091C-169.764,158.576 -168.997,158.261 -168.183,158.152C-167.367,158.042 -166.502,158.184 -165.587,158.584C-165.322,158.702 -165.047,158.848 -164.766,159.026C-164.484,159.199 -164.217,159.403 -163.962,159.625C-163.709,159.852 -163.486,160.103 -163.294,160.37C-163.102,160.641 -162.96,160.925 -162.873,161.228C-162.331,160.779 -161.75,160.576 -161.134,160.616C-161.268,162.058 -161.827,163.901 -162.81,166.152L-164.027,165.616C-163.656,163.981 -163.58,162.73 -163.798,161.856C-164.019,160.986 -164.551,160.362 -165.395,159.993C-165.986,159.735 -166.541,159.69 -167.057,159.863C-167.573,160.033 -168.057,160.341 -168.508,160.791C-168.962,161.237 -169.381,161.795 -169.77,162.467C-170.16,163.131 -170.515,163.831 -170.833,164.556C-171.268,165.552 -171.628,166.499 -171.911,167.398C-172.195,168.301 -172.353,169.122 -172.389,169.867C-172.425,170.613 -172.316,171.26 -172.063,171.811C-171.806,172.365 -171.354,172.782 -170.707,173.07C-169.861,173.439 -169.031,173.447 -168.215,173.099C-167.399,172.75 -166.488,171.997 -165.48,170.831L-164.889,171.515C-165.363,172.151 -165.873,172.697 -166.421,173.143C-166.97,173.588 -167.537,173.933 -168.124,174.171C-168.711,174.405 -169.3,174.528 -169.889,174.535M-176.45,171.775L-182.075,168.694L-181.595,167.823C-181.425,167.876 -181.247,167.941 -181.059,168.005C-180.871,168.071 -180.699,168.122 -180.541,168.163C-180.383,168.203 -180.245,168.224 -180.13,168.224C-180.014,168.224 -179.939,168.196 -179.909,168.139C-179.871,168.066 -179.84,167.977 -179.816,167.872C-179.793,167.763 -179.768,167.645 -179.739,167.511L-179.051,164.516C-179.008,164.337 -179.061,164.163 -179.203,164.005C-179.344,163.843 -179.51,163.71 -179.699,163.609L-182.127,162.28C-182.484,162.082 -182.777,162.107 -183.01,162.35L-184.731,164.224C-184.792,164.284 -184.85,164.354 -184.907,164.431C-184.966,164.512 -185.022,164.597 -185.077,164.697C-185.378,165.252 -185.059,165.786 -184.115,166.301L-184.652,167.28L-188.528,165.155L-187.992,164.18C-187.342,164.463 -186.617,164.232 -185.82,163.491L-175.298,153.637L-173.901,154.763L-176.851,169.341C-176.891,169.524 -176.889,169.69 -176.842,169.843C-176.798,170.001 -176.727,170.139 -176.63,170.269C-176.533,170.39 -176.427,170.511 -176.314,170.62C-176.201,170.726 -176.087,170.823 -175.974,170.904L-176.45,171.775ZM-189.69,150.787C-189.235,150.018 -188.947,149.374 -188.824,148.868C-188.7,148.358 -188.692,147.925 -188.797,147.565C-188.903,147.208 -189.099,146.893 -189.382,146.617C-189.668,146.35 -190,146.063 -190.378,145.771C-190.708,145.512 -191.01,145.374 -191.285,145.354C-191.557,145.338 -191.783,145.443 -191.961,145.67L-194.569,149.022C-194.806,149.329 -194.81,149.572 -194.579,149.751C-194.34,149.937 -194.105,150.087 -193.875,150.204C-193.646,150.322 -193.403,150.374 -193.144,150.358C-192.884,150.346 -192.601,150.244 -192.293,150.054C-191.986,149.864 -191.638,149.552 -191.249,149.115L-190.38,149.791L-194.354,154.901L-195.223,154.224C-194.915,153.767 -194.692,153.374 -194.555,153.054C-194.415,152.731 -194.354,152.451 -194.37,152.216C-194.384,151.978 -194.467,151.759 -194.617,151.561C-194.769,151.366 -194.974,151.155 -195.232,150.929C-195.601,150.706 -195.905,150.746 -196.144,151.054L-198.927,154.629C-199.4,155.24 -199.265,155.84 -198.516,156.423C-197.909,156.897 -197.374,157.212 -196.915,157.374C-196.458,157.536 -196.016,157.58 -195.593,157.512C-195.17,157.443 -194.739,157.269 -194.301,156.993C-193.864,156.722 -193.362,156.374 -192.797,155.957L-192.062,156.775L-195.561,160.41L-204.263,153.641L-203.637,152.84C-202.738,153.536 -202.001,153.516 -201.427,152.779L-194.82,144.281C-194.077,143.322 -194.19,142.467 -195.158,141.714L-194.504,140.876L-185.907,147.557L-188.703,151.403L-189.69,150.787ZM-206.88,151.24C-207.435,151.05 -207.949,150.735 -208.422,150.297C-208.767,149.982 -209.048,149.617 -209.271,149.216C-209.491,148.816 -209.599,148.366 -209.586,147.868C-209.927,147.864 -210.256,147.836 -210.576,147.78C-210.898,147.722 -211.204,147.642 -211.493,147.529C-211.222,147.01 -210.915,146.516 -210.57,146.05C-210.228,145.589 -209.85,145.131 -209.433,144.678C-209.147,144.37 -208.862,144.074 -208.572,143.791C-208.287,143.508 -207.981,143.225 -207.657,142.949L-206.75,143.787C-207.113,144.18 -207.443,144.617 -207.736,145.091C-208.03,145.569 -208.245,146.054 -208.38,146.557C-208.516,147.059 -208.54,147.548 -208.455,148.026C-208.368,148.499 -208.125,148.921 -207.726,149.289C-207.364,149.625 -207.012,149.856 -206.674,149.982C-206.333,150.107 -206.006,150.155 -205.688,150.119C-205.37,150.082 -205.068,149.978 -204.785,149.812C-204.501,149.646 -204.238,149.431 -203.998,149.167C-203.615,148.755 -203.378,148.329 -203.289,147.897C-203.198,147.463 -203.267,146.986 -203.494,146.467C-203.83,145.695 -204.123,144.969 -204.372,144.285C-204.621,143.605 -204.763,142.937 -204.799,142.278C-204.835,141.613 -204.738,140.961 -204.503,140.322C-204.273,139.678 -203.844,139.018 -203.22,138.342C-202.749,137.832 -202.247,137.44 -201.714,137.172C-201.184,136.905 -200.656,136.747 -200.133,136.702C-199.609,136.657 -199.105,136.723 -198.619,136.897C-198.133,137.071 -197.696,137.334 -197.308,137.698C-196.963,138.014 -196.706,138.399 -196.538,138.852C-196.37,139.302 -196.356,139.82 -196.492,140.395C-196.172,140.253 -195.842,140.197 -195.504,140.221C-195.166,140.245 -194.866,140.314 -194.605,140.423C-194.992,141.119 -195.502,141.84 -196.133,142.589C-196.763,143.338 -197.374,144.034 -197.965,144.674L-198.927,143.787C-198.562,143.244 -198.255,142.723 -198.008,142.229C-197.757,141.735 -197.581,141.269 -197.481,140.836C-197.38,140.403 -197.364,140.01 -197.429,139.661C-197.496,139.318 -197.66,139.023 -197.921,138.783C-198.457,138.281 -199.006,138.038 -199.561,138.042C-200.115,138.046 -200.603,138.278 -201.02,138.727C-201.315,139.046 -201.508,139.359 -201.591,139.654C-201.676,139.949 -201.694,140.269 -201.647,140.61C-201.601,140.949 -201.498,141.318 -201.342,141.714C-201.184,142.115 -201.012,142.569 -200.824,143.071C-200.609,143.642 -200.429,144.184 -200.281,144.695C-200.133,145.208 -200.073,145.714 -200.099,146.216C-200.125,146.723 -200.261,147.237 -200.504,147.763C-200.747,148.285 -201.153,148.856 -201.725,149.476C-202.275,150.071 -202.84,150.528 -203.421,150.852C-204.001,151.172 -204.584,151.366 -205.172,151.431C-205.757,151.495 -206.326,151.431 -206.88,151.24M-219.862,137.97L-219.111,137.281C-218.343,138.123 -217.613,138.229 -216.92,137.593L-208.977,130.33C-208.323,129.731 -208.141,129.112 -208.408,128.464C-209.086,127.772 -210.012,127.828 -211.208,128.723L-221.321,136.289L-221.882,135.901L-218.034,122.958L-223.527,127.063C-224.951,128.132 -225.274,129.18 -224.503,130.208L-225.319,130.82L-228.149,127.038L-227.333,126.427C-226.695,127.281 -225.665,127.172 -224.242,126.108L-215.817,119.804C-215.39,119.485 -215.548,118.832 -216.291,117.84L-216.274,117.828C-216.809,117.451 -217.467,117.5 -218.258,117.998L-227.218,123.646C-228.052,124.172 -228.151,124.942 -227.517,125.946L-228.377,126.488L-231.928,120.857L-231.068,120.314C-230.44,121.306 -229.709,121.541 -228.877,121.015L-219.917,115.366C-218.965,114.768 -218.728,114.019 -219.123,113.14L-219.25,113.205C-219.774,112.179 -220.604,111.958 -221.742,112.537L-231.175,117.355C-232.054,117.804 -232.232,118.541 -231.708,119.566L-232.614,120.027L-235.661,114.064L-234.754,113.602C-234.191,114.703 -233.471,115.034 -232.592,114.585L-228.232,112.357C-228.218,112.209 -228.234,112.021 -228.285,111.8C-228.335,111.575 -228.428,111.328 -228.568,111.059L-229.602,109.033C-229.815,108.616 -230.088,108.294 -230.42,108.07L-234.784,110.294C-235.659,110.741 -235.839,111.474 -235.323,112.487L-236.229,112.95L-239.292,106.954L-238.385,106.488C-237.805,107.628 -237.076,107.972 -236.197,107.525L-226.764,102.705C-225.714,102.169 -225.43,101.383 -225.845,100.375C-226.877,101.007 -228.181,101.628 -229.789,102.241L-230.262,101.001C-228.833,100.116 -227.886,99.292 -227.416,98.528C-226.946,97.76 -226.875,96.946 -227.206,96.082C-227.434,95.481 -227.791,95.054 -228.276,94.807C-228.76,94.556 -229.319,94.428 -229.955,94.42C-230.59,94.411 -231.282,94.501 -232.033,94.694C-232.782,94.884 -233.529,95.12 -234.27,95.402C-235.284,95.786 -236.211,96.194 -237.054,96.622C-237.896,97.049 -238.594,97.511 -239.151,98.007C-239.705,98.503 -240.092,99.035 -240.309,99.606C-240.525,100.175 -240.507,100.79 -240.256,101.452C-239.928,102.315 -239.353,102.918 -238.533,103.252C-237.713,103.59 -236.535,103.711 -234.999,103.614L-235.07,104.515C-235.859,104.624 -236.604,104.64 -237.309,104.564C-238.013,104.487 -238.655,104.321 -239.233,104.07C-239.816,103.815 -240.314,103.483 -240.731,103.064C-241.148,102.647 -241.468,102.151 -241.689,101.572C-242.098,100.494 -242.252,99.511 -242.148,98.62C-242.047,97.73 -241.746,96.924 -241.244,96.197C-240.742,95.471 -240.068,94.829 -239.226,94.273C-238.383,93.716 -237.418,93.23 -236.331,92.817C-235.169,92.373 -234.06,92.06 -233.005,91.875C-231.953,91.692 -230.991,91.673 -230.121,91.824C-229.252,91.973 -228.493,92.298 -227.841,92.805C-227.193,93.309 -226.689,94.028 -226.335,94.96C-226.232,95.232 -226.145,95.53 -226.072,95.855C-226.001,96.181 -225.957,96.511 -225.94,96.849C-225.924,97.191 -225.944,97.523 -226.001,97.847C-226.058,98.173 -226.165,98.475 -226.319,98.747C-225.619,98.821 -225.066,99.09 -224.663,99.56C-224.74,99.622 -224.843,99.685 -224.926,99.747L-221.916,105.64L-222.868,106.126C-223.384,105.113 -224.214,104.896 -225.355,105.481L-228.89,107.284C-228.875,107.49 -228.839,107.687 -228.782,107.869C-228.726,108.053 -228.637,108.258 -228.523,108.481L-227.487,110.509C-227.187,111.094 -226.932,111.454 -226.718,111.585L-223.163,109.77C-222.023,109.187 -221.734,108.347 -222.299,107.241L-221.347,106.756L-218.514,112.306L-218.376,112.219L-214.833,117.836L-214.918,117.893L-213.289,120.072L-216.833,131.606L-211.844,127.872C-210.536,126.897 -210.265,125.893 -211.03,124.872L-210.178,124.233L-208.074,127.047L-200.743,135.063L-204.146,138.378L-205.018,137.61C-204.439,136.925 -204.044,136.342 -203.838,135.864C-203.631,135.378 -203.55,134.953 -203.595,134.585C-203.637,134.212 -203.777,133.868 -204.012,133.553C-204.247,133.237 -204.526,132.897 -204.85,132.544C-205.131,132.237 -205.406,132.051 -205.674,131.986C-205.939,131.921 -206.18,131.986 -206.392,132.185L-209.528,135.051C-209.813,135.31 -209.858,135.548 -209.659,135.763C-209.457,135.986 -209.25,136.176 -209.044,136.33C-208.837,136.484 -208.607,136.572 -208.348,136.606C-208.091,136.634 -207.795,136.581 -207.459,136.447C-207.123,136.31 -206.729,136.063 -206.273,135.695L-205.53,136.508L-210.305,140.876L-211.048,140.067C-210.667,139.666 -210.384,139.322 -210.192,139.027C-210.001,138.731 -209.894,138.463 -209.87,138.229C-209.846,137.993 -209.89,137.763 -210.003,137.54C-210.119,137.321 -210.285,137.079 -210.503,136.816C-210.83,136.532 -211.135,136.521 -211.422,136.78L-214.767,139.84C-215.339,140.366 -215.305,140.974 -214.666,141.674C-214.147,142.244 -213.673,142.646 -213.249,142.884C-212.823,143.119 -212.396,143.24 -211.967,143.24C-211.538,143.244 -211.086,143.148 -210.609,142.949C-210.131,142.755 -209.579,142.495 -208.949,142.18L-208.362,143.107L-212.424,146.103L-219.862,137.97ZM-243.264,3.56C-243.385,3.656 -243.497,3.762 -243.598,3.879C-243.784,4.096 -244.088,4.171 -244.353,4.062C-244.724,3.909 -245.029,3.632 -245.213,3.28C-245.442,2.847 -245.507,2.347 -245.397,1.871C-245.347,1.653 -245.25,1.448 -245.11,1.273C-245.063,1.211 -245.035,1.139 -245.031,1.064C-245.031,1.045 -245.029,1.026 -245.027,1.009C-244.977,0.628 -244.628,0.362 -244.25,0.412C-244.055,0.439 -243.863,0.481 -243.675,0.543C-243.466,0.611 -243.242,0.507 -243.155,0.309C-243.031,0.026 -242.853,-0.234 -242.632,-0.448C-242.213,-0.857 -241.65,-1.08 -241.067,-1.074C-240.563,-1.068 -240.078,-0.893 -239.685,-0.578C-239.428,-0.372 -239.169,-0.173 -238.902,0.022C-238.612,0.234 -238.27,0.369 -237.912,0.412C-237.655,0.443 -237.422,0.26 -237.39,-0.005C-237.331,-0.59 -237.244,-1.173 -237.128,-1.752C-237.001,-2.404 -236.869,-3.055 -236.738,-3.708C-236.643,-4.171 -236.503,-4.627 -236.321,-5.061C-236.092,-5.606 -235.649,-6.031 -235.094,-6.233C-234.704,-6.38 -234.28,-6.416 -233.87,-6.339C-233.626,-6.295 -233.462,-6.063 -233.503,-5.816C-233.57,-5.426 -233.505,-5.023 -233.321,-4.671C-233.204,-4.446 -233.108,-4.21 -233.036,-3.967C-232.955,-3.706 -232.928,-3.432 -232.957,-3.161C-232.981,-2.922 -232.924,-2.683 -232.801,-2.48C-232.683,-2.295 -232.647,-2.07 -232.695,-1.857C-232.798,-1.4 -232.693,-0.922 -232.408,-0.554C-232.303,-0.416 -232.232,-0.254 -232.199,-0.084C-232.145,0.22 -232.1,0.524 -232.07,0.829C-232.04,1.107 -231.888,1.358 -231.653,1.507C-231.379,1.681 -231.171,1.937 -231.052,2.236C-230.985,2.407 -230.791,2.49 -230.619,2.424C-230.545,2.394 -230.485,2.341 -230.446,2.271C-230.354,2.094 -230.292,1.9 -230.266,1.701C-230.224,1.367 -230.232,1.03 -230.292,0.696C-230.354,0.36 -230.327,0.013 -230.213,-0.31C-230.108,-0.616 -229.942,-0.897 -229.724,-1.137C-229.711,-1.153 -229.695,-1.165 -229.681,-1.175C-229.562,-1.261 -229.396,-1.229 -229.311,-1.112C-229.218,-0.978 -229.131,-0.841 -229.052,-0.699C-228.922,-0.461 -228.902,-0.178 -229.001,0.076C-229.082,0.288 -229.027,0.528 -228.861,0.683C-228.764,0.775 -228.677,0.879 -228.606,0.993C-228.493,1.181 -228.41,1.386 -228.368,1.602C-228.287,1.993 -228.313,2.402 -228.44,2.78C-228.543,3.082 -228.543,3.409 -228.44,3.713C-228.305,4.118 -228.151,4.515 -227.981,4.905C-227.888,5.118 -227.785,5.329 -227.673,5.535C-227.603,5.667 -227.538,5.803 -227.483,5.945C-227.363,6.252 -227.131,6.507 -226.831,6.651C-226.493,6.815 -226.147,6.96 -225.791,7.082C-225.515,7.175 -225.295,7.381 -225.181,7.649C-225.06,7.932 -224.896,8.196 -224.693,8.426C-224.453,8.705 -224.175,8.95 -223.872,9.158C-223.287,9.556 -222.736,10.009 -222.232,10.507C-222.003,10.734 -221.754,10.945 -221.493,11.134C-220.827,11.622 -220.117,12.045 -219.37,12.396C-219.032,12.556 -218.722,12.766 -218.453,13.025C-218.406,13.07 -218.378,13.128 -218.372,13.191C-218.357,13.337 -218.465,13.47 -218.611,13.483C-218.85,13.507 -219.092,13.507 -219.331,13.483C-219.92,13.426 -220.497,13.284 -221.046,13.062C-221.564,12.851 -222.106,12.709 -222.661,12.641C-223.386,12.547 -224.09,12.337 -224.748,12.017C-225.337,11.734 -225.937,11.468 -226.543,11.226C-226.874,11.094 -227.189,10.928 -227.485,10.734C-227.677,10.608 -227.928,10.613 -228.117,10.745C-228.248,10.839 -228.339,10.981 -228.374,11.139C-228.408,11.296 -228.392,11.462 -228.333,11.613C-228.242,11.839 -228.262,12.094 -228.388,12.304C-228.525,12.537 -228.722,12.73 -228.957,12.859C-229.296,13.049 -229.681,13.143 -230.07,13.13C-230.368,13.122 -230.657,13.033 -230.91,12.875C-231.042,12.79 -231.128,12.651 -231.141,12.494C-231.155,12.317 -231.058,12.151 -230.896,12.073C-230.691,11.981 -230.517,11.83 -230.396,11.641C-230.197,11.341 -230.029,11.023 -229.894,10.693C-229.801,10.47 -229.742,10.239 -229.716,10.001C-229.702,9.863 -229.774,9.73 -229.9,9.669C-230.55,9.349 -231.232,9.096 -231.934,8.916C-232.398,8.794 -232.857,8.656 -233.309,8.497C-233.596,8.398 -233.91,8.539 -234.023,8.821C-234.167,9.177 -234.276,9.547 -234.347,9.924C-234.39,10.155 -234.315,10.394 -234.145,10.558C-234.011,10.685 -233.91,10.843 -233.849,11.017C-233.778,11.209 -233.75,11.418 -233.766,11.62C-233.782,11.822 -233.77,12.025 -233.729,12.224C-233.673,12.494 -233.527,12.741 -233.315,12.92C-232.983,13.199 -232.586,13.387 -232.163,13.468C-231.774,13.543 -231.44,13.79 -231.252,14.138C-231.104,14.415 -231.011,14.721 -230.985,15.033C-230.94,15.531 -231.047,16.031 -231.292,16.466C-231.509,16.851 -231.888,17.118 -232.323,17.189C-233.226,17.339 -234.149,17.317 -235.042,17.122C-235.282,17.07 -235.521,17.025 -235.764,16.988C-236.07,16.94 -236.379,16.915 -236.689,16.907C-237.309,16.896 -237.922,16.786 -238.509,16.588C-238.843,16.474 -239.153,16.296 -239.42,16.066C-239.841,15.701 -240.179,15.256 -240.414,14.754C-240.46,14.653 -240.428,14.535 -240.335,14.475C-240.165,14.365 -239.966,14.304 -239.762,14.3C-239.497,14.298 -239.233,14.353 -238.991,14.462C-238.657,14.608 -238.302,14.703 -237.94,14.741C-237.558,14.779 -237.177,14.822 -236.796,14.873C-236.426,14.922 -236.054,14.822 -235.758,14.594C-235.54,14.426 -235.329,14.245 -235.13,14.056C-234.872,13.811 -234.827,13.413 -235.023,13.118C-235.264,12.756 -235.466,12.369 -235.628,11.968C-235.983,11.092 -236.325,10.213 -236.661,9.333C-236.957,8.552 -237.167,7.738 -237.284,6.911C-237.339,6.515 -237.529,6.151 -237.817,5.875C-237.92,5.779 -238.025,5.683 -238.132,5.592C-238.651,5.163 -239.233,4.819 -239.861,4.575C-240.549,4.309 -241.215,3.985 -241.849,3.607C-242.191,3.402 -242.59,3.321 -242.984,3.369C-243.082,3.426 -243.175,3.49 -243.264,3.56M-200.342,-44.816C-200.317,-44.901 -200.227,-44.954 -200.142,-44.929C-199.591,-44.775 -199.176,-44.326 -199.068,-43.767C-199.032,-43.573 -198.963,-43.387 -198.866,-43.217C-198.534,-42.634 -198.174,-42.065 -197.787,-41.516C-197.328,-40.864 -196.913,-40.186 -196.54,-39.484C-196.312,-39.051 -196.034,-38.646 -195.71,-38.279C-195.514,-38.056 -195.334,-37.82 -195.172,-37.573C-195.089,-37.452 -195.075,-37.296 -195.129,-37.16C-195.218,-36.937 -195.188,-36.686 -195.046,-36.496C-194.745,-36.083 -194.494,-35.637 -194.299,-35.168C-194.02,-34.492 -193.686,-33.841 -193.304,-33.217C-192.947,-32.642 -192.601,-32.061 -192.265,-31.476C-192.17,-31.308 -192.073,-31.144 -191.974,-30.978C-191.923,-30.889 -191.826,-30.841 -191.725,-30.852C-191.638,-30.86 -191.561,-30.922 -191.528,-31.003C-191.47,-31.144 -191.465,-31.3 -191.514,-31.443C-191.712,-32.026 -191.85,-32.626 -191.931,-33.233C-192.048,-34.124 -192.368,-34.973 -192.864,-35.72C-193.579,-36.796 -194.318,-37.852 -195.079,-38.895C-195.585,-39.587 -196.087,-40.284 -196.583,-40.982C-197.151,-41.783 -197.615,-42.654 -197.963,-43.573C-198.182,-44.152 -198.324,-44.762 -198.38,-45.379C-198.483,-46.481 -198.429,-47.593 -198.214,-48.678C-198.016,-49.678 -197.836,-50.68 -197.67,-51.686C-197.577,-52.261 -197.378,-52.811 -197.085,-53.313C-196.615,-54.123 -196.097,-54.907 -195.538,-55.658C-195.071,-56.287 -194.583,-56.9 -194.075,-57.496C-193.486,-58.19 -192.812,-58.807 -192.069,-59.334C-191.51,-59.73 -190.797,-59.84 -190.147,-59.625C-189.662,-59.468 -189.15,-59.411 -188.644,-59.459C-188.314,-59.492 -187.99,-59.366 -187.765,-59.125C-187.233,-58.553 -186.646,-58.034 -186.01,-57.581C-185.459,-57.184 -185.002,-56.67 -184.674,-56.077C-183.943,-54.757 -183.105,-53.5 -182.166,-52.317C-181.668,-51.69 -181.199,-51.04 -180.757,-50.37C-180.445,-49.892 -180.174,-49.39 -179.95,-48.868C-179.545,-47.929 -178.998,-47.058 -178.332,-46.281C-177.008,-44.743 -175.8,-43.107 -174.717,-41.387C-174.472,-40.998 -174.174,-40.645 -173.834,-40.338C-173.676,-40.194 -173.571,-40.002 -173.539,-39.792C-173.476,-39.381 -173.567,-38.962 -173.792,-38.613C-174.102,-38.136 -174.502,-37.722 -174.97,-37.395C-175.369,-37.116 -175.792,-36.873 -176.231,-36.666C-177.132,-36.245 -177.956,-35.677 -178.67,-34.986C-179.314,-34.362 -180.113,-33.928 -180.984,-33.722C-182.004,-33.484 -183.049,-33.358 -184.095,-33.346C-185.127,-33.335 -186.156,-33.431 -187.166,-33.639C-187.968,-33.803 -188.735,-34.103 -189.437,-34.522C-189.826,-34.756 -190.192,-35.022 -190.53,-35.322C-190.617,-35.397 -190.698,-35.475 -190.775,-35.561C-190.856,-35.65 -190.979,-35.684 -191.095,-35.65C-191.178,-35.626 -191.229,-35.545 -191.21,-35.46C-191.146,-35.148 -191.064,-34.843 -190.968,-34.541C-190.674,-33.624 -190.427,-32.694 -190.227,-31.754C-190.162,-31.456 -190.093,-31.16 -190.016,-30.869C-189.965,-30.677 -189.903,-30.488 -189.83,-30.305C-189.712,-30.022 -189.603,-29.735 -189.502,-29.444C-189.313,-28.905 -189.34,-28.312 -189.573,-27.788C-189.668,-27.575 -189.913,-27.472 -190.131,-27.557C-190.433,-27.671 -190.716,-27.828 -190.972,-28.022C-191.629,-28.522 -192.17,-29.16 -192.559,-29.889C-193.411,-31.48 -194.279,-33.065 -195.166,-34.639C-196.121,-36.339 -197.028,-38.065 -197.882,-39.816C-198.328,-40.726 -198.81,-41.622 -199.328,-42.492C-199.474,-42.735 -199.621,-42.977 -199.775,-43.219C-200.068,-43.682 -200.263,-44.205 -200.346,-44.747C-200.35,-44.769 -200.348,-44.792 -200.342,-44.816M-133.21,-67.536C-133.137,-67.704 -133.086,-67.88 -133.056,-68.062C-133.005,-68.372 -132.983,-68.685 -132.989,-69.002C-132.997,-69.281 -132.843,-69.54 -132.596,-69.668C-131.995,-69.977 -131.461,-70.402 -131.021,-70.912C-130.41,-71.625 -129.805,-72.338 -129.206,-73.056C-128.511,-73.886 -127.819,-74.718 -127.127,-75.548C-126.799,-75.94 -126.438,-76.307 -126.05,-76.639C-125.667,-76.997 -125.495,-77.532 -125.597,-78.046C-125.659,-78.37 -125.588,-78.706 -125.4,-78.977C-125.254,-79.187 -125.046,-79.349 -124.805,-79.434C-124.562,-79.519 -124.299,-79.519 -124.058,-79.432C-123.637,-79.28 -123.263,-79.017 -122.975,-78.674C-122.773,-78.434 -122.548,-78.218 -122.303,-78.025C-122.129,-77.887 -122.026,-77.681 -122.021,-77.463C-122.018,-77.268 -122.115,-77.087 -122.281,-76.985C-122.747,-76.702 -123.261,-76.504 -123.797,-76.402C-124.228,-76.321 -124.584,-76.013 -124.73,-75.6C-124.833,-75.301 -124.965,-75.01 -125.119,-74.734C-125.37,-74.285 -125.756,-73.928 -126.224,-73.716C-126.609,-73.54 -126.933,-73.261 -127.159,-72.904C-127.746,-71.983 -128.445,-71.139 -129.24,-70.39C-129.449,-70.196 -129.657,-70.002 -129.868,-69.807C-130.032,-69.657 -130.145,-69.459 -130.193,-69.244C-130.232,-69.066 -130.153,-68.884 -129.997,-68.789C-129.809,-68.678 -129.588,-68.629 -129.37,-68.659C-128.795,-68.736 -128.212,-68.742 -127.637,-68.681C-127.293,-68.645 -126.947,-68.681 -126.619,-68.789C-126.418,-68.855 -126.228,-68.949 -126.054,-69.07C-125.835,-69.224 -125.664,-69.432 -125.556,-69.678C-125.514,-69.774 -125.514,-69.884 -125.556,-69.981C-125.675,-70.253 -125.659,-70.564 -125.514,-70.823C-125.394,-71.036 -125.271,-71.244 -125.145,-71.453C-125.05,-71.608 -124.858,-71.672 -124.689,-71.604C-124.384,-71.481 -124.076,-71.358 -123.771,-71.238C-123.388,-71.089 -123.024,-70.9 -122.684,-70.674C-122.528,-70.572 -122.36,-70.491 -122.184,-70.434C-122.024,-70.384 -121.917,-70.232 -121.922,-70.066C-121.929,-69.844 -122.032,-69.639 -122.204,-69.5C-122.498,-69.266 -122.767,-69.006 -123.01,-68.718C-123.242,-68.445 -123.552,-68.249 -123.9,-68.155C-124.151,-68.087 -124.344,-67.887 -124.4,-67.633C-124.463,-67.349 -124.53,-67.066 -124.597,-66.787C-124.633,-66.631 -124.562,-66.471 -124.422,-66.394C-124.182,-66.262 -123.878,-66.349 -123.747,-66.593C-123.738,-66.604 -123.732,-66.619 -123.726,-66.634C-123.633,-66.851 -123.5,-67.05 -123.335,-67.22C-123.153,-67.406 -122.87,-67.451 -122.639,-67.33C-122.496,-67.253 -122.404,-67.102 -122.4,-66.936C-122.394,-66.585 -122.564,-66.249 -122.858,-66.046C-123.224,-65.793 -123.53,-65.459 -123.749,-65.07C-123.913,-64.779 -124.064,-64.481 -124.204,-64.179C-124.495,-63.556 -124.604,-62.864 -124.523,-62.179C-124.451,-61.554 -124.341,-60.932 -124.196,-60.321C-124.093,-59.881 -123.975,-59.443 -123.846,-59.01C-123.722,-58.595 -123.73,-58.151 -123.868,-57.743C-123.963,-57.462 -124.228,-57.275 -124.523,-57.281C-124.87,-57.291 -125.212,-57.366 -125.53,-57.5C-125.862,-57.641 -126.121,-57.909 -126.252,-58.245C-126.398,-58.615 -126.485,-59.006 -126.516,-59.402C-126.552,-59.902 -126.653,-60.394 -126.821,-60.868C-126.88,-61.034 -127.007,-61.172 -127.171,-61.241C-127.357,-61.317 -127.566,-61.334 -127.763,-61.283C-128.06,-61.206 -128.329,-61.038 -128.528,-60.803C-128.698,-60.6 -128.904,-60.439 -129.139,-60.321C-129.362,-60.212 -129.55,-60.046 -129.687,-59.84C-129.866,-59.572 -130.042,-59.303 -130.212,-59.03C-130.424,-58.694 -130.837,-58.54 -131.218,-58.66C-131.469,-58.738 -131.686,-58.9 -131.831,-59.119C-132.025,-59.411 -132.058,-59.781 -131.918,-60.103C-131.748,-60.496 -131.702,-60.928 -131.787,-61.349C-131.892,-61.868 -131.845,-62.406 -131.655,-62.9C-131.542,-63.198 -131.287,-63.419 -130.977,-63.491C-130.671,-63.564 -130.404,-63.751 -130.234,-64.015C-130.018,-64.354 -129.769,-64.668 -129.489,-64.957C-129.396,-65.054 -129.303,-65.147 -129.206,-65.24C-129.2,-65.245 -129.196,-65.251 -129.189,-65.255C-129.099,-65.325 -128.969,-65.309 -128.9,-65.219C-128.774,-65.058 -128.726,-64.849 -128.769,-64.649C-128.837,-64.319 -128.846,-63.977 -128.791,-63.645C-128.744,-63.366 -128.647,-63.1 -128.505,-62.856C-128.357,-62.605 -128.032,-62.52 -127.779,-62.668C-127.74,-62.69 -127.706,-62.719 -127.673,-62.747C-127.451,-62.97 -127.238,-63.204 -127.04,-63.447C-126.848,-63.685 -126.706,-63.961 -126.625,-64.257C-126.459,-64.864 -126.437,-65.5 -126.558,-66.115C-126.588,-66.268 -126.619,-66.421 -126.645,-66.574C-126.678,-66.742 -126.793,-66.884 -126.953,-66.945C-127.153,-67.026 -127.346,-67.127 -127.521,-67.253C-127.641,-67.338 -127.789,-67.376 -127.937,-67.362C-128.876,-67.266 -129.821,-67.266 -130.758,-67.362C-131.027,-67.388 -131.299,-67.388 -131.568,-67.362C-131.738,-67.344 -131.878,-67.22 -131.918,-67.054C-131.981,-66.795 -132.147,-66.574 -132.378,-66.443C-132.623,-66.305 -132.933,-66.37 -133.101,-66.596C-133.301,-66.868 -133.341,-67.224 -133.21,-67.536M-121.356,-65.131C-121.254,-65.419 -121.084,-65.679 -120.858,-65.888C-120.489,-66.228 -120.204,-66.649 -120.03,-67.121C-119.858,-67.585 -119.611,-68.015 -119.297,-68.398C-119.198,-68.519 -119.18,-68.687 -119.252,-68.827C-119.415,-69.136 -119.536,-69.463 -119.617,-69.803C-119.69,-70.102 -119.728,-70.41 -119.734,-70.718C-119.74,-70.945 -119.789,-71.166 -119.878,-71.37C-119.886,-71.39 -119.892,-71.41 -119.898,-71.43C-119.941,-71.613 -119.828,-71.797 -119.643,-71.84C-119.232,-71.936 -118.888,-72.216 -118.704,-72.596C-118.606,-72.801 -118.516,-73.01 -118.431,-73.22C-118.374,-73.362 -118.358,-73.515 -118.378,-73.665C-118.384,-73.766 -118.402,-73.868 -118.437,-73.965C-118.686,-74.406 -118.969,-74.827 -119.281,-75.226C-119.447,-75.447 -119.467,-75.744 -119.333,-75.985C-119.283,-76.078 -119.22,-76.163 -119.147,-76.236C-119.022,-76.364 -118.837,-76.41 -118.667,-76.357C-118.479,-76.297 -118.282,-76.272 -118.087,-76.281C-117.991,-76.283 -117.9,-76.236 -117.846,-76.159C-117.797,-76.087 -117.782,-75.995 -117.812,-75.912C-117.833,-75.844 -117.817,-75.766 -117.769,-75.714C-117.655,-75.589 -117.508,-75.502 -117.346,-75.459C-117.099,-75.392 -116.837,-75.406 -116.599,-75.495C-116.372,-75.582 -116.21,-75.783 -116.174,-76.023C-116.147,-76.206 -116.099,-76.386 -116.03,-76.555C-115.976,-76.691 -115.904,-76.821 -115.823,-76.942C-115.706,-77.115 -115.532,-77.244 -115.331,-77.304C-115.182,-77.349 -115.036,-77.406 -114.893,-77.47C-114.69,-77.566 -114.491,-77.67 -114.3,-77.783C-114.085,-77.906 -113.907,-78.085 -113.783,-78.297C-113.644,-78.536 -113.342,-78.621 -113.099,-78.491C-112.878,-78.374 -112.755,-78.131 -112.789,-77.884C-112.825,-77.612 -112.812,-77.338 -112.751,-77.072C-112.718,-76.934 -112.636,-76.815 -112.519,-76.736C-112.395,-76.653 -112.253,-76.604 -112.103,-76.595C-111.848,-76.576 -111.649,-76.362 -111.651,-76.102C-111.655,-75.774 -111.657,-75.447 -111.657,-75.117C-111.659,-74.71 -111.685,-74.301 -111.729,-73.896C-111.798,-73.285 -111.89,-72.679 -112.01,-72.078C-112.079,-71.73 -112.128,-71.376 -112.151,-71.021C-112.18,-70.6 -112.18,-70.176 -112.151,-69.755C-112.138,-69.564 -112.064,-69.382 -111.938,-69.236C-111.57,-68.807 -111.202,-68.376 -110.836,-67.945C-110.665,-67.747 -110.499,-67.544 -110.342,-67.334C-110.243,-67.204 -110.187,-67.05 -110.178,-66.888C-110.168,-66.72 -110.249,-66.56 -110.388,-66.465C-110.542,-66.362 -110.676,-66.236 -110.787,-66.091C-110.964,-65.86 -111.2,-65.679 -111.47,-65.572C-111.884,-65.408 -112.267,-65.17 -112.597,-64.868C-112.781,-64.702 -112.919,-64.487 -112.997,-64.253C-113.18,-63.698 -113.274,-63.119 -113.278,-62.536C-113.283,-62.017 -113.245,-61.5 -113.161,-60.987C-113.108,-60.655 -113.134,-60.315 -113.232,-59.994C-113.646,-58.67 -114.123,-57.366 -114.665,-56.091C-114.935,-55.46 -115.147,-54.807 -115.302,-54.141C-115.478,-53.383 -115.649,-52.623 -115.817,-51.864C-115.906,-51.47 -116.151,-51.13 -116.499,-50.925C-116.524,-50.909 -116.55,-50.901 -116.579,-50.901C-116.667,-50.901 -116.743,-50.97 -116.745,-51.06C-116.767,-52.136 -116.702,-53.211 -116.554,-54.275C-116.346,-55.789 -116.354,-57.326 -116.579,-58.836C-116.636,-59.212 -116.636,-59.595 -116.579,-59.971C-116.516,-60.387 -116.508,-60.807 -116.554,-61.224C-116.589,-61.524 -116.589,-61.823 -116.554,-62.123C-116.532,-62.321 -116.468,-62.515 -116.366,-62.69C-116.194,-62.979 -116.187,-63.338 -116.342,-63.636C-116.413,-63.77 -116.51,-63.89 -116.625,-63.989C-116.753,-64.098 -116.937,-64.107 -117.074,-64.013C-117.293,-63.864 -117.499,-63.698 -117.69,-63.515C-117.856,-63.36 -118.014,-63.194 -118.163,-63.022C-118.333,-62.823 -118.608,-62.759 -118.85,-62.856C-119.012,-62.921 -119.198,-62.904 -119.346,-62.807C-119.718,-62.566 -120.052,-62.273 -120.339,-61.932C-120.532,-61.706 -120.787,-61.542 -121.072,-61.459C-121.339,-61.385 -121.629,-61.455 -121.83,-61.649C-121.951,-61.766 -122.04,-61.913 -122.088,-62.075C-122.208,-62.47 -122.176,-62.892 -121.993,-63.262C-121.823,-63.611 -121.69,-63.975 -121.593,-64.349C-121.524,-64.613 -121.445,-64.872 -121.356,-65.131M-67.816,-39.128C-67.792,-39.233 -67.705,-39.314 -67.598,-39.326C-67.475,-39.341 -67.351,-39.298 -67.262,-39.209C-66.968,-38.909 -66.679,-38.605 -66.394,-38.3C-65.913,-37.786 -65.44,-37.265 -64.97,-36.739C-64.473,-36.18 -63.861,-35.737 -63.175,-35.437C-62.539,-35.16 -61.819,-35.154 -61.179,-35.422C-60.765,-35.594 -60.388,-35.848 -60.071,-36.173C-59.867,-36.381 -59.76,-36.666 -59.776,-36.962C-59.796,-37.309 -60.021,-37.611 -60.349,-37.731C-60.98,-37.96 -61.597,-38.237 -62.185,-38.561C-62.765,-38.877 -63.307,-39.253 -63.804,-39.684C-64.482,-40.273 -65.195,-40.82 -65.938,-41.322C-66.116,-41.443 -66.282,-41.583 -66.432,-41.739C-66.546,-41.854 -66.688,-41.937 -66.847,-41.977C-67.019,-42.022 -67.148,-42.16 -67.183,-42.334C-67.226,-42.553 -67.298,-42.765 -67.399,-42.966C-67.493,-43.143 -67.493,-43.358 -67.399,-43.536C-67.298,-43.739 -67.132,-43.897 -66.926,-43.99C-66.628,-44.128 -66.306,-44.2 -65.979,-44.209C-65.737,-44.213 -65.497,-44.18 -65.269,-44.109C-65.017,-44.032 -64.875,-43.767 -64.952,-43.516C-64.986,-43.401 -65.013,-43.281 -65.031,-43.162C-65.062,-42.949 -64.989,-42.737 -64.833,-42.589C-64.292,-42.075 -63.754,-41.563 -63.214,-41.051C-62.546,-40.415 -61.776,-39.897 -60.938,-39.512C-60.376,-39.253 -59.794,-39.037 -59.201,-38.86C-58.874,-38.763 -58.521,-38.792 -58.214,-38.939C-57.903,-39.087 -57.743,-39.437 -57.837,-39.767C-57.888,-39.945 -57.999,-40.099 -58.153,-40.203C-58.367,-40.345 -58.515,-40.565 -58.567,-40.816C-58.626,-41.089 -58.497,-41.371 -58.252,-41.504C-57.914,-41.694 -57.603,-41.926 -57.325,-42.196C-57.015,-42.5 -56.622,-42.705 -56.197,-42.788C-55.878,-42.852 -55.586,-43.018 -55.369,-43.262C-55.22,-43.431 -55.233,-43.688 -55.401,-43.838C-55.416,-43.852 -55.433,-43.864 -55.448,-43.873C-55.632,-43.996 -55.792,-44.15 -55.922,-44.328C-56.157,-44.652 -56.394,-44.973 -56.632,-45.296C-56.865,-45.609 -57.214,-45.815 -57.601,-45.868C-57.859,-45.903 -58.099,-46.03 -58.272,-46.222C-58.44,-46.427 -58.485,-46.709 -58.388,-46.958C-58.382,-47.172 -58.252,-47.362 -58.054,-47.447C-57.892,-47.504 -57.728,-47.549 -57.56,-47.585C-57.28,-47.641 -56.995,-47.662 -56.712,-47.643C-56.319,-47.617 -55.935,-47.538 -55.565,-47.407C-55.046,-47.22 -54.538,-47.004 -54.044,-46.755C-53.511,-46.488 -53.05,-46.095 -52.702,-45.609C-52.45,-45.265 -52.265,-44.877 -52.149,-44.466C-52.044,-44.091 -52.116,-43.688 -52.345,-43.375C-52.471,-43.205 -52.608,-43.047 -52.761,-42.901C-52.912,-42.755 -53.069,-42.617 -53.233,-42.488C-53.44,-42.324 -53.675,-42.203 -53.927,-42.132C-54.286,-42.028 -54.643,-41.909 -54.993,-41.775C-55.288,-41.662 -55.558,-41.488 -55.782,-41.262C-56.05,-40.994 -56.229,-40.65 -56.296,-40.275C-56.361,-39.905 -56.396,-39.528 -56.396,-39.152C-56.394,-38.792 -56.538,-38.45 -56.792,-38.198C-56.94,-38.053 -57.019,-37.852 -57.011,-37.646C-56.999,-37.369 -57.011,-37.092 -57.05,-36.816C-57.073,-36.65 -56.973,-36.492 -56.813,-36.441C-56.622,-36.383 -56.42,-36.362 -56.22,-36.383C-55.876,-36.419 -55.525,-36.385 -55.193,-36.284C-55.063,-36.245 -54.952,-36.16 -54.878,-36.047C-54.794,-35.922 -54.71,-35.796 -54.62,-35.671C-54.493,-35.494 -54.458,-35.267 -54.521,-35.059C-54.544,-34.986 -54.503,-34.909 -54.433,-34.888C-54.416,-34.885 -54.399,-34.881 -54.384,-34.881C-54.201,-34.893 -54.021,-34.865 -53.851,-34.803C-53.722,-34.756 -53.62,-34.654 -53.573,-34.526C-53.507,-34.343 -53.442,-34.158 -53.376,-33.973C-53.311,-33.788 -53.357,-33.581 -53.495,-33.441C-53.618,-33.316 -53.817,-33.307 -53.948,-33.422C-54.106,-33.554 -54.278,-33.666 -54.462,-33.758C-54.746,-33.895 -55.044,-34 -55.351,-34.073C-55.612,-34.134 -55.859,-34.241 -56.082,-34.388C-56.45,-34.634 -56.794,-34.911 -57.11,-35.22C-57.311,-35.415 -57.515,-35.605 -57.724,-35.792C-57.847,-35.905 -58.04,-35.893 -58.151,-35.767C-58.161,-35.758 -58.169,-35.747 -58.177,-35.735C-58.263,-35.603 -58.378,-35.496 -58.513,-35.419C-59.05,-35.107 -59.569,-34.771 -60.073,-34.411C-60.475,-34.124 -60.933,-33.922 -61.416,-33.82C-61.899,-33.719 -62.38,-33.605 -62.856,-33.484C-63.12,-33.415 -63.397,-33.476 -63.608,-33.642C-64.11,-34.035 -64.61,-34.429 -65.11,-34.824C-65.659,-35.262 -66.167,-35.743 -66.63,-36.265C-66.958,-36.637 -67.256,-37.033 -67.519,-37.452C-67.679,-37.703 -67.786,-37.986 -67.835,-38.279C-67.882,-38.561 -67.875,-38.848 -67.816,-39.128M-61.712,-48.617C-61.55,-48.925 -61.386,-49.232 -61.224,-49.536C-60.985,-49.981 -60.675,-50.387 -60.305,-50.73C-60.084,-50.933 -59.869,-51.141 -59.659,-51.354C-59.537,-51.477 -59.456,-51.634 -59.422,-51.803C-59.458,-52.184 -59.325,-52.56 -59.058,-52.836C-58.886,-53.016 -58.71,-53.192 -58.533,-53.368C-58.429,-53.471 -58.311,-53.56 -58.185,-53.634C-58.088,-53.686 -57.966,-53.678 -57.878,-53.611C-57.776,-53.532 -57.677,-53.451 -57.582,-53.368C-57.497,-53.294 -57.386,-53.261 -57.274,-53.273C-57.183,-53.283 -57.092,-53.289 -56.999,-53.294C-56.869,-53.298 -56.767,-53.407 -56.769,-53.536C-56.769,-53.56 -56.765,-53.587 -56.761,-53.611C-56.722,-53.819 -56.521,-53.957 -56.313,-53.917C-56.104,-53.879 -55.901,-53.815 -55.71,-53.726C-55.567,-53.662 -55.473,-53.524 -55.467,-53.368C-55.46,-53.217 -55.471,-53.062 -55.499,-52.913C-55.556,-52.601 -55.376,-52.296 -55.075,-52.196C-54.851,-52.119 -54.604,-52.16 -54.412,-52.298C-54.067,-52.553 -53.647,-52.674 -53.22,-52.645C-52.811,-52.617 -52.41,-52.504 -52.046,-52.317C-51.761,-52.172 -51.456,-52.066 -51.141,-52.01C-50.11,-51.82 -49.069,-51.69 -48.023,-51.621C-47.507,-51.587 -46.989,-51.611 -46.479,-51.69C-46.21,-51.735 -45.935,-51.722 -45.669,-51.658C-45.21,-51.543 -44.738,-51.483 -44.265,-51.479L-42.684,-51.479C-42.364,-51.483 -42.056,-51.593 -41.81,-51.796C-41.427,-52.111 -41.122,-52.508 -40.919,-52.957C-40.776,-53.273 -40.499,-53.508 -40.165,-53.596C-40.144,-53.601 -40.118,-53.605 -40.095,-53.601C-39.983,-53.591 -39.902,-53.492 -39.912,-53.383C-39.931,-53.204 -39.801,-53.051 -39.625,-53.034C-39.38,-53.012 -39.177,-52.84 -39.116,-52.605C-39.016,-52.213 -39.001,-51.8 -39.078,-51.4C-39.131,-51.126 -39.097,-50.84 -38.981,-50.585C-38.864,-50.326 -38.954,-50.02 -39.194,-49.866C-39.374,-49.751 -39.511,-49.581 -39.583,-49.383C-39.591,-49.362 -39.599,-49.342 -39.606,-49.322C-39.757,-49.014 -40.129,-48.883 -40.438,-49.03C-40.763,-49.188 -41.11,-49.285 -41.467,-49.322C-41.759,-49.354 -42.025,-49.5 -42.206,-49.73C-42.352,-49.917 -42.574,-50.024 -42.81,-50.024C-43.618,-50.022 -44.431,-50.014 -45.24,-49.992C-45.425,-49.986 -45.595,-49.896 -45.702,-49.747C-45.799,-49.605 -45.825,-49.427 -45.771,-49.265C-45.612,-48.807 -45.55,-48.318 -45.589,-47.836C-45.629,-47.313 -45.641,-46.792 -45.626,-46.269C-45.612,-45.759 -45.855,-45.275 -46.272,-44.981C-46.418,-44.877 -46.523,-44.724 -46.565,-44.551C-46.665,-44.152 -46.89,-43.794 -47.212,-43.534C-47.578,-43.237 -47.987,-42.994 -48.425,-42.811C-48.801,-42.654 -49.214,-42.605 -49.616,-42.675C-49.859,-42.715 -50.076,-42.848 -50.224,-43.047C-50.351,-43.217 -50.529,-43.346 -50.731,-43.417C-50.771,-43.431 -50.807,-43.451 -50.839,-43.475C-50.987,-43.597 -51.009,-43.816 -50.888,-43.966C-50.769,-44.111 -50.588,-44.196 -50.399,-44.198C-50.128,-44.2 -49.861,-44.139 -49.616,-44.022C-49.452,-43.943 -49.267,-43.923 -49.089,-43.966C-48.788,-44.034 -48.554,-44.269 -48.483,-44.569C-48.427,-44.807 -48.259,-45.006 -48.034,-45.099C-47.782,-45.2 -47.601,-45.419 -47.544,-45.684C-47.52,-45.8 -47.54,-45.917 -47.603,-46.018C-47.679,-46.139 -47.708,-46.285 -47.681,-46.427C-47.644,-46.634 -47.556,-46.828 -47.427,-46.994C-47.197,-47.29 -47.131,-47.678 -47.25,-48.03C-47.347,-48.318 -47.465,-48.599 -47.603,-48.87C-47.805,-49.273 -48.135,-49.595 -48.542,-49.79C-49.046,-50.03 -49.578,-50.217 -50.124,-50.338C-50.837,-50.496 -51.55,-50.645 -52.265,-50.787C-53.161,-50.97 -54.086,-50.928 -54.964,-50.67C-55.473,-50.522 -55.909,-50.196 -56.197,-49.751C-56.601,-49.128 -57.274,-48.73 -58.015,-48.678C-58.313,-48.656 -58.606,-48.609 -58.896,-48.541C-59.241,-48.456 -59.56,-48.281 -59.814,-48.032C-60.022,-47.83 -60.29,-47.698 -60.577,-47.662C-60.819,-47.63 -61.063,-47.641 -61.3,-47.698C-61.353,-47.713 -61.401,-47.73 -61.448,-47.755C-61.76,-47.921 -61.878,-48.307 -61.712,-48.617M-53.63,-57.904C-53.307,-58.52 -52.981,-59.136 -52.653,-59.751C-52.103,-60.787 -51.133,-61.538 -49.991,-61.815C-49.983,-61.832 -49.973,-61.847 -49.96,-61.862C-49.886,-61.949 -49.752,-61.961 -49.665,-61.885C-49.574,-61.807 -49.538,-61.686 -49.565,-61.57C-49.825,-60.549 -49.931,-59.492 -49.88,-58.435C-49.854,-57.888 -49.929,-57.338 -50.101,-56.817C-50.274,-56.289 -50.637,-55.84 -51.118,-55.56C-51.525,-55.324 -52.003,-55.239 -52.467,-55.321C-52.907,-55.398 -53.272,-55.706 -53.425,-56.13C-53.538,-56.443 -53.639,-56.762 -53.724,-57.087C-53.796,-57.362 -53.765,-57.653 -53.63,-57.904M-47.08,-56.036C-46.942,-56.33 -46.763,-56.605 -46.548,-56.85C-46.374,-57.051 -46.165,-57.22 -45.935,-57.347C-45.744,-57.455 -45.513,-57.459 -45.319,-57.366C-45.151,-57.283 -45.056,-57.101 -45.087,-56.917C-45.131,-56.637 -45.153,-56.354 -45.153,-56.071C-45.177,-55.987 -45.163,-55.9 -45.11,-55.832C-45.023,-55.715 -44.87,-55.674 -44.735,-55.73C-44.706,-55.743 -44.673,-55.751 -44.642,-55.751C-44.511,-55.749 -44.406,-55.641 -44.406,-55.512C-44.406,-55.374 -44.394,-55.234 -44.37,-55.098C-44.339,-54.937 -44.242,-54.796 -44.103,-54.706C-43.695,-54.447 -43.21,-54.336 -42.729,-54.394C-42.348,-54.439 -41.963,-54.354 -41.64,-54.147C-41.485,-54.051 -41.406,-53.868 -41.438,-53.69C-41.452,-53.603 -41.525,-53.54 -41.612,-53.532C-41.969,-53.512 -42.325,-53.5 -42.684,-53.496C-43.38,-53.494 -44.076,-53.516 -44.772,-53.56C-45.072,-53.581 -45.374,-53.512 -45.635,-53.362C-46.003,-53.151 -46.437,-53.093 -46.847,-53.196C-47.036,-53.245 -47.161,-53.419 -47.147,-53.611C-47.11,-54.099 -47.133,-54.589 -47.214,-55.073C-47.269,-55.4 -47.222,-55.734 -47.08,-56.036M-30.074,-3.47C-30.016,-3.91 -29.787,-4.331 -29.423,-4.602C-28.981,-4.965 -28.694,-5.48 -28.655,-6.055C-28.599,-6.671 -28.291,-7.246 -27.793,-7.629C-27.39,-7.934 -26.913,-8.144 -26.415,-8.242C-26.089,-8.299 -25.743,-8.299 -25.417,-8.242C-25.149,-8.185 -24.88,-8.28 -24.69,-8.491C-24.344,-8.855 -23.904,-9.124 -23.425,-9.258C-23.042,-9.353 -22.657,-9.428 -22.257,-9.448C-21.872,-9.469 -21.489,-9.505 -21.106,-9.602C-20.704,-9.679 -20.319,-9.774 -19.919,-9.869C-19.4,-9.987 -18.884,-10.061 -18.366,-10.061C-18.022,-10.061 -17.676,-10.12 -17.351,-10.233C-16.947,-10.387 -16.508,-10.29 -16.183,-9.987C-15.779,-9.602 -15.491,-9.124 -15.319,-8.586C-15.223,-8.262 -15.223,-7.934 -15.3,-7.629C-15.396,-7.225 -15.223,-6.804 -14.898,-6.574C-14.706,-6.44 -14.419,-6.478 -14.285,-6.671C-14.149,-6.825 -14.017,-6.976 -13.845,-7.112C-13.69,-7.225 -13.519,-7.303 -13.325,-7.323C-13.115,-7.341 -12.943,-7.493 -12.887,-7.687C-12.81,-7.974 -12.674,-8.242 -12.464,-8.452C-12.176,-8.778 -11.87,-9.065 -11.544,-9.353C-11.313,-9.546 -11.142,-9.774 -11.008,-10.023C-10.913,-10.233 -10.987,-10.484 -11.2,-10.578C-11.524,-10.752 -11.775,-11.039 -11.87,-11.384C-11.947,-11.635 -11.985,-11.882 -11.947,-12.15C-11.87,-12.631 -11.622,-13.071 -11.237,-13.378C-10.913,-13.606 -10.528,-13.739 -10.146,-13.739C-9.819,-13.76 -9.494,-13.665 -9.206,-13.493C-8.901,-13.262 -8.727,-12.897 -8.765,-12.514C-8.804,-12.209 -8.651,-11.901 -8.403,-11.709C-8.038,-11.46 -7.712,-11.173 -7.443,-10.829C-7.177,-10.503 -7.117,-10.044 -7.29,-9.659C-7.425,-9.353 -7.615,-9.084 -7.847,-8.855C-8.134,-8.567 -8.575,-8.509 -8.919,-8.701C-9.263,-8.893 -9.704,-8.837 -9.991,-8.586C-10.376,-8.242 -10.7,-7.857 -10.951,-7.436C-11.2,-7.035 -11.372,-6.594 -11.487,-6.114C-11.563,-5.712 -11.794,-5.329 -12.119,-5.08C-12.502,-4.772 -12.866,-4.448 -13.212,-4.12C-13.613,-3.72 -14.208,-3.546 -14.763,-3.681C-15.071,-3.758 -15.376,-3.776 -15.663,-3.72C-15.972,-3.663 -16.259,-3.833 -16.372,-4.12C-16.47,-4.351 -16.564,-4.582 -16.642,-4.831C-16.737,-5.059 -16.698,-5.347 -16.526,-5.54C-16.161,-5.942 -16.028,-6.517 -16.183,-7.035C-16.239,-7.205 -16.336,-7.341 -16.47,-7.436C-16.564,-7.512 -16.681,-7.512 -16.774,-7.436C-17.006,-7.264 -17.178,-6.995 -17.234,-6.708C-17.272,-6.478 -17.332,-6.268 -17.427,-6.055C-17.504,-5.865 -17.676,-5.731 -17.886,-5.712L-18.346,-5.712C-18.559,-5.731 -18.73,-5.598 -18.808,-5.406C-18.979,-4.906 -19.382,-4.505 -19.88,-4.331C-20.168,-4.238 -20.417,-4.044 -20.55,-3.776C-20.838,-3.299 -21.395,-3.048 -21.949,-3.125C-22.544,-3.24 -23.155,-3.144 -23.694,-2.857C-24.134,-2.627 -24.632,-2.531 -25.11,-2.59C-25.532,-2.627 -25.955,-2.493 -26.278,-2.244C-26.682,-1.938 -27.142,-1.708 -27.642,-1.574C-27.909,-1.497 -28.178,-1.382 -28.444,-1.246C-28.466,-1.246 -28.466,-1.246 -28.483,-1.227C-28.791,-1.112 -29.114,-1.266 -29.251,-1.574C-29.366,-1.861 -29.518,-2.129 -29.728,-2.359C-29.997,-2.665 -30.131,-3.068 -30.074,-3.47M-18.472,53.057C-18.472,109.201 -64.138,154.876 -120.269,154.876C-176.399,154.876 -222.066,109.201 -222.066,53.057C-222.066,-3.074 -176.399,-48.741 -120.269,-48.741C-64.138,-48.741 -18.472,-3.074 -18.472,53.057M-6.122,-3.723C-5.937,-3.718 -5.767,-3.616 -5.677,-3.454C-5.601,-3.323 -5.601,-3.161 -5.677,-3.031C-5.755,-2.889 -5.847,-2.756 -5.943,-2.631C-6.093,-2.436 -6.296,-2.291 -6.524,-2.206C-6.717,-2.135 -6.927,-2.12 -7.128,-2.161C-7.466,-2.229 -7.817,-2.144 -8.087,-1.93C-8.351,-1.959 -8.585,-1.768 -8.613,-1.505C-8.617,-1.457 -8.615,-1.406 -8.605,-1.355C-8.559,-1.181 -8.405,-1.054 -8.223,-1.042C-7.813,-1.013 -7.427,-0.855 -7.117,-0.59C-6.638,-0.181 -6.126,0.188 -5.583,0.513C-4.615,1.094 -3.69,1.741 -2.81,2.45C-2.185,2.956 -1.575,3.483 -0.983,4.031C-0.545,4.439 -0.37,5.058 -0.532,5.632C-0.694,6.211 -1.063,6.709 -1.569,7.03C-1.824,7.194 -2.107,7.309 -2.403,7.369C-2.779,7.446 -3.144,7.575 -3.485,7.75C-3.719,7.871 -3.992,7.89 -4.237,7.798C-4.775,7.6 -5.31,7.392 -5.838,7.167C-6.679,6.815 -7.437,6.292 -8.071,5.637C-8.286,5.414 -8.605,5.324 -8.905,5.409C-9.259,5.511 -9.638,5.471 -9.964,5.296C-10.223,5.161 -10.435,4.948 -10.573,4.689C-10.821,4.22 -11.196,3.831 -11.655,3.564C-12.194,3.248 -12.712,2.902 -13.21,2.528C-13.421,2.365 -13.71,2.358 -13.931,2.503C-14.04,2.575 -14.128,2.677 -14.181,2.796C-14.271,3.001 -14.255,3.238 -14.136,3.428C-14.036,3.584 -13.931,3.734 -13.819,3.879C-13.624,4.13 -13.345,4.307 -13.03,4.373C-12.73,4.439 -12.451,4.577 -12.219,4.779C-12.021,4.952 -11.866,5.167 -11.767,5.409C-11.64,5.73 -11.387,5.981 -11.069,6.111C-10.67,6.272 -10.279,6.45 -9.896,6.649C-9.747,6.728 -9.64,6.867 -9.603,7.033C-9.553,7.268 -9.651,7.509 -9.853,7.641C-10.036,7.762 -10.147,7.968 -10.147,8.191C-10.147,8.23 -10.155,8.268 -10.17,8.302C-10.233,8.452 -10.405,8.523 -10.555,8.462C-10.828,8.349 -11.097,8.228 -11.366,8.102C-11.723,7.932 -12.032,7.677 -12.267,7.357C-12.437,7.126 -12.733,7.017 -13.013,7.086C-13.223,7.139 -13.409,7.268 -13.53,7.446C-13.847,7.914 -14.253,8.313 -14.725,8.62C-14.947,8.762 -15.204,8.841 -15.47,8.843C-16.062,8.851 -16.651,8.966 -17.204,9.183C-17.763,9.4 -18.327,9.604 -18.896,9.79C-19.271,9.913 -19.512,10.277 -19.481,10.669C-19.468,10.877 -19.349,11.062 -19.165,11.165C-18.812,11.365 -18.552,11.697 -18.445,12.09C-18.351,12.438 -18.22,12.779 -18.062,13.102C-17.905,13.426 -17.632,13.675 -17.296,13.802C-17.087,13.879 -16.853,13.837 -16.687,13.689C-16.386,13.422 -16.052,13.196 -15.694,13.013C-15.483,12.905 -15.255,12.837 -15.019,12.811C-14.927,12.798 -14.84,12.855 -14.815,12.945C-14.743,13.196 -14.69,13.452 -14.657,13.711C-14.626,13.964 -14.69,14.224 -14.838,14.432C-15.055,14.739 -15.391,14.944 -15.763,14.996C-15.955,15.023 -16.126,15.13 -16.235,15.288C-16.351,15.454 -16.421,15.649 -16.438,15.851C-16.468,16.166 -16.46,16.485 -16.417,16.798C-16.376,17.081 -16.487,17.361 -16.708,17.543C-16.886,17.685 -17.121,17.736 -17.34,17.677C-17.566,17.616 -17.765,17.483 -17.905,17.294C-18.091,17.041 -18.296,16.8 -18.515,16.571C-18.704,16.373 -18.802,16.104 -18.783,15.83C-18.763,15.519 -18.817,15.211 -18.94,14.928C-19.153,14.442 -19.388,13.966 -19.642,13.501C-19.931,12.968 -20.393,12.547 -20.949,12.307C-21.321,12.147 -21.663,11.924 -21.964,11.653C-22.14,11.494 -22.225,11.256 -22.19,11.021C-22.134,10.656 -21.94,10.324 -21.647,10.098C-21.344,9.862 -21.083,9.571 -20.882,9.241C-20.619,8.811 -20.245,8.458 -19.8,8.224C-19.571,8.1 -19.327,8.001 -19.079,7.928C-18.727,7.826 -18.358,7.798 -17.995,7.839C-17.491,7.898 -16.981,7.875 -16.485,7.77C-16.358,7.745 -16.237,7.701 -16.126,7.637C-15.933,7.528 -15.825,7.315 -15.854,7.096C-15.876,6.924 -16.019,6.79 -16.192,6.78C-16.785,6.743 -17.38,6.705 -17.974,6.669C-18.804,6.613 -19.599,6.307 -20.251,5.788C-20.789,5.362 -21.323,4.924 -21.851,4.483C-21.981,4.373 -22.042,4.199 -22.008,4.031C-21.987,3.926 -21.923,3.835 -21.829,3.782C-21.698,3.709 -21.55,3.671 -21.4,3.671C-21.093,3.669 -20.791,3.592 -20.521,3.446C-19.874,3.094 -19.119,2.988 -18.4,3.153C-17.878,3.273 -17.36,3.405 -16.847,3.56C-16.63,3.62 -16.398,3.515 -16.306,3.311C-16.157,2.985 -16.008,2.663 -15.854,2.341C-15.714,2.05 -15.481,1.811 -15.192,1.665C-14.729,1.43 -14.183,1.439 -13.727,1.687C-13.384,1.871 -13.038,2.054 -12.688,2.228C-12.356,2.394 -11.96,2.369 -11.651,2.159C-11.498,2.056 -11.391,1.892 -11.358,1.709C-11.313,1.458 -11.338,1.203 -11.427,0.964C-11.491,0.79 -11.413,0.596 -11.247,0.515C-11.142,0.462 -11.024,0.443 -10.907,0.446C-10.753,0.456 -10.603,0.511 -10.479,0.605C-10.36,0.696 -10.294,0.839 -10.3,0.988C-10.31,1.252 -10.255,1.515 -10.142,1.754C-10.065,1.916 -9.956,2.062 -9.825,2.183C-9.696,2.303 -9.609,2.46 -9.577,2.632C-9.54,2.835 -9.524,3.037 -9.532,3.241C-9.538,3.43 -9.403,3.596 -9.217,3.624C-9.028,3.653 -8.845,3.716 -8.677,3.805C-8.462,3.918 -8.251,4.037 -8.044,4.165C-7.151,4.713 -6.265,5.268 -5.385,5.833C-5.134,5.992 -4.87,6.128 -4.595,6.239C-4.343,6.339 -4.055,6.256 -3.896,6.035C-3.796,5.896 -3.664,5.78 -3.513,5.697C-3.294,5.577 -3.081,5.443 -2.881,5.292C-2.685,5.145 -2.573,4.907 -2.587,4.661C-2.595,4.556 -2.634,4.45 -2.7,4.369C-2.909,4.111 -3.16,3.888 -3.445,3.713C-3.839,3.475 -4.217,3.211 -4.577,2.922C-4.889,2.673 -5.202,2.426 -5.521,2.181C-5.649,2.082 -5.806,2.026 -5.97,2.026C-6.378,2.017 -6.765,1.847 -7.049,1.552C-7.245,1.347 -7.481,1.187 -7.745,1.082C-8,0.977 -8.263,0.896 -8.532,0.833C-8.751,0.782 -8.954,0.673 -9.115,0.519C-9.34,0.305 -9.622,0.165 -9.925,0.114C-10.227,0.066 -10.517,-0.044 -10.779,-0.199C-10.974,-0.315 -11.214,-0.315 -11.409,-0.199C-11.712,-0.017 -12.067,0.062 -12.419,0.026C-12.698,-0.003 -12.968,-0.096 -13.206,-0.246C-13.407,-0.37 -13.575,-0.538 -13.7,-0.74C-13.898,-1.055 -13.903,-1.459 -13.714,-1.78C-13.413,-2.295 -12.949,-2.695 -12.396,-2.918C-12.097,-3.042 -11.84,-3.25 -11.659,-3.521C-11.458,-3.829 -11.075,-3.967 -10.723,-3.857C-10.31,-3.727 -9.87,-3.714 -9.449,-3.812C-9.111,-3.889 -8.761,-3.889 -8.423,-3.812C-7.925,-3.695 -7.413,-3.659 -6.903,-3.699C-6.644,-3.721 -6.383,-3.729 -6.122,-3.723M-3.162,-2.076C-2.952,-2.339 -2.575,-2.404 -2.29,-2.221C-2.162,-2.14 -2.04,-2.05 -1.927,-1.946C-1.866,-1.889 -1.77,-1.893 -1.713,-1.957C-1.666,-2.007 -1.66,-2.08 -1.694,-2.138C-1.534,-2.448 -1.349,-2.748 -1.142,-3.031C-1.051,-3.155 -0.956,-3.274 -0.856,-3.391C-0.775,-3.487 -0.715,-3.595 -0.675,-3.712C-0.593,-3.942 -0.5,-4.169 -0.397,-4.391C-0.391,-4.406 -0.381,-4.42 -0.372,-4.434C-0.286,-4.555 -0.116,-4.584 0.006,-4.497C0.17,-4.38 0.296,-4.218 0.368,-4.029C0.517,-3.642 0.546,-3.221 0.453,-2.817C0.398,-2.584 0.464,-2.339 0.623,-2.161C0.823,-1.936 0.943,-1.651 0.964,-1.351C0.978,-1.133 0.972,-0.912 0.943,-0.693C0.896,-0.351 0.812,-0.015 0.687,0.305C0.587,0.56 0.362,0.746 0.091,0.794C-0.319,0.867 -0.743,0.766 -1.077,0.519C-1.3,0.353 -1.5,0.159 -1.673,-0.055C-1.8,-0.214 -1.919,-0.378 -2.034,-0.546C-2.187,-0.766 -2.45,-0.882 -2.715,-0.841C-2.994,-0.801 -3.259,-0.974 -3.332,-1.246C-3.409,-1.533 -3.347,-1.841 -3.162,-2.076M-120.269,-89.304C-198.777,-89.304 -262.65,-25.442 -262.65,53.057C-262.65,131.565 -198.777,195.438 -120.269,195.438C-41.769,195.438 22.095,131.565 22.095,53.057C22.095,-25.442 -41.769,-89.304 -120.269,-89.304" style="fill:rgb(15,73,148);fill-rule:nonzero;"/>
    </g>
    <g transform="matrix(4.166667,0,0,4.166667,336.471667,197.489167)">
        <path d="M0,13.234C0.198,13.366 0.449,13.383 0.664,13.285C0.785,13.226 0.875,13.119 0.909,12.989C0.969,12.756 0.988,12.515 0.958,12.277C0.903,11.819 0.836,11.359 0.761,10.904C0.692,10.483 0.735,10.049 0.884,9.653C0.947,9.483 1.048,9.334 1.178,9.212C1.348,9.052 1.467,8.847 1.522,8.621C1.577,8.404 1.5,8.175 1.326,8.034C1.198,7.926 1.046,7.851 0.884,7.811C0.652,7.755 0.407,7.811 0.22,7.959C0,8.134 -0.162,8.376 -0.245,8.645C-0.379,9.085 -0.462,9.538 -0.49,9.995C-0.508,10.279 -0.747,10.495 -1.031,10.487C-1.29,10.479 -1.549,10.519 -1.792,10.609C-2.118,10.73 -2.484,10.664 -2.749,10.438C-2.936,10.277 -3.152,10.161 -3.387,10.094C-3.581,10.038 -3.737,9.892 -3.804,9.702C-3.846,9.585 -3.862,9.459 -3.854,9.334C-3.834,9.074 -3.786,8.819 -3.707,8.572C-3.625,8.317 -3.544,8.066 -3.461,7.811C-3.376,7.556 -3.506,7.277 -3.755,7.175C-3.838,7.139 -3.907,7.078 -3.952,7.002C-4.079,6.779 -4.279,6.609 -4.516,6.511C-4.682,6.445 -4.869,6.451 -5.039,6.528C-5.132,6.564 -5.237,6.519 -5.275,6.426C-5.36,6.212 -5.504,6.026 -5.69,5.888C-5.804,5.807 -5.883,5.683 -5.911,5.546C-5.956,5.334 -5.856,5.115 -5.666,5.009C-5.514,4.922 -5.401,4.783 -5.348,4.617C-5.257,4.334 -5.286,4.026 -5.421,3.76C-5.666,3.287 -6.018,2.876 -6.449,2.562C-6.549,2.492 -6.676,2.471 -6.792,2.513C-7.059,2.609 -7.348,2.627 -7.624,2.562C-7.749,2.532 -7.84,2.422 -7.844,2.293C-7.85,2.098 -7.858,1.902 -7.869,1.706C-7.887,1.347 -7.911,0.989 -7.941,0.629C-7.961,0.386 -8.046,0.147 -8.186,-0.055C-8.237,-0.128 -8.34,-0.149 -8.413,-0.096C-8.431,-0.083 -8.443,-0.072 -8.456,-0.055C-8.599,0.153 -8.668,0.402 -8.652,0.655C-8.609,1.317 -8.48,1.969 -8.267,2.596C-8.077,2.668 -7.952,2.849 -7.954,3.052C-7.956,3.356 -7.939,3.657 -7.905,3.961C-7.844,4.471 -7.895,4.989 -8.053,5.481C-8.162,5.828 -8.117,6.202 -7.929,6.511C-7.804,6.718 -7.664,6.915 -7.512,7.1C-6.994,7.732 -6.435,8.33 -5.842,8.892C-4.998,9.689 -4.178,10.515 -3.387,11.37C-2.893,11.9 -2.268,12.293 -1.571,12.5C-1.012,12.666 -0.484,12.912 0,13.234" style="fill:rgb(15,73,148);fill-rule:nonzero;"/>
    </g>
</svg>
