<svg width="88" height="88" viewBox="0 0 88 88" fill="none" xmlns="http://www.w3.org/2000/svg">
<path fill-rule="evenodd" clip-rule="evenodd" d="M43.999 0C19.6993 0 0 19.6993 0 43.999C0 68.2987 19.6993 88 43.999 88C68.3012 88 88.0005 68.2987 88.0005 43.999C88.0005 19.6993 68.3012 0 43.999 0Z" fill="#115740"/>
<path fill-rule="evenodd" clip-rule="evenodd" d="M43.9991 73.2125C27.866 73.2125 14.7881 60.1347 14.7881 44.0015C14.7881 27.8687 27.866 14.7903 43.9991 14.7903C60.1323 14.7903 73.2101 27.8687 73.2101 44.0015C73.2101 60.1347 60.1323 73.2125 43.9991 73.2125Z" fill="white"/>
<path fill-rule="evenodd" clip-rule="evenodd" d="M36.3439 68.8839V67.2927L36.3589 66.5049L36.2894 66.4504L35.1122 66.6634V66.9288L35.1772 66.9218C35.2917 66.9123 35.6051 66.8923 35.6926 66.9493C35.791 67.0138 35.8085 67.2073 35.8105 67.2333V68.8839C35.8105 69.1778 35.8055 69.4332 35.8005 69.7327L35.0347 69.7347L35.0322 70.0406H37.0967L37.0992 69.7327H36.3539C36.3489 69.4282 36.3439 69.1778 36.3439 68.8839Z" fill="#115740"/>
<path fill-rule="evenodd" clip-rule="evenodd" d="M41.2633 69.8853C40.8494 69.8853 40.5845 69.6043 40.5845 69.1515C40.5845 68.792 40.7404 68.5821 41.0604 68.3631C41.7082 68.6676 41.9032 68.9015 41.9032 69.2294C41.9032 69.6198 41.6612 69.8853 41.2633 69.8853ZM40.678 67.1534C40.678 66.802 40.9509 66.5841 41.2633 66.5841C41.6142 66.5841 41.8097 66.8645 41.8097 67.2314C41.8097 67.5358 41.7082 67.7623 41.4193 68.0042C40.8259 67.7233 40.678 67.4499 40.678 67.1534ZM41.7547 68.1677C41.7317 68.1447 41.6922 68.1132 41.6847 68.0822C41.6767 68.0272 41.7547 67.9652 41.7627 67.9577C42.1296 67.7233 42.2621 67.4579 42.2621 67.2084C42.2621 66.7395 41.9032 66.3806 41.2708 66.3806C40.678 66.3806 40.2096 66.7395 40.2096 67.3099C40.2096 67.6683 40.381 67.9732 40.7714 68.2147C40.7949 68.2302 40.8259 68.2617 40.8184 68.2927C40.8104 68.3241 40.7634 68.3631 40.7559 68.3711C40.3265 68.5821 40.1001 68.847 40.1001 69.2219C40.1001 69.7603 40.5295 70.0722 41.2318 70.0722C41.9422 70.0722 42.4185 69.6898 42.4185 69.128C42.4185 68.7066 42.2076 68.4256 41.7547 68.1677Z" fill="#115740"/>
<path fill-rule="evenodd" clip-rule="evenodd" d="M47.1562 68.0192C47.1562 68.0192 47.1562 68.0582 47.1327 68.1052C47.1172 68.1522 47.0702 68.1912 47.0467 68.2147C46.9142 68.2927 46.7737 68.3316 46.6018 68.3316C46.1804 68.3316 45.876 68.0427 45.876 67.4494C45.876 66.872 46.1729 66.5836 46.5163 66.5836C46.8987 66.5836 47.1642 66.95 47.1642 67.8558C47.1642 67.9103 47.1562 67.9652 47.1562 68.0192ZM46.5238 66.3806C45.853 66.3806 45.3376 66.8175 45.3296 67.5198C45.3296 68.1987 45.798 68.5971 46.4068 68.5971C46.5863 68.5971 46.7423 68.5661 46.8832 68.5036C46.9062 68.4956 46.9687 68.4801 47.0077 68.5036C47.0547 68.5346 47.0467 68.6286 47.0392 68.6831L47.0312 68.7141C46.8362 69.2839 46.3988 69.6818 45.6185 69.9473L45.6495 70.1032C47.0392 69.7913 47.718 68.909 47.718 67.8403C47.718 66.9425 47.2731 66.3806 46.5238 66.3806Z" fill="#115740"/>
<path fill-rule="evenodd" clip-rule="evenodd" d="M52.0505 68.1357C52.5938 67.9912 52.8583 67.6623 52.8583 67.2484C52.8583 66.7395 52.4688 66.3806 51.796 66.3806C51.2721 66.3806 50.6408 66.7445 50.7438 67.1189C50.7933 67.2484 50.8932 67.2929 51.0032 67.2929C51.1727 67.2929 51.2676 67.2034 51.3171 66.974L51.3526 66.8365V66.837C51.3526 66.837 51.4121 66.7315 51.4896 66.6725C51.5916 66.5951 51.752 66.5926 51.79 66.5936C52.1299 66.6396 52.3244 66.876 52.3244 67.2634C52.3244 67.7673 52.0155 68.0362 51.5366 68.0362H51.3321V68.2552H51.5766C52.1304 68.2552 52.4144 68.5446 52.4144 69.0635C52.4144 69.5509 52.1639 69.8398 51.6865 69.8738L51.695 69.8723C51.695 69.8723 51.5481 69.8748 51.4296 69.8283C51.3351 69.7913 51.2616 69.6508 51.2501 69.6273L51.2126 69.4729C51.1477 69.2034 51.0742 69.058 50.8937 69.051C50.7688 69.046 50.6338 69.102 50.6338 69.2834C50.6753 69.8583 51.1177 70.0757 51.716 70.0757C52.4744 70.0757 52.9677 69.6418 52.9677 69.0435C52.9677 68.5801 52.6938 68.2407 52.0505 68.1357Z" fill="#115740"/>
<path fill-rule="evenodd" clip-rule="evenodd" d="M60.9691 72.9649C60.9541 73.0209 60.9241 73.0899 60.8376 73.1219C60.7516 73.1544 60.6981 73.1254 60.6831 73.1164C60.6681 73.1069 60.6366 73.0789 60.6866 73.0114C60.7361 72.9444 60.8251 72.8804 60.8696 72.8724C60.9141 72.8644 60.9841 72.9084 60.9691 72.9649ZM60.6606 73.8877C60.6287 73.9802 60.5787 74.1211 60.4647 74.1506C60.3507 74.1806 60.2862 74.1466 60.2717 74.0856C60.2562 74.0212 60.2877 73.8127 60.4517 73.7122C60.5762 73.6357 60.6926 73.7952 60.6606 73.8877ZM61.3925 72.0221C61.1895 71.9112 60.9491 71.8202 60.8726 71.8767C60.7956 71.9336 60.7606 71.9307 60.6791 72.0606C60.5982 72.1906 60.4762 72.49 60.3427 72.3171C60.2088 72.1441 60.0983 71.8642 59.9873 71.7927C59.8763 71.7217 59.7224 71.7117 59.5994 71.7267C59.4769 71.7417 59.364 71.7197 59.358 71.8047C59.353 71.8897 59.4124 72.2231 59.4794 72.412C59.5464 72.6005 59.6389 72.8114 59.5579 72.9194C59.4769 73.0279 59.0625 73.0604 59.0105 73.1294C58.9591 73.1989 58.8451 73.3333 58.9595 73.4128C59.0735 73.4933 59.2795 73.5948 59.2825 73.6942C59.2855 73.7937 59.2085 74.0411 59.282 74.1511C59.3555 74.2616 59.5639 74.3571 59.6679 74.1676C59.7724 73.9777 59.9493 73.9977 59.9293 74.1571C59.9093 74.3161 59.9213 74.4526 59.7189 74.629C59.5164 74.8065 59.1875 74.8844 59.4059 75.0189C59.6249 75.1539 59.7943 75.2124 59.8138 75.3748C59.8333 75.5378 59.8128 75.6138 59.7699 75.6713C59.7269 75.7292 59.7174 75.7917 59.8413 75.8267C59.9658 75.8617 60.0383 75.8262 60.1193 75.7872C60.2003 75.7487 60.3137 75.6978 60.3497 75.8097C60.3857 75.9227 60.4087 75.9982 60.3867 76.0417C60.3777 76.0597 60.2013 76.1801 60.0983 76.4081C59.9548 76.725 59.7519 77.1764 59.4654 77.4748C58.987 77.9732 58.9606 78.0547 58.8091 78.1047C58.6871 78.1452 58.6621 78.1257 58.6276 78.1542C58.5936 78.1827 58.5736 78.2766 58.6016 78.3191C58.6296 78.3611 58.7556 78.686 59.043 78.672C59.331 78.658 59.6434 78.5641 59.8183 78.3151C59.9933 78.0662 60.8921 75.6553 61.0216 75.4953C61.151 75.3363 61.381 75.3188 61.4 75.3978C61.4185 75.4768 61.4455 75.6703 61.3095 75.9047C61.1735 76.1397 61.0281 76.2796 61.0251 76.3326C61.0221 76.3866 61.125 76.5485 61.1825 76.7085C61.2355 76.856 61.213 76.928 61.2975 77.0289C61.382 77.1294 61.4774 77.2179 61.4814 77.2399C61.4854 77.2624 61.3785 77.5488 61.1775 77.9327C60.9771 78.3161 60.9251 78.3851 60.8276 78.4741C60.7306 78.5626 60.6142 78.6201 60.6207 78.6805C60.6272 78.7405 60.7161 78.864 60.8621 78.8725C61.0086 78.8815 61.125 78.864 61.194 78.785C61.2625 78.705 61.344 78.4401 61.4944 78.1752C61.6449 77.9102 61.6789 77.7937 61.7284 77.7568C61.7769 77.7193 61.9793 77.7468 62.0608 77.9052C62.1423 78.0632 62.1753 78.2291 62.0548 78.4216C61.9348 78.6136 61.7114 78.731 61.7014 78.776C61.6914 78.821 61.7424 79.008 62.0408 79.0065C62.3392 79.005 62.4427 78.915 62.5677 78.85C62.6927 78.786 62.8451 78.811 62.9346 78.722C63.0241 78.6325 63.1096 78.3161 62.9666 78.0232C62.8236 77.7303 62.7436 77.5998 62.6327 77.4628C62.5212 77.3259 62.2598 77.0264 62.4202 76.8515C62.5807 76.677 62.6447 76.631 62.7187 76.6015C62.7926 76.5725 62.9646 76.3851 62.9126 76.2531C62.8606 76.1212 62.6942 76.0012 62.6097 76.0577C62.5252 76.1137 62.4407 76.3746 62.3247 76.4936C62.2088 76.6125 62.0418 76.7745 61.8814 76.653C61.7209 76.5316 61.5874 76.3806 61.5694 76.3151C61.5514 76.2501 61.7074 76.0577 61.8199 75.7772C61.9318 75.4963 62.1323 74.8685 62.0228 74.5585C61.9128 74.2486 61.7624 74.2176 61.6884 74.2466C61.6144 74.2761 61.2965 74.498 61.1875 74.3596C61.0785 74.2211 61.0865 74.0601 61.219 73.7602C61.3505 73.4598 61.39 73.2368 61.3905 73.1414C61.391 73.0459 61.3815 72.9519 61.4854 72.8574C61.5889 72.7635 61.8214 72.6565 61.7409 72.4605C61.6609 72.2651 61.5949 72.1336 61.3925 72.0221Z" fill="white"/>
<path fill-rule="evenodd" clip-rule="evenodd" d="M58.3912 76.8234C58.3807 76.8099 58.3912 76.7539 58.4427 76.7144C58.4937 76.6754 58.5887 76.4135 58.3937 76.186C58.1993 75.9581 57.9313 75.7296 57.9108 75.6697C57.8903 75.6102 57.8813 75.5302 58.0293 75.4497C58.1778 75.3697 58.2672 75.3017 58.2433 75.1943C58.2188 75.0868 58.1728 75.0633 58.2108 74.9988C58.2483 74.9348 58.3252 74.8518 58.6072 74.9443C58.8891 75.0368 59.0676 75.2413 59.1135 75.3052C59.16 75.3687 59.2155 75.4577 59.1495 75.6662C59.083 75.8751 58.9266 76.0935 58.9491 76.203C58.9711 76.3125 59.0586 76.3775 59.0656 76.438C59.0721 76.498 59.0806 76.8489 58.9871 76.9633C58.8931 77.0788 58.7101 77.0603 58.5897 76.9818C58.4697 76.9039 58.4267 76.8704 58.3912 76.8234Z" fill="white"/>
<path fill-rule="evenodd" clip-rule="evenodd" d="M28.8827 76.053C28.7823 76.2965 28.6893 76.4589 28.6343 76.5019C28.5793 76.5424 28.5098 76.4014 28.4908 76.2895C28.4743 76.187 28.4383 76.0985 28.4958 75.9001C28.5558 75.7021 28.6463 75.5826 28.7228 75.5441C28.7992 75.5037 28.9212 75.5396 28.9497 75.5941C28.9782 75.6491 28.9832 75.8096 28.8827 76.053ZM28.2044 75.7091C28.1879 75.8426 27.9969 76.11 27.9085 76.144C27.8435 76.17 27.779 76.1725 27.562 76.0025C27.3471 75.8336 27.2896 75.5681 27.3376 75.5272C27.3851 75.4867 27.4566 75.4487 27.631 75.4562C27.815 75.4627 27.9774 75.4917 28.0919 75.5396C28.2044 75.5846 28.2164 75.6041 28.2044 75.7091ZM31.1257 73.0312C31.2642 72.7903 31.3051 72.7518 31.2502 72.6183C31.1947 72.4774 31.0232 72.2909 30.9057 72.1735C30.7888 72.057 30.6788 72.0255 30.5618 71.9945C30.4449 71.971 30.4139 72.057 30.4069 72.0875C30.3999 72.1265 30.3684 72.3914 30.2204 72.8448C30.0794 73.2962 29.5396 74.4834 29.4391 74.6699C29.3461 74.8583 29.3056 74.8658 29.2196 74.9208C29.1432 74.9683 27.55 74.8823 26.7377 74.8418C25.9254 74.8113 25.7155 74.7658 25.4191 74.6869C25.1156 74.6009 25.1061 74.5694 25.0296 74.5454C24.9582 74.5314 24.8962 74.6794 24.8962 74.6794C24.8962 74.6794 24.9132 74.7343 24.9582 74.8518C25.0131 74.9593 25.2236 75.1472 25.2786 75.2552C25.3406 75.3652 25.4266 75.5227 25.467 75.5441C25.505 75.5681 25.646 75.4817 25.9589 75.4437C26.2693 75.4057 26.6923 75.4197 26.8477 75.4677C27.0032 75.5132 27.0127 75.5611 27.0032 75.6086C26.9887 75.6541 26.9407 75.6706 26.7232 75.967C26.5038 76.2635 26.4583 76.6309 26.4658 76.7079C26.4728 76.7863 26.5968 76.8173 26.6208 76.8243C26.6373 76.8338 26.7307 76.8243 26.9167 76.7789C27.0987 76.7244 27.3636 76.4974 27.4496 76.4589C27.5261 76.4114 27.715 76.4494 27.7695 76.4589C27.822 76.4659 27.894 76.4974 27.8865 76.5449C27.8865 76.5979 27.753 76.9108 27.6045 77.0828C27.4496 77.2542 26.9167 77.3162 25.7395 77.4407C24.5688 77.5672 23.8354 77.2237 23.7569 77.1922C23.671 77.1613 23.6635 77.0993 23.6565 77.0898C23.64 77.0828 23.592 77.1063 23.5535 77.1373C23.5225 77.1613 23.444 77.2857 23.5155 77.5367C23.592 77.7776 23.757 77.9496 23.8904 78.0116C24.0219 78.074 25.0846 78.16 25.7945 78.112C26.4968 78.0595 28.0254 77.5747 28.1209 77.5582C28.2139 77.5367 28.3074 77.5367 28.3309 77.5507C28.3454 77.5672 28.4408 77.9806 28.4623 78.363C28.4863 78.7519 28.4553 79.6577 28.4623 79.7056C28.4718 79.7526 28.6033 79.7981 28.6343 79.8151C28.6748 79.8296 28.7368 79.8391 28.8302 79.7981C28.9162 79.7676 29.1192 79.6122 29.1742 79.5642C29.2291 79.5192 29.2911 79.4547 29.3151 79.4017C29.3461 79.3472 29.4631 79.0413 29.7045 78.5274C29.953 78.0046 30.2584 77.5367 30.2729 77.4812C30.2969 77.4262 30.2584 77.3957 30.2204 77.2692C30.1799 77.1448 30.1799 77.0753 30.1559 77.0133C30.1344 76.9413 30.0869 77.0208 30.0794 77.0273C30.0794 77.0443 30.0794 77.0348 29.9695 77.2782C29.86 77.5197 29.5636 77.9951 29.4846 78.081C29.4156 78.167 29.2746 78.222 29.2366 78.136C29.1982 78.0595 29.1742 77.6676 29.2126 77.2377C29.2506 76.8103 29.5156 75.998 29.6016 75.7946C29.6875 75.5846 29.829 75.6541 29.9075 75.6611C29.9935 75.6611 30.2969 75.6851 30.3999 75.6396C30.4928 75.5921 30.5478 75.5536 30.5618 75.3722C30.5858 75.1927 30.3899 75.1927 30.3209 75.1927C30.2514 75.2027 30.039 75.1472 30.0075 75.0548C29.9695 74.9683 29.9865 74.9378 30.2824 74.3594C30.5788 73.7816 30.9777 73.2747 31.1257 73.0312Z" fill="white"/>
<path fill-rule="evenodd" clip-rule="evenodd" d="M24.9196 76.4978C24.9506 76.4198 25.099 76.4353 25.1695 76.4273C25.2395 76.4273 25.4195 76.3808 25.5829 76.2794C25.7549 76.1859 25.8174 76.0219 25.8719 76.0529C25.9189 76.0844 25.9344 76.3808 25.9264 76.6698C25.9264 76.9507 25.6454 76.9197 25.5754 76.9267C25.4975 76.9267 24.9276 76.9347 24.8571 76.8807C24.7871 76.8182 24.8961 76.5758 24.9196 76.4978Z" fill="white"/>
<path fill-rule="evenodd" clip-rule="evenodd" d="M27.5105 73.6332C27.518 73.5947 27.5495 73.5867 27.573 73.5792C27.596 73.5712 27.6745 73.6412 27.9085 73.6957C28.1349 73.7502 28.5563 73.7582 28.7203 73.7347C28.8842 73.7037 29.1027 73.6877 29.2741 73.7892C29.4461 73.8987 29.3601 74.2891 29.3056 74.398C29.2506 74.5075 29.0947 74.484 28.8607 74.492C28.6343 74.4995 28.2909 74.5465 28.1819 74.5465C28.0724 74.539 27.8695 74.4295 27.682 74.1801C27.4951 73.9302 27.4951 73.6642 27.5105 73.6332Z" fill="white"/>
<path fill-rule="evenodd" clip-rule="evenodd" d="M32.0922 75.1629C31.9203 75.6468 31.3819 75.5848 31.2569 75.5768C31.1244 75.5688 31.0854 75.5144 31.0854 75.4989C31.0854 75.4834 31.3194 75.1085 31.4209 74.859C31.5223 74.6011 31.4759 74.1487 31.4759 74.1487C31.4759 74.1487 31.6628 74.2187 31.7958 74.3041C31.9203 74.3981 32.2637 74.6791 32.0922 75.1629Z" fill="white"/>
<path fill-rule="evenodd" clip-rule="evenodd" d="M38.1018 79.3229C37.9379 79.4949 37.8519 79.8613 37.6414 80.5091C37.423 81.165 37.282 82.0078 37.2045 82.3352C37.126 82.6636 37.0326 82.9055 36.7671 82.8666C36.5097 82.8276 36.2753 82.3822 36.2443 82.2342C36.2133 82.0857 36.2987 81.9688 36.3927 81.8438C36.4782 81.7188 36.6422 81.2664 36.7671 80.884C36.8841 80.5091 36.8841 79.8693 36.9936 79.6113C37.0401 79.5024 37.22 79.1509 37.2665 78.8315C37.3135 78.5031 37.3605 78.1367 37.415 78.0742C37.454 78.0352 37.501 78.0117 37.5479 78.0117C37.6019 78.0117 37.6804 78.0507 37.7819 78.1837C37.8914 78.3156 37.9379 78.4486 37.9923 78.5736C38.0473 78.7065 38.0863 78.792 38.1798 78.8C38.2733 78.8155 38.3358 78.7295 38.3438 78.7295C38.3593 78.7295 38.4142 78.769 38.4142 78.886C38.4142 79.0105 38.2733 79.1434 38.1018 79.3229Z" fill="white"/>
<path fill-rule="evenodd" clip-rule="evenodd" d="M37.6339 75.6156C37.6649 75.5536 37.7509 75.4206 37.8294 75.4366C37.9149 75.4596 38.0318 75.7486 38.1258 76.014C38.2353 76.3104 38.2663 76.6228 38.1728 76.8178C38.0868 77.0128 37.8759 77.1612 37.7669 77.3332C37.6574 77.5126 37.6494 77.5986 37.5634 77.6451C37.486 77.6996 37.431 77.7231 37.4075 77.6841C37.384 77.6526 37.4155 77.0362 37.4545 76.8178C37.509 76.5604 37.6184 76.4274 37.6184 76.1545C37.6184 75.881 37.6104 75.6781 37.6339 75.6156Z" fill="white"/>
<path fill-rule="evenodd" clip-rule="evenodd" d="M41.4277 82.6167C41.3182 82.6322 40.9828 82.4372 40.8813 82.4057C40.7798 82.3822 40.7173 82.3587 40.7328 82.3197C40.7408 82.2893 40.7878 82.2268 40.8813 82.1563C40.9748 82.0858 41.0762 81.9688 41.0922 81.8754C41.1152 81.7894 40.9513 81.5239 40.9358 81.4305C40.9283 81.3365 40.9673 81.1885 40.9748 81.1725C40.9828 81.149 40.9983 81.1335 41.0762 81.1415C41.1547 81.1415 41.2322 81.204 41.3732 81.329C41.5211 81.4615 41.5836 81.7424 41.6931 81.9298C41.8026 82.1173 41.8416 82.0938 41.8336 82.2343C41.8181 82.3667 41.5371 82.6012 41.4277 82.6167Z" fill="white"/>
<path fill-rule="evenodd" clip-rule="evenodd" d="M40.4744 79.037C40.4005 79.0845 40.2355 79.123 40.152 79.063C40.0685 79.006 40.09 78.9365 40.09 78.9365C40.1115 78.8215 40.3215 78.7166 40.439 78.7955C40.5559 78.8745 40.5464 78.9865 40.4744 79.037ZM39.9561 79.6623C39.7481 79.6603 39.7436 79.5934 39.7316 79.5549C39.7196 79.5194 39.7676 79.4019 39.8846 79.3639C40.0016 79.3259 40.0995 79.3519 40.1445 79.3784C40.1905 79.4019 40.312 79.5119 40.312 79.5119C40.312 79.5119 40.164 79.6648 39.9561 79.6623ZM39.8461 77.8878C39.8966 77.8233 39.9826 77.7848 40.126 77.7828C40.269 77.7778 40.3695 77.7993 40.41 77.9168C40.453 78.0332 40.3955 78.0977 40.176 78.1122C39.9561 78.1267 39.7961 77.9522 39.8461 77.8878ZM42.168 76.2876C42.364 76.0532 42.402 75.8642 42.3785 75.7333C42.357 75.5993 42.261 75.4823 42.1226 75.3964C41.9721 75.3104 41.7931 75.4513 41.7861 75.4993C41.7621 75.5688 41.7861 75.6163 41.7381 75.8577C41.6927 76.1087 41.5997 76.2157 41.3797 76.2946C41.1528 76.3806 41.0143 75.9672 40.9498 75.9052C40.8974 75.8427 40.8639 75.9817 40.8569 76.0912C40.8424 76.2087 40.8804 76.684 40.7944 76.708C40.7154 76.732 40.5439 76.3876 40.4435 76.3111C40.405 76.2876 40.343 76.3186 40.2785 76.3876C40.2165 76.4596 40.2165 76.5836 40.1925 76.779C40.1785 76.973 40.1615 77.0275 39.9441 77.2379C39.7341 77.4504 38.8668 77.6608 38.8288 77.6748C38.8118 77.6848 38.7979 77.6988 38.7979 77.7158C38.7979 77.7393 38.8118 77.8018 38.9148 77.9188C39.0153 78.0357 39.1868 78.1217 39.3112 78.1432C39.4447 78.1672 39.5307 78.1842 39.5862 78.3157C39.6387 78.4561 39.5932 78.824 39.5762 78.996C39.5622 79.175 39.4042 79.3304 39.1868 79.4854C38.9673 79.6433 38.8808 79.8463 38.8808 79.9948C38.8738 80.1502 39.2347 80.3147 39.4137 80.2837C39.5862 80.2527 39.7721 80.0947 39.8201 80.0567C39.8651 80.0088 39.9371 79.9948 39.9681 80.0188C39.9991 80.0402 40.085 80.1502 40.0995 80.3217C40.1065 80.4936 39.8341 80.6726 39.7171 80.7281C39.6002 80.7826 39.4757 80.7521 39.4042 80.7346C39.3352 80.7281 39.3182 80.7586 39.3042 80.7901C39.2967 80.8211 39.3352 80.914 39.4042 80.969C39.4687 81.031 39.7411 80.993 39.7791 81.0245C39.8101 81.048 39.8821 81.141 39.8651 81.3299C39.8581 81.5164 39.4902 81.7883 39.3662 81.9533C39.2347 82.1088 39.4592 82.1182 39.5862 82.0703C39.7171 82.0153 40.0136 81.8363 40.226 81.6094C40.4435 81.3919 40.5844 80.914 40.5844 80.914C40.5844 80.914 40.7874 80.945 41.0143 80.931C41.2318 80.907 41.4422 80.7971 41.6857 80.6276C41.9341 80.4456 42.1131 80.2597 42.1371 80.1907C42.161 80.1262 42.0991 80.0328 41.9101 79.9563C41.7312 79.8778 41.5042 79.8538 41.3727 79.8538C41.2318 79.8463 41.2553 80.0328 41.2318 80.1427C41.2148 80.2432 41.1148 80.3597 40.8973 80.4316C40.6774 80.5011 40.7469 80.2597 40.8114 80.1807C40.8879 80.0807 41.0213 79.9468 41.2698 79.6433C41.5137 79.3304 41.4967 79.1585 41.4347 79.0345C41.3727 78.91 41.3103 78.6591 41.3557 78.5971C41.4037 78.5276 41.4422 78.5426 41.6762 78.3941C41.9101 78.2462 41.9101 78.1432 41.8241 77.9257C41.7476 77.7063 41.3008 77.6608 41.2148 77.5678C41.1388 77.4719 41.1838 77.2694 41.2793 77.0755C41.3727 76.8725 41.9651 76.5141 42.168 76.2876Z" fill="white"/>
<path fill-rule="evenodd" clip-rule="evenodd" d="M52.4009 80.2458C52.0839 80.3143 51.887 80.1688 51.87 80.0828C51.853 79.9884 51.8185 79.8859 51.733 79.8259C51.639 79.7574 51.3561 79.7404 51.2361 79.7319C51.1167 79.7234 51.0992 79.8519 51.0652 79.9544C51.0392 80.0573 50.6028 80.7937 50.4483 80.9736C50.2944 81.1616 50.0204 81.1531 49.892 81.0076C49.7635 80.8707 49.8495 80.6822 50.1489 80.3483C50.4573 80.0144 50.6798 79.535 50.6798 79.432C50.6798 79.3295 50.6368 79.1841 50.6113 79.1751C50.5858 79.1581 50.5428 79.1751 50.4658 79.218C50.3803 79.2525 50.1659 79.432 50.0804 79.535C49.986 79.6374 49.875 79.7234 49.7895 79.7574C49.6951 79.7919 49.6011 79.7829 49.5411 79.7319C49.4811 79.6894 49.3871 79.595 49.3356 79.518C49.2842 79.432 49.3012 79.338 49.3871 79.201C49.4641 79.0726 49.6611 79.0811 49.6951 79.0811C49.7381 79.0896 49.8405 79.0726 50.0889 78.9696C50.3284 78.8756 50.4058 78.8241 50.4573 78.7732C50.4998 78.7302 50.5773 78.6187 50.6368 78.4132C50.6968 78.2163 50.6028 77.8224 50.5343 77.6339C50.4743 77.4545 50.3199 77.3345 50.2859 77.2915C50.2519 77.257 50.2689 77.2145 50.2689 77.0946C50.2689 76.9836 50.2434 76.8891 50.2349 76.8206C50.2259 76.7521 50.3374 76.6926 50.3973 76.6836C50.4573 76.6751 50.6198 76.7691 50.6713 76.8121C50.7228 76.8461 50.7912 76.8206 50.8597 76.8036C50.9282 76.7951 50.9882 76.8291 51.1167 76.9061C51.2446 76.9836 51.2621 77.0516 51.2621 77.129C51.2536 77.206 51.0992 77.5139 51.1082 77.5909C51.1252 77.6769 51.2276 77.9768 51.2706 77.9853C51.3221 77.9938 51.3306 77.8909 51.3906 77.8309C51.4421 77.7624 51.6215 77.7114 51.81 77.7539C51.9985 77.8054 52.0669 77.9248 52.0669 78.0023C52.0754 78.0793 52.0155 78.1908 51.733 78.4302C51.4506 78.6787 51.3221 78.7811 51.2621 78.9441C51.2021 79.1071 51.2621 79.201 51.3816 79.2865C51.5101 79.3635 51.8955 79.278 52.0499 79.244C52.2124 79.201 52.4349 79.2865 52.6318 79.441C52.8288 79.595 52.8633 79.8774 52.8548 79.9634C52.8548 80.0403 52.7178 80.1688 52.4009 80.2458Z" fill="white"/>
<path fill-rule="evenodd" clip-rule="evenodd" d="M74.8362 60.3947V48.1166C78.0299 46.564 78.3403 40.4134 78.5528 39.7251C78.2714 39.8976 75.9849 42.372 73.1356 42.403H14.8615C12.0122 42.372 9.72623 39.8976 9.4443 39.7251C9.65675 40.4134 9.96718 46.564 13.1609 48.1166V60.3947H8.75146L14.3146 65.9743H73.6825L79.2456 60.3947H74.8362Z" fill="white"/>
<path fill-rule="evenodd" clip-rule="evenodd" d="M44.0007 3.05994C21.4261 3.05994 3.06044 21.4256 3.06044 44.0002C3.06044 66.5748 21.4261 84.9404 44.0007 84.9404C66.575 84.9404 84.9406 66.5748 84.9406 44.0002C84.9406 21.4256 66.575 3.05994 44.0007 3.05994ZM44.0007 86.1352C20.7672 86.1352 1.86572 67.2332 1.86572 44.0002C1.86572 20.7672 20.7672 1.86572 44.0007 1.86572C67.2339 1.86572 86.1354 20.7672 86.1354 44.0002C86.1354 67.2332 67.2339 86.1352 44.0007 86.1352Z" fill="white"/>
<path fill-rule="evenodd" clip-rule="evenodd" d="M63.4564 41.1943C63.7533 40.8469 64.0503 40.471 64.3252 40.1011H23.6748C23.9497 40.471 24.2467 40.8469 24.5491 41.1943H63.4564Z" fill="#002554"/>
<path fill-rule="evenodd" clip-rule="evenodd" d="M43.0576 23.9455H43.3485C43.0926 24.3729 42.7771 25.931 43.371 27.2377H43.372C43.3005 27.2377 43.2425 27.2962 43.2425 27.3672C43.2425 27.4382 43.3005 27.4967 43.372 27.4967H43.564L43.5645 27.4972H44.4867L44.4872 27.4967H44.6297C44.7007 27.4967 44.7592 27.4382 44.7592 27.3672C44.7592 27.2962 44.7007 27.2377 44.6297 27.2377C45.2241 25.931 44.9091 24.3729 44.6532 23.9455H44.9441C45.0356 23.9455 45.1101 23.871 45.1101 23.7791C45.1101 23.6876 45.0356 23.6126 44.9441 23.6126H44.9256V23.5756C44.9256 23.3327 44.7562 23.1282 44.5297 23.0732C44.6022 23.0067 44.6482 22.9118 44.6482 22.8063V22.6863C44.7107 22.6773 44.7592 22.6233 44.7592 22.5583C44.7592 22.4874 44.7007 22.4289 44.6297 22.4289H44.5002V22.4059C44.5002 22.2584 44.3838 22.136 44.2383 22.127H43.7634C43.6179 22.136 43.5015 22.2584 43.5015 22.4059V22.4289H43.372C43.3005 22.4289 43.2425 22.4874 43.2425 22.5583C43.2425 22.6228 43.29 22.6763 43.3515 22.6863L43.3535 22.7508V22.8063C43.3535 22.9118 43.3995 23.0067 43.472 23.0732C43.2455 23.1282 43.0761 23.3327 43.0761 23.5756V23.6126H43.0576C42.9661 23.6126 42.8911 23.6876 42.8911 23.7791C42.8911 23.871 42.9661 23.9455 43.0576 23.9455Z" fill="#002554"/>
<path fill-rule="evenodd" clip-rule="evenodd" d="M42.6313 37.9245H45.3787V36.9478H42.6313V37.9245Z" fill="#002554"/>
<path fill-rule="evenodd" clip-rule="evenodd" d="M34.7381 37.2136V38.291L32.6855 39.2898V38.205L34.7381 37.2136Z" fill="#002554"/>
<path fill-rule="evenodd" clip-rule="evenodd" d="M53.2632 37.2136V38.291L55.3157 39.2898V38.205L53.2632 37.2136Z" fill="#002554"/>
<path fill-rule="evenodd" clip-rule="evenodd" d="M46.147 37.9245H48.8943V36.9478H46.147V37.9245Z" fill="#002554"/>
<path fill-rule="evenodd" clip-rule="evenodd" d="M49.6675 37.9245H52.4148V36.9478H49.6675V37.9245Z" fill="#002554"/>
<path fill-rule="evenodd" clip-rule="evenodd" d="M35.5859 37.9245H38.3328V36.9478H35.5859V37.9245Z" fill="#002554"/>
<path fill-rule="evenodd" clip-rule="evenodd" d="M39.1064 37.9245H41.8533V36.9478H39.1064V37.9245Z" fill="#002554"/>
<path fill-rule="evenodd" clip-rule="evenodd" d="M14.8176 64.8604H73.1836L74.5813 63.4607H13.4199L14.8176 64.8604Z" fill="#002554"/>
<path fill-rule="evenodd" clip-rule="evenodd" d="M13.0348 63.0831H74.9657L76.3578 61.6895H11.6421L13.0348 63.0831Z" fill="#002554"/>
<path fill-rule="evenodd" clip-rule="evenodd" d="M30.0381 59.5584H57.9625L57.7436 58.9026H30.257L30.0381 59.5584Z" fill="#002554"/>
<path fill-rule="evenodd" clip-rule="evenodd" d="M29.6299 60.7891H58.3726L58.1531 60.1333H29.8488L29.6299 60.7891Z" fill="#002554"/>
<path fill-rule="evenodd" clip-rule="evenodd" d="M30.6722 57.6719L30.4468 58.3277H57.5537L57.3282 57.6719H30.6722Z" fill="#002554"/>
<path fill-rule="evenodd" clip-rule="evenodd" d="M29.977 42.651V42.0232H28.4858V43.0714C29.0407 42.9985 29.5396 42.847 29.977 42.651Z" fill="#002554"/>
<path fill-rule="evenodd" clip-rule="evenodd" d="M26.306 42.78C26.6479 42.9985 27.0513 43.0939 27.5052 43.1164V42.0232H26.02V42.5836C26.1155 42.6565 26.2105 42.718 26.306 42.78Z" fill="#002554"/>
<path fill-rule="evenodd" clip-rule="evenodd" d="M61.7293 42.78C61.8133 42.7295 61.8973 42.6675 61.9817 42.6061V42.0232H60.4961V43.1164C60.9615 43.0994 61.3764 43.004 61.7293 42.78Z" fill="#002554"/>
<path fill-rule="evenodd" clip-rule="evenodd" d="M59.5144 43.0659V42.0232H58.0293V42.64C58.4607 42.836 58.9596 42.993 59.5144 43.0659Z" fill="#002554"/>
<path fill-rule="evenodd" clip-rule="evenodd" d="M14.533 46.788H73.4668C75.2669 46.788 76.3621 43.3148 76.3621 43.3148C76.3621 43.3148 73.5218 45.0239 71.3468 43.6512C69.1719 42.2786 66.8014 38.0701 66.8014 38.0701C66.8014 38.0701 64.431 42.2786 62.2555 43.6517C60.081 45.0244 57.2407 43.3153 57.2407 43.3153C57.2407 43.3153 57.6291 44.677 58.3919 45.6953H57.1297C56.9613 45.3593 56.7463 44.804 56.6119 44.4395C56.2979 43.5933 56.074 42.7245 55.917 42.0236H55.5751V45.6953H54.6213V42.0211H53.1472V45.6953H52.1489V42.0211H50.6748V45.6953H49.6766V42.0211H48.2025V45.6953H47.2042V42.0211H45.7301V45.6953H44.7398V42.0211H43.2502V45.6953H42.2599V42.0211H40.7857V45.6953H39.7875V42.0211H38.3133V45.6953H37.3151V42.0211H35.8409V45.6953H34.8427V42.0211H33.3685V45.6953H32.4197V42.0236H32.0778C31.9209 42.7245 31.6969 43.5933 31.383 44.4395C31.248 44.804 31.0756 45.3593 30.9076 45.6953H29.6499C30.4127 44.677 30.7586 43.3153 30.7586 43.3153C30.7586 43.3153 27.9188 45.0244 25.7438 43.6517C23.5688 42.2786 21.1984 38.0701 21.1984 38.0701C21.1984 38.0701 18.828 42.2786 16.653 43.6512C14.4775 45.0239 11.6377 43.3148 11.6377 43.3148C11.6377 43.3148 12.7324 46.788 14.533 46.788Z" fill="#002554"/>
<path fill-rule="evenodd" clip-rule="evenodd" d="M31.054 37.6353L34.8721 35.7813H53.1287L56.9468 37.6353C59.8801 37.1764 60.9348 33.8027 60.9348 33.8027C58.9108 35.9342 54.3744 35.2289 55.1402 33.1134C55.8081 31.3798 55.4816 30.2496 55.4816 30.2496C54.5929 31.8642 53.0597 32.3726 52.0575 32.4011C50.8832 32.4351 49.982 31.7192 49.982 31.7192V29.7082L50.5068 29.3368V27.4797H48.8702V28.3515H45.0076V27.9191H42.9571V28.3515H39.1036V27.4797H37.4939V29.3368L38.0188 29.7082V31.7192C38.0188 31.7192 37.1175 32.4351 35.9433 32.4011C34.941 32.3726 33.4074 31.8642 32.5191 30.2496C32.5191 30.2496 32.1932 31.3798 32.8605 33.1134C33.6264 35.2289 29.0899 35.9342 27.0654 33.8027C27.0654 33.8027 28.1212 37.1764 31.054 37.6353Z" fill="#002554"/>
<path fill-rule="evenodd" clip-rule="evenodd" d="M25.3152 52.621H23.2392V50.545H25.3152V52.621ZM22.2555 52.621H20.1795V50.545H22.2555V52.621ZM19.2037 52.621H17.1277V50.545H19.2037V52.621ZM14.5913 60.7925H27.8441V47.9536H14.5913V60.7925Z" fill="#002554"/>
<path fill-rule="evenodd" clip-rule="evenodd" d="M70.8812 52.621H68.8052V50.545H70.8812V52.621ZM67.8214 52.621H65.7454V50.545H67.8214V52.621ZM64.7621 52.621H62.6861V50.545H64.7621V52.621ZM60.1572 60.7925H73.4101V47.9536H60.1572V60.7925Z" fill="#002554"/>
<path fill-rule="evenodd" clip-rule="evenodd" d="M57.3507 56.1095H56.5624V50.5139H57.3507V56.1095ZM55.8756 49.7955H50.7943V49.0072H55.8756V49.7955ZM55.8756 56.094H50.7943V51.1537L51.7936 50.5139H54.8298L55.8756 51.1847V56.094ZM50.1075 49.78H49.3114V48.9837H50.1075V49.78ZM50.1075 56.094H49.3114V50.5139H50.1075V56.094ZM48.625 49.7955L44.9719 49.7875V48.9992L48.625 49.0072V49.7955ZM48.625 56.1095H46.5565V51.973H41.4832V56.1095H39.4307V51.1927L40.469 50.5139H47.4853L48.625 51.1927V56.1095ZM46.2056 56.1095H45.8622V52.6289H42.217V56.1095H41.8736V52.3709H46.2056V56.1095ZM38.7124 49.7955H37.9396V49.0072H38.7124V49.7955ZM38.7124 56.1095H37.9396V50.5139H38.7124V56.1095ZM37.2452 49.7955H32.1644V49.0072H37.2452V49.7955ZM37.2452 56.094H32.1644V51.2007L33.2102 50.5139H36.2695L37.2452 51.2007V56.094ZM31.4461 56.1095H30.6733V50.5059H31.4461V56.1095ZM39.4852 49.0072H43.0209V49.7955H39.4852V49.0072ZM44.9719 47.9145V47.2437L43.0209 47.2512V47.9145H29.5966L29.5806 56.9758H58.404L58.42 47.9145H44.9719Z" fill="#002554"/>
<path fill-rule="evenodd" clip-rule="evenodd" d="M10.0327 28.1707L9.55735 28.0093L8.921 29.8838L9.39689 30.0453L9.72531 29.4089L12.6891 31.3775L9.08746 31.273L9.24242 30.5052L8.76504 30.3432L8.01522 32.5537L8.4931 32.7157L8.61857 32.4547C8.72755 32.2288 9.01498 32.1573 9.21693 32.3058L11.7138 34.1423L8.19517 33.8769L8.33564 33.176L7.85825 33.0141L7.10693 35.2291L7.58532 35.391L7.6863 35.1796C7.80377 34.9351 8.05621 34.7852 8.32714 34.8012L13.2595 35.0841L13.4104 34.6397L9.93676 32.1608L14.2277 32.2323L14.3807 31.7814L9.91226 28.8501L10.0327 28.1707Z" fill="white"/>
<path fill-rule="evenodd" clip-rule="evenodd" d="M15.7937 24.1226L13.4323 22.6759L13.7102 22.0386L13.2808 21.7756L12.1936 23.5497L12.6225 23.8126L12.8484 23.5387C13.0179 23.3328 13.3128 23.2833 13.5403 23.4227L15.3173 24.511C15.9187 24.8799 16.2826 25.2273 16.4291 25.5742C16.5651 25.8947 16.5206 26.2201 16.2891 26.598C15.9912 27.0844 15.4763 27.5378 14.1331 26.715L13.5758 26.373C13.0919 26.0771 12.461 25.6882 11.8337 25.2883L12.1741 24.5485L11.7432 24.2845L10.479 26.348L10.9094 26.6115L11.0284 26.461C11.1943 26.2511 11.4908 26.1961 11.7207 26.333C12.2246 26.633 12.705 26.9259 13.0919 27.1633L13.8557 27.6312C14.3701 27.9462 14.8525 28.1026 15.2899 28.1026C15.9282 28.1026 16.4706 27.7687 16.8755 27.1089C17.1909 26.5935 17.2759 26.0856 17.1279 25.5987C16.964 25.0614 16.5151 24.5645 15.7937 24.1226Z" fill="white"/>
<path fill-rule="evenodd" clip-rule="evenodd" d="M21.6106 20.038C21.0532 19.5391 20.5049 19.0328 20.0855 18.6438L19.786 18.3659C19.3641 17.9745 18.8163 17.4636 18.2819 16.9493L18.7143 16.3549L18.3444 16.0115L16.7018 17.7821L17.0717 18.1255L17.2751 17.953C17.4791 17.7796 17.7805 17.7846 17.9795 17.9645C18.3714 18.3189 18.7428 18.6618 19.0502 18.9468L17.4251 20.6989C16.8612 20.1745 16.4243 19.7631 16.0264 19.3802L16.4578 18.7868L16.0879 18.4439L14.4453 20.2145L14.8152 20.5579L15.0197 20.3839C15.2241 20.211 15.5256 20.2155 15.724 20.3954C16.1574 20.7878 16.5698 21.1682 16.9012 21.4757L17.2007 21.7541C17.5526 22.081 17.954 22.4544 18.3654 22.8458C18.5593 23.0308 18.5878 23.3312 18.4299 23.5477L18.2724 23.7651L18.6423 24.1085L20.2849 22.338L19.9145 21.9945L19.3541 22.4704C18.8728 22.0395 18.3804 21.5846 17.8385 21.0823L19.4636 19.3302C19.8775 19.7141 20.2604 20.071 20.6223 20.4139C20.8173 20.5989 20.8443 20.8988 20.6863 21.1158L20.5284 21.3327L20.8988 21.6761L22.5414 19.9055L22.1715 19.5621L21.6106 20.038Z" fill="white"/>
<path fill-rule="evenodd" clip-rule="evenodd" d="M24.2828 15.651L23.1905 16.4433L22.5127 14.3523L24.2828 15.651ZM26.2243 15.9489L22.1543 12.9956L21.6494 13.362L23.305 18.5313L22.8121 19.0217L23.1071 19.4281L24.7222 18.2559L24.4268 17.8489L23.7604 18.2004L23.3735 17.0071L24.7602 16.0009L25.7804 16.7497L25.2271 17.2671L25.5225 17.675L27.414 16.3023L27.1181 15.8949L26.9382 15.9939C26.7117 16.1184 26.4338 16.1009 26.2243 15.9489Z" fill="white"/>
<path fill-rule="evenodd" clip-rule="evenodd" d="M30.6362 8.93314L30.4223 8.47925L28.5292 9.37153L28.7442 9.82743L29.1571 9.69446C29.3805 9.62198 29.623 9.72745 29.7234 9.9399L30.9591 12.5628L26.8166 10.1788L25.5869 10.7587L25.8019 11.2151L25.8993 11.1906C26.2088 11.1131 26.5297 11.2656 26.6657 11.554L28.3453 15.1192L27.7779 15.4976L27.9918 15.9525L29.8854 15.0597L29.6704 14.6043L28.8646 14.8592L27.308 11.556L31.9024 14.1704L32.2753 13.9944L30.0708 9.31655L30.6362 8.93314Z" fill="white"/>
<path fill-rule="evenodd" clip-rule="evenodd" d="M45.8036 6.58331L46.1746 6.6428C46.4395 6.68579 46.6314 6.91823 46.6235 7.18667L46.5375 10.026L43.9261 6.02245L42.5669 5.98096L42.5519 6.48534L42.6499 6.50783C42.9608 6.57931 43.1778 6.86025 43.1683 7.17867L43.0483 11.1182L42.3705 11.1987L42.3555 11.7006L44.4475 11.7641L44.4625 11.2607L43.6287 11.1222L43.7396 7.4721L46.6489 11.8865L47.0608 11.899L47.2178 6.72978L47.8956 6.6448L47.9106 6.14342L45.8186 6.07993L45.8036 6.58331Z" fill="white"/>
<path fill-rule="evenodd" clip-rule="evenodd" d="M49.6514 6.94731L50.076 7.07928C50.2349 7.12877 50.3339 7.28923 50.3059 7.45369C50.2004 8.07704 50.0909 8.6789 49.995 9.20027L49.9208 9.60168C49.8273 10.1086 49.7183 10.6904 49.5999 11.2873C49.5609 11.4837 49.3819 11.6207 49.182 11.6082L48.7971 11.5837L48.7051 12.0801L51.0842 12.519L51.1752 12.0226L50.8068 11.9081C50.6148 11.8481 50.4968 11.6557 50.5308 11.4577C50.6363 10.8384 50.7448 10.2425 50.8318 9.76964L50.9058 9.36823C51.0022 8.84486 51.1147 8.242 51.2377 7.62565C51.2702 7.46169 51.4196 7.34771 51.5866 7.35821L52.03 7.3862L52.1215 6.88982L49.7428 6.45093L49.6514 6.94731Z" fill="white"/>
<path fill-rule="evenodd" clip-rule="evenodd" d="M58.7065 9.43581L58.87 8.95993L56.9749 8.30858L56.798 8.82296L57.4088 9.10989L55.1259 12.1487L55.1518 8.32758L55.8622 8.50254L56.0391 7.98716L53.8222 7.22534L53.6582 7.70273L53.8547 7.7977C54.0831 7.90768 54.2291 8.13812 54.2316 8.39156L54.2861 13.4963L54.7304 13.6493L58.0022 9.30035L58.7065 9.43581Z" fill="white"/>
<path fill-rule="evenodd" clip-rule="evenodd" d="M60.7081 15.7283L59.4779 15.044C59.7838 14.4686 60.1057 13.8872 60.4602 13.2494L61.091 13.5998C61.2375 13.6813 61.301 13.8587 61.239 14.0147L61.057 14.4726L61.5194 14.7295L62.5552 12.867L62.0933 12.6105L61.7913 13.0134C61.6914 13.1469 61.5079 13.1864 61.3619 13.1049L60.7346 12.7565C61.001 12.2781 61.3384 11.6753 61.6844 11.0799L62.7741 11.6863C63.0025 11.8127 63.1055 12.0862 63.018 12.3321L62.8106 12.9135L63.3555 13.2164L64.1028 11.7447L60.4986 9.74072L60.2527 10.1816L60.4707 10.3396C60.6876 10.4965 60.7546 10.7905 60.6276 11.0259C60.3502 11.5403 60.0782 12.0312 59.8583 12.4266L59.6598 12.783C59.4389 13.1804 59.1645 13.6713 58.876 14.1762C58.7431 14.4081 58.4581 14.5061 58.2102 14.4051L57.9612 14.3031L57.7163 14.744L61.4589 16.825L62.3152 15.4139L61.7703 15.1109L61.3854 15.5943C61.223 15.7983 60.9365 15.8553 60.7081 15.7283Z" fill="white"/>
<path fill-rule="evenodd" clip-rule="evenodd" d="M66.0164 16.3608L65.606 16.0289C66.0619 15.4655 66.4777 14.9526 66.8991 14.4507L67.3645 14.8272C67.657 15.0626 67.8209 15.3045 67.8529 15.545C67.8839 15.7774 67.7974 16.0154 67.589 16.2733C67.1671 16.7952 66.5937 16.8277 66.0164 16.3608ZM68.3388 16.8727C68.6397 16.5008 68.7417 16.0754 68.6332 15.6435C68.5273 15.2206 68.2183 14.7922 67.739 14.4048L65.9429 12.9541L65.6255 13.3465L65.8129 13.539C66.0004 13.7309 66.0154 14.0323 65.8494 14.2433C65.4965 14.6912 65.1536 15.1171 64.8521 15.49L64.5952 15.8079C64.2338 16.2553 63.7614 16.8367 63.2845 17.405L62.6617 17.0136L62.3442 17.4065L64.2253 18.9262L64.5427 18.5338L64.0268 18.0039C64.4232 17.495 64.8351 16.9831 65.257 16.4608L65.4925 16.6507C65.9734 17.0391 66.0948 17.2776 65.8204 17.8429L65.2305 19.0746C65.0386 19.4755 65.1306 19.767 65.5585 20.1124C65.7409 20.2599 65.9159 20.3638 66.0943 20.4303L66.1538 20.4528L66.4558 20.0794L66.2643 19.8819C66.1128 19.7265 66.0708 19.4955 66.1573 19.2971L66.4977 18.5133C66.7182 18.0044 66.7477 17.6145 66.5832 17.2671C67.2656 17.532 67.9194 17.392 68.3388 16.8727Z" fill="white"/>
<path fill-rule="evenodd" clip-rule="evenodd" d="M70.5642 20.4408L70.4497 20.1219C70.2348 19.5255 70.2833 19.1451 70.6122 18.8502C70.8086 18.6747 71.0336 18.6002 71.2635 18.6362C71.4855 18.6702 71.7049 18.8032 71.8984 19.0186C71.9004 19.0211 71.9024 19.0231 71.9044 19.0251C72.1123 19.2601 72.1073 19.616 71.9139 19.8624L71.5685 20.3023L72.0014 20.7857L72.9411 20.0169L72.9381 19.9714C72.9011 19.4765 72.7107 19.0331 72.3713 18.6542C72.0219 18.2633 71.592 18.0129 71.1616 17.9484C70.7042 17.8794 70.2708 18.0154 69.9084 18.3403C69.3185 18.8687 69.206 19.577 69.5549 20.5703L69.6634 20.8812C69.9204 21.6055 69.8964 21.9175 69.5614 22.2179C69.3495 22.4073 69.1141 22.4803 68.8606 22.4373C68.6092 22.3943 68.3532 22.2334 68.1203 21.9734C68.0573 21.9035 68.0043 21.8365 67.9588 21.769C67.7964 21.53 67.8194 21.2111 68.0013 20.9867L68.3932 20.5023L67.9588 20.0169L66.9556 20.8447L66.9631 20.8942C67.0385 21.3976 67.3175 21.9699 67.6914 22.3873C68.0713 22.8112 68.5112 23.0727 68.9636 23.1432C69.0451 23.1557 69.1261 23.1622 69.2055 23.1622C69.5849 23.1622 69.9419 23.0197 70.2508 22.7433C70.8621 22.1954 70.9531 21.5285 70.5642 20.4408Z" fill="white"/>
<path fill-rule="evenodd" clip-rule="evenodd" d="M72.8448 24.4654L73.1807 24.2335C73.6176 23.9316 74.1225 23.5846 74.6464 23.2337C74.7853 23.1407 74.9718 23.1652 75.0828 23.2902L75.3772 23.6231L75.7926 23.3367L74.4169 21.3472L74.0015 21.6336L74.209 22.0265C74.2869 22.1745 74.2435 22.3574 74.107 22.4549C73.5761 22.8328 73.0607 23.1902 72.6538 23.4712L72.3179 23.7036C71.9195 23.9785 71.4191 24.323 70.9013 24.6704C70.7343 24.7818 70.5103 24.7534 70.3774 24.6029L70.1219 24.314L69.7065 24.6009L71.0817 26.5904L71.4971 26.3035L71.3167 25.9621C71.2232 25.7846 71.2757 25.5647 71.4391 25.4482C71.952 25.0833 72.4494 24.7384 72.8448 24.4654Z" fill="white"/>
<path fill-rule="evenodd" clip-rule="evenodd" d="M75.2491 28.6504L75.6136 28.467C76.1629 28.1915 76.8088 27.8691 77.4651 27.5547L77.7326 28.0881C77.8495 28.3205 77.781 28.6039 77.5716 28.7579L77.0672 29.1288L77.3466 29.6857L78.7958 28.8814L76.7668 24.8398L75.2556 25.5212L75.5356 26.0785L76.1344 25.8956C76.3834 25.8191 76.6508 25.9336 76.7678 26.1665L77.0352 26.6994C76.3834 27.0423 75.7425 27.3662 75.1977 27.6397L74.8327 27.8226C74.3214 28.0796 73.653 28.413 72.9837 28.7344L72.5393 28.0511L72.0874 28.2775L73.2441 30.581L73.696 30.3545L73.4126 29.5897C74.0634 29.2478 74.7048 28.9239 75.2491 28.6504Z" fill="white"/>
<path fill-rule="evenodd" clip-rule="evenodd" d="M80.3166 33.3333L79.8352 33.4793L79.9382 34.1511L77.5317 33.8312L79.3713 32.2505L79.6607 32.9099L80.1441 32.7639L79.4433 30.449L78.9599 30.5949L79.0104 30.8809C79.0504 31.1073 78.9714 31.3388 78.8004 31.4927L77.0104 33.1078C76.7899 33.3068 76.527 33.4548 76.2425 33.5397C75.9346 33.6317 75.6607 33.7132 75.4022 33.7877C75.2403 33.8342 75.0698 33.7527 75.0033 33.5982L74.7969 33.1153L74.3125 33.2618L75.0593 35.7287L75.5432 35.5822L75.3942 34.7769C75.9006 34.6135 76.453 34.445 76.9784 34.2856L80.0936 34.7245L80.413 35.3853L80.8934 35.2398L80.3166 33.3333Z" fill="white"/>
<path fill-rule="evenodd" clip-rule="evenodd" d="M40.4411 9.53994L39.9892 6.80759L40.653 6.60064L40.5705 6.10376L38.5175 6.44318L38.5995 6.93956L38.9549 6.93106C39.2213 6.92406 39.4518 7.11452 39.4953 7.37746L39.8357 9.43396C39.9507 10.1298 39.9257 10.6327 39.7597 10.9706C39.6063 11.283 39.3308 11.462 38.8939 11.5345C38.3306 11.6274 37.6512 11.5355 37.3943 9.98133L37.2878 9.33599C37.1948 8.77612 37.0759 8.0448 36.9679 7.30897L37.7502 7.08203L37.6677 6.58365L35.2798 6.97805L35.3623 7.47643L35.5542 7.46743C35.8217 7.45544 36.0566 7.64389 36.1041 7.90733C36.2071 8.48469 36.3 9.03956 36.374 9.48695L36.52 10.3707C36.6185 10.9661 36.8159 11.4335 37.1024 11.7639C37.5203 12.2468 38.1276 12.4382 38.8909 12.3118C39.4878 12.2138 39.9272 11.9454 40.1981 11.515C40.4975 11.0391 40.579 10.3747 40.4411 9.53994Z" fill="white"/>
</svg>
