<?xml version="1.0" encoding="UTF-8" standalone="no"?>
<!DOCTYPE svg PUBLIC "-//W3C//DTD SVG 1.1//EN" "http://www.w3.org/Graphics/SVG/1.1/DTD/svg11.dtd">
<svg width="100%" height="100%" viewBox="0 0 2334 734" version="1.1" xmlns="http://www.w3.org/2000/svg" xmlns:xlink="http://www.w3.org/1999/xlink" xml:space="preserve" xmlns:serif="http://www.serif.com/" style="fill-rule:evenodd;clip-rule:evenodd;stroke-linejoin:round;stroke-miterlimit:2;">
    <g transform="matrix(1,0,0,1,-1402.331667,-1523.01)">
        <g transform="matrix(4.166667,0,0,4.166667,0,0)">
            <g transform="matrix(-1,0,0,1,424.5836,541.5644)">
                <path d="M0.005,-176.042C48.616,-176.042 88.024,-136.634 88.024,-88.023C88.024,-39.412 48.616,0 0.005,0C-48.611,0 -88.019,-39.412 -88.019,-88.023C-88.019,-136.634 -48.611,-176.042 0.005,-176.042" style="fill:rgb(17,87,64);fill-rule:nonzero;"/>
            </g>
        </g>
        <g transform="matrix(4.166667,0,0,4.166667,0,0)">
            <g transform="matrix(1,0,0,1,424.5786,395.1098)">
                <path d="M0,116.872C-32.274,116.872 -58.436,90.71 -58.436,58.436C-58.436,26.163 -32.274,0 0,0C32.274,0 58.436,26.163 58.436,58.436C58.436,90.71 32.274,116.872 0,116.872" style="fill:white;fill-rule:nonzero;"/>
            </g>
        </g>
        <g transform="matrix(4.166667,0,0,4.166667,0,0)">
            <g transform="matrix(1,0,0,1,409.2661,500.7687)">
                <path d="M0,2.554L0,-0.629L0.03,-2.205L-0.109,-2.314L-2.464,-1.888L-2.464,-1.357L-2.334,-1.371C-2.105,-1.39 -1.478,-1.43 -1.303,-1.316C-1.106,-1.187 -1.071,-0.8 -1.067,-0.748L-1.067,2.554C-1.067,3.142 -1.077,3.653 -1.087,4.252L-2.619,4.256L-2.624,4.868L1.506,4.868L1.511,4.252L0.02,4.252C0.01,3.643 0,3.142 0,2.554" style="fill:rgb(17,87,64);fill-rule:nonzero;"/>
            </g>
        </g>
        <g transform="matrix(4.166667,0,0,4.166667,0,0)">
            <g transform="matrix(1,0,0,1,419.106,498.6896)">
                <path d="M0,6.637C-0.828,6.637 -1.358,6.075 -1.358,5.169C-1.358,4.45 -1.046,4.03 -0.406,3.592C0.89,4.201 1.28,4.669 1.28,5.325C1.28,6.106 0.796,6.637 0,6.637M-1.171,1.172C-1.171,0.469 -0.625,0.033 0,0.033C0.702,0.033 1.093,0.594 1.093,1.328C1.093,1.937 0.89,2.39 0.312,2.874C-0.875,2.312 -1.171,1.765 -1.171,1.172M0.983,3.201C0.937,3.155 0.858,3.092 0.843,3.03C0.827,2.92 0.983,2.796 0.999,2.781C1.733,2.312 1.998,1.781 1.998,1.282C1.998,0.344 1.28,-0.374 0.015,-0.374C-1.171,-0.374 -2.108,0.344 -2.108,1.485C-2.108,2.202 -1.765,2.812 -0.984,3.295C-0.937,3.326 -0.875,3.389 -0.89,3.451C-0.906,3.514 -1,3.592 -1.015,3.608C-1.874,4.03 -2.327,4.56 -2.327,5.31C-2.327,6.387 -1.468,7.011 -0.063,7.011C1.358,7.011 2.311,6.246 2.311,5.122C2.311,4.279 1.889,3.717 0.983,3.201" style="fill:rgb(17,87,64);fill-rule:nonzero;"/>
            </g>
        </g>
        <g transform="matrix(4.166667,0,0,4.166667,0,0)">
            <g transform="matrix(1,0,0,1,430.894,502.4851)">
                <path d="M0,-0.891C0,-0.891 0,-0.813 -0.047,-0.719C-0.078,-0.625 -0.172,-0.547 -0.219,-0.5C-0.484,-0.344 -0.765,-0.266 -1.109,-0.266C-1.952,-0.266 -2.561,-0.844 -2.561,-2.031C-2.561,-3.186 -1.967,-3.763 -1.28,-3.763C-0.515,-3.763 0.016,-3.03 0.016,-1.218C0.016,-1.109 0,-0.999 0,-0.891M-1.265,-4.169C-2.607,-4.169 -3.638,-3.295 -3.654,-1.89C-3.654,-0.532 -2.717,0.265 -1.499,0.265C-1.14,0.265 -0.828,0.203 -0.546,0.078C-0.5,0.062 -0.375,0.031 -0.297,0.078C-0.203,0.14 -0.219,0.328 -0.234,0.437L-0.25,0.499C-0.64,1.639 -1.515,2.435 -3.076,2.966L-3.014,3.278C-0.234,2.654 1.124,0.889 1.124,-1.249C1.124,-3.045 0.234,-4.169 -1.265,-4.169" style="fill:rgb(17,87,64);fill-rule:nonzero;"/>
            </g>
        </g>
        <g transform="matrix(4.166667,0,0,4.166667,0,0)">
            <g transform="matrix(1,0,0,1,440.6855,502.1966)">
                <path d="M0,-0.37C1.087,-0.659 1.616,-1.317 1.616,-2.145C1.616,-3.163 0.837,-3.881 -0.509,-3.881C-1.557,-3.881 -2.82,-3.153 -2.614,-2.404C-2.515,-2.145 -2.315,-2.056 -2.095,-2.056C-1.756,-2.056 -1.566,-2.235 -1.467,-2.694L-1.396,-2.969L-1.396,-2.968C-1.396,-2.968 -1.277,-3.179 -1.122,-3.297C-0.918,-3.452 -0.597,-3.457 -0.521,-3.455C0.159,-3.363 0.548,-2.89 0.548,-2.115C0.548,-1.107 -0.07,-0.569 -1.028,-0.569L-1.437,-0.569L-1.437,-0.131L-0.948,-0.131C0.16,-0.131 0.728,0.448 0.728,1.486C0.728,2.461 0.227,3.039 -0.728,3.107L-0.711,3.104C-0.711,3.104 -1.005,3.109 -1.242,3.016C-1.431,2.942 -1.578,2.661 -1.601,2.614L-1.676,2.305C-1.806,1.766 -1.953,1.475 -2.314,1.461C-2.564,1.451 -2.834,1.563 -2.834,1.926C-2.751,3.076 -1.866,3.511 -0.669,3.511C0.848,3.511 1.835,2.643 1.835,1.446C1.835,0.519 1.287,-0.16 0,-0.37" style="fill:rgb(17,87,64);fill-rule:nonzero;"/>
            </g>
        </g>
        <g transform="matrix(4.166667,0,0,4.166667,0,0)">
            <g transform="matrix(1,0,0,1,458.5278,521.0687)">
                <path d="M0,-9.582C-0.03,-9.47 -0.09,-9.332 -0.263,-9.268C-0.435,-9.203 -0.542,-9.261 -0.572,-9.279C-0.602,-9.298 -0.665,-9.354 -0.565,-9.489C-0.466,-9.623 -0.288,-9.751 -0.199,-9.767C-0.11,-9.783 0.03,-9.695 0,-9.582M-0.617,-7.736C-0.681,-7.551 -0.781,-7.269 -1.009,-7.21C-1.237,-7.15 -1.366,-7.218 -1.395,-7.34C-1.426,-7.469 -1.363,-7.886 -1.035,-8.087C-0.786,-8.24 -0.553,-7.921 -0.617,-7.736M0.847,-11.468C0.441,-11.69 -0.04,-11.872 -0.193,-11.759C-0.347,-11.645 -0.417,-11.651 -0.58,-11.391C-0.742,-11.131 -0.986,-10.532 -1.253,-10.878C-1.521,-11.224 -1.742,-11.784 -1.964,-11.927C-2.186,-12.069 -2.494,-12.089 -2.74,-12.059C-2.985,-12.029 -3.211,-12.073 -3.223,-11.903C-3.233,-11.733 -3.114,-11.066 -2.98,-10.688C-2.846,-10.311 -2.661,-9.889 -2.823,-9.673C-2.985,-9.456 -3.814,-9.391 -3.918,-9.253C-4.021,-9.114 -4.249,-8.845 -4.02,-8.686C-3.792,-8.525 -3.38,-8.322 -3.374,-8.123C-3.368,-7.924 -3.522,-7.429 -3.375,-7.209C-3.228,-6.988 -2.811,-6.797 -2.603,-7.176C-2.394,-7.556 -2.04,-7.516 -2.08,-7.197C-2.12,-6.879 -2.096,-6.606 -2.501,-6.253C-2.906,-5.898 -3.564,-5.742 -3.127,-5.473C-2.689,-5.203 -2.35,-5.086 -2.311,-4.761C-2.272,-4.435 -2.313,-4.283 -2.399,-4.168C-2.485,-4.052 -2.504,-3.927 -2.256,-3.857C-2.007,-3.787 -1.862,-3.858 -1.7,-3.936C-1.538,-4.013 -1.311,-4.115 -1.239,-3.891C-1.167,-3.665 -1.121,-3.514 -1.165,-3.427C-1.183,-3.391 -1.536,-3.15 -1.742,-2.694C-2.029,-2.06 -2.435,-1.157 -3.008,-0.56C-3.965,0.437 -4.018,0.6 -4.321,0.7C-4.565,0.781 -4.615,0.742 -4.684,0.799C-4.752,0.856 -4.792,1.044 -4.736,1.129C-4.68,1.213 -4.428,1.863 -3.853,1.835C-3.277,1.807 -2.652,1.619 -2.302,1.121C-1.952,0.623 -0.154,-4.2 0.105,-4.52C0.364,-4.838 0.824,-4.873 0.862,-4.715C0.899,-4.557 0.953,-4.17 0.681,-3.701C0.409,-3.231 0.118,-2.951 0.112,-2.845C0.106,-2.737 0.312,-2.413 0.427,-2.093C0.533,-1.798 0.488,-1.654 0.657,-1.452C0.826,-1.251 1.017,-1.074 1.025,-1.03C1.033,-0.985 0.819,-0.412 0.417,0.356C0.016,1.123 -0.088,1.261 -0.283,1.439C-0.477,1.616 -0.71,1.731 -0.697,1.852C-0.684,1.972 -0.506,2.219 -0.214,2.236C0.079,2.254 0.312,2.219 0.45,2.061C0.587,1.901 0.75,1.371 1.051,0.841C1.352,0.311 1.42,0.078 1.519,0.004C1.616,-0.071 2.021,-0.016 2.184,0.301C2.347,0.617 2.413,0.949 2.172,1.334C1.932,1.718 1.485,1.953 1.465,2.043C1.445,2.133 1.547,2.507 2.144,2.504C2.741,2.501 2.948,2.321 3.198,2.191C3.448,2.063 3.753,2.113 3.932,1.935C4.111,1.756 4.282,1.123 3.996,0.537C3.71,-0.049 3.55,-0.31 3.328,-0.584C3.105,-0.858 2.582,-1.457 2.903,-1.807C3.224,-2.156 3.352,-2.248 3.5,-2.307C3.648,-2.365 3.992,-2.74 3.888,-3.004C3.784,-3.268 3.451,-3.508 3.282,-3.395C3.113,-3.283 2.944,-2.761 2.712,-2.523C2.48,-2.285 2.146,-1.961 1.825,-2.204C1.504,-2.447 1.237,-2.749 1.201,-2.88C1.165,-3.01 1.477,-3.395 1.702,-3.956C1.926,-4.518 2.327,-5.774 2.108,-6.394C1.888,-7.014 1.587,-7.076 1.439,-7.018C1.291,-6.959 0.655,-6.515 0.437,-6.792C0.219,-7.069 0.235,-7.391 0.5,-7.991C0.763,-8.592 0.842,-9.038 0.843,-9.229C0.844,-9.42 0.825,-9.608 1.033,-9.797C1.24,-9.985 1.705,-10.199 1.544,-10.591C1.384,-10.982 1.252,-11.245 0.847,-11.468" style="fill:white;fill-rule:nonzero;"/>
            </g>
        </g>
        <g transform="matrix(4.166667,0,0,4.166667,0,0)">
            <g transform="matrix(1,0,0,1,453.3682,515.7725)">
                <path d="M0,3.433C-0.021,3.406 0,3.294 0.103,3.215C0.205,3.137 0.395,2.613 0.005,2.158C-0.384,1.702 -0.92,1.245 -0.961,1.125C-1.002,1.006 -1.02,0.846 -0.724,0.685C-0.427,0.525 -0.248,0.389 -0.296,0.174C-0.345,-0.041 -0.437,-0.088 -0.361,-0.217C-0.286,-0.345 -0.132,-0.511 0.432,-0.326C0.996,-0.141 1.353,0.268 1.445,0.396C1.538,0.523 1.649,0.701 1.517,1.118C1.384,1.536 1.071,1.973 1.116,2.192C1.16,2.411 1.335,2.541 1.349,2.662C1.362,2.782 1.379,3.484 1.192,3.713C1.004,3.944 0.638,3.907 0.397,3.75C0.157,3.594 0.071,3.527 0,3.433" style="fill:white;fill-rule:nonzero;"/>
            </g>
        </g>
        <g transform="matrix(4.166667,0,0,4.166667,0,0)">
            <g transform="matrix(1,0,0,1,394.3384,517.0734)">
                <path d="M0,0.592C-0.201,1.079 -0.387,1.404 -0.497,1.49C-0.607,1.571 -0.746,1.289 -0.784,1.065C-0.817,0.86 -0.889,0.683 -0.774,0.286C-0.654,-0.11 -0.473,-0.349 -0.32,-0.426C-0.167,-0.507 0.077,-0.435 0.134,-0.326C0.191,-0.216 0.201,0.105 0,0.592M-1.357,-0.096C-1.39,0.171 -1.772,0.706 -1.949,0.774C-2.079,0.826 -2.208,0.831 -2.642,0.491C-3.072,0.153 -3.187,-0.378 -3.091,-0.46C-2.996,-0.541 -2.853,-0.617 -2.504,-0.602C-2.136,-0.589 -1.811,-0.531 -1.582,-0.435C-1.357,-0.345 -1.333,-0.306 -1.357,-0.096M4.487,-5.453C4.764,-5.935 4.846,-6.012 4.736,-6.279C4.625,-6.561 4.282,-6.934 4.047,-7.169C3.813,-7.402 3.593,-7.465 3.359,-7.527C3.125,-7.574 3.063,-7.402 3.049,-7.341C3.035,-7.263 2.972,-6.733 2.676,-5.826C2.394,-4.923 1.314,-2.548 1.113,-2.175C0.927,-1.798 0.846,-1.783 0.674,-1.673C0.521,-1.578 -2.666,-1.75 -4.291,-1.831C-5.916,-1.892 -6.336,-1.983 -6.929,-2.141C-7.536,-2.313 -7.555,-2.376 -7.708,-2.424C-7.851,-2.452 -7.975,-2.156 -7.975,-2.156C-7.975,-2.156 -7.941,-2.046 -7.851,-1.811C-7.741,-1.596 -7.32,-1.22 -7.21,-1.004C-7.086,-0.784 -6.914,-0.469 -6.833,-0.426C-6.757,-0.378 -6.475,-0.551 -5.849,-0.627C-5.228,-0.703 -4.382,-0.675 -4.071,-0.579C-3.76,-0.488 -3.741,-0.392 -3.76,-0.297C-3.789,-0.206 -3.885,-0.173 -4.32,0.42C-4.759,1.013 -4.85,1.748 -4.835,1.902C-4.821,2.059 -4.573,2.121 -4.525,2.135C-4.492,2.154 -4.305,2.135 -3.933,2.044C-3.569,1.935 -3.039,1.481 -2.867,1.404C-2.714,1.309 -2.336,1.385 -2.227,1.404C-2.122,1.418 -1.978,1.481 -1.993,1.576C-1.993,1.682 -2.26,2.308 -2.557,2.652C-2.867,2.995 -3.933,3.119 -6.288,3.368C-8.63,3.621 -10.097,2.934 -10.254,2.871C-10.426,2.809 -10.441,2.685 -10.455,2.666C-10.488,2.652 -10.584,2.699 -10.661,2.761C-10.723,2.809 -10.88,3.058 -10.737,3.56C-10.584,4.042 -10.254,4.386 -9.987,4.51C-9.724,4.635 -7.598,4.807 -6.178,4.711C-4.773,4.606 -1.715,3.636 -1.524,3.603C-1.338,3.56 -1.151,3.56 -1.104,3.588C-1.075,3.621 -0.884,4.448 -0.841,5.213C-0.793,5.991 -0.855,7.803 -0.841,7.899C-0.822,7.993 -0.559,8.084 -0.497,8.118C-0.416,8.147 -0.292,8.166 -0.105,8.084C0.067,8.023 0.473,7.712 0.583,7.616C0.693,7.526 0.817,7.397 0.865,7.291C0.927,7.182 1.161,6.57 1.644,5.542C2.141,4.496 2.752,3.56 2.781,3.449C2.829,3.339 2.752,3.278 2.676,3.025C2.595,2.776 2.595,2.637 2.547,2.513C2.504,2.369 2.409,2.528 2.394,2.541C2.394,2.575 2.394,2.556 2.174,3.043C1.955,3.526 1.362,4.477 1.204,4.649C1.066,4.821 0.784,4.931 0.708,4.759C0.631,4.606 0.583,3.822 0.66,2.962C0.736,2.107 1.266,0.482 1.438,0.075C1.61,-0.345 1.893,-0.206 2.05,-0.192C2.222,-0.192 2.829,-0.144 3.035,-0.235C3.221,-0.33 3.331,-0.407 3.359,-0.77C3.407,-1.129 3.015,-1.129 2.877,-1.129C2.738,-1.109 2.313,-1.22 2.25,-1.405C2.174,-1.578 2.208,-1.639 2.8,-2.796C3.393,-3.952 4.191,-4.966 4.487,-5.453" style="fill:white;fill-rule:nonzero;"/>
            </g>
        </g>
        <g transform="matrix(4.166667,0,0,4.166667,0,0)">
            <g transform="matrix(1,0,0,1,386.4106,518.5081)">
                <path d="M0,0.046C0.062,-0.11 0.359,-0.079 0.5,-0.095C0.64,-0.095 1,-0.188 1.327,-0.391C1.671,-0.578 1.796,-0.906 1.905,-0.844C1.999,-0.781 2.03,-0.188 2.014,0.39C2.014,0.952 1.452,0.89 1.312,0.904C1.156,0.904 0.016,0.92 -0.125,0.812C-0.265,0.687 -0.047,0.202 0,0.046" style="fill:white;fill-rule:nonzero;"/>
            </g>
        </g>
        <g transform="matrix(4.166667,0,0,4.166667,0,0)">
            <g transform="matrix(1,0,0,1,391.5947,514.5266)">
                <path d="M0,-1.703C0.015,-1.78 0.078,-1.796 0.125,-1.811C0.171,-1.827 0.328,-1.687 0.796,-1.578C1.249,-1.469 2.092,-1.453 2.42,-1.5C2.748,-1.562 3.185,-1.594 3.528,-1.391C3.872,-1.172 3.7,-0.391 3.591,-0.173C3.481,0.046 3.169,-0.001 2.701,0.015C2.248,0.03 1.561,0.124 1.343,0.124C1.124,0.109 0.718,-0.11 0.343,-0.609C-0.031,-1.109 -0.031,-1.641 0,-1.703" style="fill:white;fill-rule:nonzero;"/>
            </g>
        </g>
        <g transform="matrix(4.166667,0,0,4.166667,0,0)">
            <g transform="matrix(1,0,0,1,400.7598,514.8232)">
                <path d="M0,1.061C-0.344,2.029 -1.421,1.905 -1.671,1.889C-1.936,1.873 -2.014,1.764 -2.014,1.733C-2.014,1.702 -1.546,0.952 -1.343,0.453C-1.14,-0.063 -1.233,-0.968 -1.233,-0.968C-1.233,-0.968 -0.859,-0.828 -0.593,-0.657C-0.344,-0.469 0.343,0.093 0,1.061" style="fill:white;fill-rule:nonzero;"/>
            </g>
        </g>
        <g transform="matrix(4.166667,0,0,4.166667,0,0)">
            <g transform="matrix(1,0,0,1,412.7822,528.7504)">
                <path d="M0,-4.544C-0.328,-4.2 -0.5,-3.467 -0.921,-2.171C-1.358,-0.859 -1.64,0.827 -1.795,1.482C-1.952,2.139 -2.139,2.623 -2.67,2.545C-3.185,2.467 -3.654,1.576 -3.716,1.28C-3.778,0.983 -3.607,0.749 -3.419,0.499C-3.248,0.249 -2.92,-0.656 -2.67,-1.421C-2.436,-2.171 -2.436,-3.451 -2.217,-3.967C-2.124,-4.185 -1.764,-4.888 -1.671,-5.527C-1.577,-6.184 -1.483,-6.917 -1.374,-7.042C-1.296,-7.12 -1.202,-7.167 -1.108,-7.167C-1,-7.167 -0.843,-7.089 -0.64,-6.823C-0.421,-6.559 -0.328,-6.293 -0.219,-6.043C-0.109,-5.777 -0.031,-5.606 0.156,-5.59C0.343,-5.559 0.468,-5.731 0.484,-5.731C0.515,-5.731 0.625,-5.652 0.625,-5.418C0.625,-5.169 0.343,-4.903 0,-4.544" style="fill:white;fill-rule:nonzero;"/>
            </g>
        </g>
        <g transform="matrix(4.166667,0,0,4.166667,0,0)">
            <g transform="matrix(1,0,0,1,411.8452,520.6155)">
                <path d="M0,-3.826C0.062,-3.95 0.234,-4.216 0.391,-4.184C0.562,-4.138 0.796,-3.56 0.984,-3.029C1.203,-2.436 1.265,-1.811 1.078,-1.421C0.906,-1.031 0.484,-0.734 0.266,-0.39C0.047,-0.031 0.031,0.141 -0.141,0.234C-0.296,0.343 -0.406,0.39 -0.453,0.312C-0.5,0.249 -0.437,-0.984 -0.359,-1.421C-0.25,-1.936 -0.031,-2.202 -0.031,-2.748C-0.031,-3.295 -0.047,-3.701 0,-3.826" style="fill:white;fill-rule:nonzero;"/>
            </g>
        </g>
        <g transform="matrix(4.166667,0,0,4.166667,0,0)">
            <g transform="matrix(1,0,0,1,419.4336,527.8593)">
                <path d="M0,2.936C-0.219,2.967 -0.89,2.577 -1.093,2.514C-1.296,2.467 -1.421,2.42 -1.39,2.342C-1.374,2.281 -1.28,2.156 -1.093,2.015C-0.906,1.874 -0.703,1.64 -0.671,1.453C-0.625,1.281 -0.953,0.75 -0.984,0.563C-0.999,0.375 -0.921,0.079 -0.906,0.047C-0.89,0 -0.859,-0.031 -0.703,-0.015C-0.546,-0.015 -0.391,0.11 -0.109,0.36C0.187,0.625 0.312,1.187 0.531,1.562C0.75,1.937 0.828,1.89 0.812,2.171C0.781,2.436 0.219,2.905 0,2.936" style="fill:white;fill-rule:nonzero;"/>
            </g>
        </g>
        <g transform="matrix(4.166667,0,0,4.166667,0,0)">
            <g transform="matrix(1,0,0,1,417.5283,522.3432)">
                <path d="M0,1.291C-0.148,1.386 -0.478,1.463 -0.645,1.343C-0.812,1.229 -0.769,1.09 -0.769,1.09C-0.726,0.86 -0.306,0.65 -0.071,0.808C0.163,0.966 0.144,1.19 0,1.291M-1.037,2.542C-1.453,2.538 -1.462,2.404 -1.486,2.327C-1.51,2.256 -1.414,2.021 -1.18,1.945C-0.946,1.869 -0.75,1.921 -0.66,1.974C-0.568,2.021 -0.325,2.241 -0.325,2.241C-0.325,2.241 -0.621,2.547 -1.037,2.542M-1.257,-1.008C-1.156,-1.137 -0.984,-1.214 -0.697,-1.218C-0.411,-1.228 -0.21,-1.185 -0.129,-0.95C-0.043,-0.717 -0.158,-0.588 -0.597,-0.559C-1.037,-0.53 -1.357,-0.879 -1.257,-1.008M3.388,-4.209C3.78,-4.678 3.856,-5.056 3.809,-5.318C3.766,-5.586 3.574,-5.82 3.297,-5.992C2.996,-6.164 2.638,-5.882 2.624,-5.786C2.576,-5.647 2.624,-5.552 2.528,-5.069C2.437,-4.567 2.251,-4.353 1.811,-4.195C1.357,-4.023 1.08,-4.85 0.951,-4.974C0.846,-5.099 0.779,-4.821 0.765,-4.602C0.736,-4.367 0.812,-3.416 0.64,-3.368C0.482,-3.32 0.139,-4.009 -0.062,-4.162C-0.139,-4.209 -0.263,-4.147 -0.392,-4.009C-0.516,-3.865 -0.516,-3.617 -0.564,-3.226C-0.592,-2.838 -0.626,-2.729 -1.061,-2.308C-1.481,-1.883 -3.216,-1.462 -3.292,-1.434C-3.326,-1.414 -3.354,-1.386 -3.354,-1.352C-3.354,-1.305 -3.326,-1.18 -3.12,-0.946C-2.919,-0.712 -2.576,-0.54 -2.327,-0.497C-2.06,-0.449 -1.888,-0.415 -1.777,-0.152C-1.672,0.129 -1.763,0.865 -1.797,1.209C-1.825,1.567 -2.141,1.878 -2.576,2.188C-3.015,2.504 -3.188,2.91 -3.188,3.207C-3.202,3.518 -2.48,3.847 -2.122,3.785C-1.777,3.723 -1.405,3.407 -1.309,3.331C-1.219,3.235 -1.075,3.207 -1.013,3.255C-0.951,3.298 -0.779,3.518 -0.75,3.861C-0.736,4.205 -1.281,4.563 -1.515,4.674C-1.749,4.783 -1.998,4.722 -2.141,4.687C-2.279,4.674 -2.313,4.735 -2.341,4.798C-2.356,4.86 -2.279,5.046 -2.141,5.156C-2.012,5.28 -1.467,5.204 -1.391,5.267C-1.329,5.314 -1.185,5.5 -1.219,5.878C-1.233,6.251 -1.969,6.795 -2.217,7.125C-2.48,7.436 -2.031,7.455 -1.777,7.359C-1.515,7.249 -0.922,6.891 -0.497,6.437C-0.062,6.002 0.22,5.046 0.22,5.046C0.22,5.046 0.626,5.108 1.08,5.08C1.515,5.032 1.936,4.812 2.423,4.473C2.92,4.109 3.278,3.737 3.326,3.599C3.374,3.47 3.25,3.283 2.872,3.13C2.514,2.973 2.06,2.925 1.797,2.925C1.515,2.91 1.562,3.283 1.515,3.503C1.481,3.704 1.281,3.937 0.846,4.081C0.406,4.22 0.545,3.737 0.674,3.579C0.827,3.379 1.094,3.111 1.591,2.504C2.079,1.878 2.045,1.534 1.921,1.286C1.797,1.037 1.672,0.535 1.763,0.411C1.859,0.272 1.936,0.302 2.404,0.005C2.872,-0.291 2.872,-0.497 2.7,-0.932C2.547,-1.371 1.653,-1.462 1.481,-1.648C1.329,-1.84 1.419,-2.245 1.61,-2.633C1.797,-3.039 2.982,-3.756 3.388,-4.209" style="fill:white;fill-rule:nonzero;"/>
            </g>
        </g>
        <g transform="matrix(4.166667,0,0,4.166667,0,0)">
            <g transform="matrix(1,0,0,1,441.3857,520.7421)">
                <path d="M0,5.311C-0.634,5.448 -1.028,5.157 -1.062,4.985C-1.096,4.796 -1.165,4.591 -1.336,4.471C-1.524,4.334 -2.09,4.3 -2.33,4.283C-2.569,4.266 -2.604,4.523 -2.672,4.728C-2.724,4.934 -3.597,6.407 -3.906,6.767C-4.214,7.143 -4.762,7.126 -5.019,6.835C-5.276,6.561 -5.104,6.184 -4.505,5.516C-3.888,4.848 -3.443,3.889 -3.443,3.683C-3.443,3.478 -3.529,3.187 -3.58,3.169C-3.631,3.135 -3.717,3.169 -3.871,3.255C-4.042,3.324 -4.471,3.683 -4.642,3.889C-4.831,4.094 -5.053,4.266 -5.224,4.334C-5.413,4.403 -5.601,4.385 -5.721,4.283C-5.841,4.198 -6.029,4.009 -6.132,3.855C-6.235,3.683 -6.201,3.495 -6.029,3.221C-5.875,2.964 -5.481,2.981 -5.413,2.981C-5.327,2.998 -5.122,2.964 -4.625,2.758C-4.146,2.57 -3.991,2.467 -3.888,2.365C-3.803,2.279 -3.648,2.056 -3.529,1.645C-3.409,1.251 -3.597,0.463 -3.734,0.086C-3.854,-0.273 -4.163,-0.513 -4.231,-0.599C-4.299,-0.668 -4.265,-0.753 -4.265,-0.993C-4.265,-1.215 -4.316,-1.404 -4.333,-1.541C-4.351,-1.678 -4.128,-1.797 -4.008,-1.815C-3.888,-1.832 -3.563,-1.644 -3.46,-1.558C-3.357,-1.49 -3.22,-1.541 -3.083,-1.575C-2.946,-1.592 -2.826,-1.524 -2.569,-1.37C-2.313,-1.215 -2.278,-1.079 -2.278,-0.924C-2.295,-0.77 -2.604,-0.154 -2.586,0C-2.552,0.172 -2.347,0.772 -2.261,0.789C-2.158,0.806 -2.141,0.6 -2.021,0.48C-1.918,0.343 -1.559,0.241 -1.182,0.326C-0.805,0.429 -0.668,0.668 -0.668,0.823C-0.651,0.977 -0.771,1.2 -1.336,1.679C-1.901,2.176 -2.158,2.381 -2.278,2.707C-2.398,3.033 -2.278,3.221 -2.039,3.392C-1.782,3.546 -1.011,3.375 -0.702,3.307C-0.377,3.221 0.068,3.392 0.462,3.701C0.856,4.009 0.925,4.574 0.908,4.746C0.908,4.9 0.634,5.157 0,5.311" style="fill:white;fill-rule:nonzero;"/>
            </g>
        </g>
        <g transform="matrix(4.166667,0,0,4.166667,0,0)">
            <g transform="matrix(1,0,0,1,486.2686,456.1532)">
                <path d="M0,30.187L0,5.625C6.389,2.519 7.01,-9.785 7.435,-11.162C6.872,-10.817 2.298,-5.867 -3.402,-5.805L-119.978,-5.805C-125.678,-5.867 -130.251,-10.817 -130.815,-11.162C-130.39,-9.785 -129.769,2.519 -123.38,5.625L-123.38,30.187L-132.201,30.187L-121.072,41.349L-2.308,41.349L8.821,30.187L0,30.187Z" style="fill:white;fill-rule:nonzero;"/>
            </g>
        </g>
        <g transform="matrix(4.166667,0,0,4.166667,0,0)">
            <g transform="matrix(1,0,0,1,424.5811,535.4445)">
                <path d="M0,-163.801C-45.16,-163.801 -81.9,-127.061 -81.9,-81.901C-81.9,-36.741 -45.16,-0.001 0,-0.001C45.16,-0.001 81.9,-36.741 81.9,-81.901C81.9,-127.061 45.16,-163.801 0,-163.801M0,2.389C-46.478,2.389 -84.29,-35.424 -84.29,-81.901C-84.29,-128.378 -46.478,-166.19 0,-166.19C46.478,-166.19 84.29,-128.378 84.29,-81.901C84.29,-35.424 46.478,2.389 0,2.389" style="fill:white;fill-rule:nonzero;"/>
            </g>
        </g>
        <g transform="matrix(4.166667,0,0,4.166667,0,0)">
            <g transform="matrix(0.027471,-0.999623,-0.999623,-0.027471,426.743703,407.959328)">
                <path d="M-38.946,-37.844C-38.235,-38.419 -37.467,-38.992 -36.712,-39.521L-38.946,41.768C-39.67,41.198 -40.406,40.584 -41.084,39.96L-38.946,-37.844Z" style="fill:rgb(0,37,84);fill-rule:nonzero;"/>
            </g>
        </g>
        <g transform="matrix(4.166667,0,0,4.166667,0,0)">
            <g transform="matrix(1,0,0,1,422.6948,416.8927)">
                <path d="M0,-3.467L0.582,-3.467C0.07,-2.612 -0.561,0.505 0.627,3.119L0.629,3.119C0.486,3.119 0.37,3.236 0.37,3.378C0.37,3.52 0.486,3.637 0.629,3.637L1.013,3.637L1.014,3.638L2.859,3.638L2.86,3.637L3.145,3.637C3.287,3.637 3.404,3.52 3.404,3.378C3.404,3.236 3.287,3.119 3.145,3.119L3.146,3.119C4.335,0.505 3.704,-2.612 3.192,-3.467L3.774,-3.467C3.957,-3.467 4.106,-3.616 4.106,-3.8C4.106,-3.983 3.957,-4.133 3.774,-4.133L3.737,-4.133L3.737,-4.207C3.737,-4.693 3.398,-5.102 2.945,-5.212C3.09,-5.345 3.182,-5.535 3.182,-5.746L3.182,-5.986C3.307,-6.004 3.404,-6.112 3.404,-6.242C3.404,-6.384 3.287,-6.501 3.145,-6.501L2.886,-6.501L2.886,-6.547C2.886,-6.842 2.653,-7.087 2.362,-7.105L1.412,-7.105C1.121,-7.087 0.888,-6.842 0.888,-6.547L0.888,-6.501L0.629,-6.501C0.486,-6.501 0.37,-6.384 0.37,-6.242C0.37,-6.113 0.465,-6.006 0.588,-5.986L0.592,-5.857L0.592,-5.746C0.592,-5.535 0.684,-5.345 0.829,-5.212C0.376,-5.102 0.037,-4.693 0.037,-4.207L0.037,-4.133L0,-4.133C-0.183,-4.133 -0.333,-3.983 -0.333,-3.8C-0.333,-3.616 -0.183,-3.467 0,-3.467" style="fill:rgb(0,37,84);fill-rule:nonzero;"/>
            </g>
        </g>
        <g transform="matrix(4.166667,0,0,4.166667,0,0)">
            <g transform="matrix(-1,0,0,1,849.184,-26.261)">
                <rect x="421.844" y="465.697" width="5.496" height="1.954" style="fill:rgb(0,37,84);"/>
            </g>
        </g>
        <g transform="matrix(4.166667,0,0,4.166667,0,0)">
            <g transform="matrix(0,1,1,0,406.0757,444.0972)">
                <path d="M-4.13,-0.023L-1.975,-0.023L0.023,-4.13L-2.147,-4.13L-4.13,-0.023Z" style="fill:rgb(0,37,84);fill-rule:nonzero;"/>
            </g>
        </g>
        <g transform="matrix(4.166667,0,0,4.166667,0,0)">
            <g transform="matrix(0,1,1,0,447.2403,439.9912)">
                <path d="M-0.023,-4.13L2.131,-4.13L4.13,-0.024L1.96,-0.024L-0.023,-4.13Z" style="fill:rgb(0,37,84);fill-rule:nonzero;"/>
            </g>
        </g>
        <g transform="matrix(4.166667,0,0,4.166667,0,0)">
            <g transform="matrix(-1,0,0,1,863.248,-26.261)">
                <rect x="428.876" y="465.697" width="5.496" height="1.954" style="fill:rgb(0,37,84);"/>
            </g>
        </g>
        <g transform="matrix(4.166667,0,0,4.166667,0,0)">
            <g transform="matrix(-1,0,0,1,877.334,-26.261)">
                <rect x="435.919" y="465.697" width="5.496" height="1.954" style="fill:rgb(0,37,84);"/>
            </g>
        </g>
        <g transform="matrix(4.166667,0,0,4.166667,0,0)">
            <g transform="matrix(-1,0,0,1,820.993,-26.261)">
                <rect x="407.749" y="465.697" width="5.495" height="1.954" style="fill:rgb(0,37,84);"/>
            </g>
        </g>
        <g transform="matrix(4.166667,0,0,4.166667,0,0)">
            <g transform="matrix(-1,0,0,1,835.079,-26.261)">
                <rect x="414.792" y="465.697" width="5.495" height="1.954" style="fill:rgb(0,37,84);"/>
            </g>
        </g>
        <g transform="matrix(4.166667,0,0,4.166667,0,0)">
            <g transform="matrix(1,0,0,1,366.2017,492.4738)">
                <path d="M0,2.8L116.76,2.8L119.556,0L-2.796,0L0,2.8Z" style="fill:rgb(0,37,84);fill-rule:nonzero;"/>
            </g>
        </g>
        <g transform="matrix(4.166667,0,0,4.166667,0,0)">
            <g transform="matrix(1,0,0,1,362.6362,488.9311)">
                <path d="M0,2.788L123.891,2.788L126.676,0L-2.786,0L0,2.788Z" style="fill:rgb(0,37,84);fill-rule:nonzero;"/>
            </g>
        </g>
        <g transform="matrix(4.166667,0,0,4.166667,0,0)">
            <g transform="matrix(1,0,0,1,396.6504,483.3554)">
                <path d="M0,1.312L55.862,1.312L55.424,0L0.438,0L0,1.312Z" style="fill:rgb(0,37,84);fill-rule:nonzero;"/>
            </g>
        </g>
        <g transform="matrix(4.166667,0,0,4.166667,0,0)">
            <g transform="matrix(1,0,0,1,395.8325,485.8183)">
                <path d="M0,1.312L57.499,1.312L57.06,0L0.438,0L0,1.312Z" style="fill:rgb(0,37,84);fill-rule:nonzero;"/>
            </g>
        </g>
        <g transform="matrix(4.166667,0,0,4.166667,0,0)">
            <g transform="matrix(-0.32508,0.945687,0.945687,0.32508,433.86921,456.547883)">
                <path d="M34.71,-26.084L36.097,-26.084L18.469,25.198L17.375,24.345L34.71,-26.084Z" style="fill:rgb(0,37,84);fill-rule:nonzero;"/>
            </g>
        </g>
        <g transform="matrix(4.166667,0,0,4.166667,0,0)">
            <g transform="matrix(0,-1,-1,0,395.2443,449.1466)">
                <path d="M-1.699,-1.284L-0.443,-1.284L-0.443,1.699L-2.54,1.699C-2.394,0.589 -2.091,-0.409 -1.699,-1.284" style="fill:rgb(0,37,84);fill-rule:nonzero;"/>
            </g>
        </g>
        <g transform="matrix(4.166667,0,0,4.166667,0,0)">
            <g transform="matrix(1,0,0,1,389.1836,450.2624)">
                <path d="M0,0.841C0.684,1.278 1.491,1.469 2.399,1.514L2.399,-0.673L-0.572,-0.673L-0.572,0.448C-0.381,0.594 -0.191,0.717 0,0.841" style="fill:rgb(0,37,84);fill-rule:nonzero;"/>
            </g>
        </g>
        <g transform="matrix(4.166667,0,0,4.166667,0,0)">
            <g transform="matrix(1,0,0,1,460.0469,450.2624)">
                <path d="M0,0.841C0.168,0.74 0.336,0.616 0.505,0.493L0.505,-0.673L-2.467,-0.673L-2.467,1.514C-1.536,1.48 -0.706,1.289 0,0.841" style="fill:rgb(0,37,84);fill-rule:nonzero;"/>
            </g>
        </g>
        <g transform="matrix(4.166667,0,0,4.166667,0,0)">
            <g transform="matrix(0,-1,-1,0,455.1752,449.1467)">
                <path d="M-2.528,-0.442L-0.442,-0.442L-0.442,2.528L-1.676,2.528C-2.068,1.666 -2.382,0.668 -2.528,-0.442" style="fill:rgb(0,37,84);fill-rule:nonzero;"/>
            </g>
        </g>
        <g transform="matrix(4.166667,0,0,4.166667,0,0)">
            <g transform="matrix(1,0,0,1,365.6338,441.6805)">
                <path d="M0,17.44L117.896,17.44C121.497,17.44 123.688,10.492 123.688,10.492C123.688,10.492 118.006,13.911 113.655,11.165C109.304,8.419 104.562,0 104.562,0C104.562,0 99.82,8.419 95.468,11.166C91.118,13.912 85.436,10.493 85.436,10.493C85.436,10.493 86.213,13.217 87.739,15.254L85.214,15.254C84.877,14.582 84.447,13.471 84.178,12.742C83.55,11.049 83.102,9.311 82.788,7.909L82.104,7.909L82.104,15.254L80.196,15.254L80.196,7.904L77.247,7.904L77.247,15.254L75.25,15.254L75.25,7.904L72.301,7.904L72.301,15.254L70.304,15.254L70.304,7.904L67.355,7.904L67.355,15.254L65.358,15.254L65.358,7.904L62.409,7.904L62.409,15.254L60.428,15.254L60.428,7.904L57.448,7.904L57.448,15.254L55.467,15.254L55.467,7.904L52.518,7.904L52.518,15.254L50.521,15.254L50.521,7.904L47.572,7.904L47.572,15.254L45.575,15.254L45.575,7.904L42.626,7.904L42.626,15.254L40.629,15.254L40.629,7.904L37.68,7.904L37.68,15.254L35.782,15.254L35.782,7.909L35.098,7.909C34.784,9.311 34.336,11.049 33.708,12.742C33.438,13.471 33.093,14.582 32.757,15.254L30.241,15.254C31.767,13.217 32.459,10.493 32.459,10.493C32.459,10.493 26.778,13.912 22.427,11.166C18.076,8.419 13.334,0 13.334,0C13.334,0 8.592,8.419 4.241,11.165C-0.111,13.911 -5.792,10.492 -5.792,10.492C-5.792,10.492 -3.602,17.44 0,17.44" style="fill:rgb(0,37,84);fill-rule:nonzero;"/>
            </g>
        </g>
        <g transform="matrix(4.166667,0,0,4.166667,0,0)">
            <g transform="matrix(1,0,0,1,398.6826,420.4954)">
                <path d="M0,20.316L7.638,16.607L44.16,16.607L51.798,20.316C57.666,19.398 59.776,12.649 59.776,12.649C55.727,16.913 46.652,15.502 48.184,11.27C49.52,7.802 48.867,5.541 48.867,5.541C47.089,8.771 44.022,9.788 42.017,9.845C39.668,9.913 37.865,8.481 37.865,8.481L37.865,4.458L38.915,3.715L38.915,0L35.641,0L35.641,1.744L27.914,1.744L27.914,0.879L23.812,0.879L23.812,1.744L16.103,1.744L16.103,0L12.883,0L12.883,3.715L13.933,4.458L13.933,8.481C13.933,8.481 12.13,9.913 9.781,9.845C7.776,9.788 4.708,8.771 2.931,5.541C2.931,5.541 2.279,7.802 3.614,11.27C5.146,15.502 -3.929,16.913 -7.979,12.649C-7.979,12.649 -5.867,19.398 0,20.316" style="fill:rgb(0,37,84);fill-rule:nonzero;"/>
            </g>
        </g>
        <g transform="matrix(4.166667,0,0,4.166667,0,0)">
            <g transform="matrix(1,0,0,1,0,41.501)">
                <path d="M387.203,429.288L383.05,429.288L383.05,425.135L387.203,425.135L387.203,429.288ZM381.082,429.288L376.929,429.288L376.929,425.135L381.082,425.135L381.082,429.288ZM374.977,429.288L370.824,429.288L370.824,425.135L374.977,425.135L374.977,429.288ZM365.75,445.635L392.262,445.635L392.262,419.951L365.75,419.951L365.75,445.635Z" style="fill:rgb(0,37,84);fill-rule:nonzero;"/>
            </g>
        </g>
        <g transform="matrix(4.166667,0,0,4.166667,0,0)">
            <g transform="matrix(1,0,0,1,0,41.501)">
                <path d="M478.355,429.288L474.202,429.288L474.202,425.135L478.355,425.135L478.355,429.288ZM472.234,429.288L468.081,429.288L468.081,425.135L472.234,425.135L472.234,429.288ZM466.114,429.288L461.961,429.288L461.961,425.135L466.114,425.135L466.114,429.288ZM456.902,445.635L483.414,445.635L483.414,419.951L456.902,419.951L456.902,445.635Z" style="fill:rgb(0,37,84);fill-rule:nonzero;"/>
            </g>
        </g>
        <g transform="matrix(4.166667,0,0,4.166667,0,0)">
            <g transform="matrix(1,0,0,1,0,32.446)">
                <path d="M451.289,445.322L449.712,445.322L449.712,434.128L451.289,434.128L451.289,445.322ZM448.338,432.691L438.173,432.691L438.173,431.114L448.338,431.114L448.338,432.691ZM448.338,445.291L438.173,445.291L438.173,435.408L440.172,434.128L446.246,434.128L448.338,435.47L448.338,445.291ZM436.799,432.66L435.206,432.66L435.206,431.067L436.799,431.067L436.799,432.66ZM436.799,445.291L435.206,445.291L435.206,434.128L436.799,434.128L436.799,445.291ZM433.833,432.691L426.525,432.675L426.525,431.098L433.833,431.114L433.833,432.691ZM433.833,445.322L429.695,445.322L429.695,437.047L419.546,437.047L419.546,445.322L415.44,445.322L415.44,435.486L417.517,434.128L431.553,434.128L433.833,435.486L433.833,445.322ZM428.993,445.322L428.306,445.322L428.306,438.359L421.014,438.359L421.014,445.322L420.327,445.322L420.327,437.843L428.993,437.843L428.993,445.322ZM414.003,432.691L412.457,432.691L412.457,431.114L414.003,431.114L414.003,432.691ZM414.003,445.322L412.457,445.322L412.457,434.128L414.003,434.128L414.003,445.322ZM411.068,432.691L400.904,432.691L400.904,431.114L411.068,431.114L411.068,432.691ZM411.068,445.291L400.904,445.291L400.904,435.502L402.996,434.128L409.116,434.128L411.068,435.502L411.068,445.291ZM399.467,445.322L397.921,445.322L397.921,434.112L399.467,434.112L399.467,445.322ZM415.549,431.114L422.622,431.114L422.622,432.691L415.549,432.691L415.549,431.114ZM426.525,428.928L426.525,427.586L422.622,427.601L422.622,428.928L395.767,428.928L395.735,447.055L453.396,447.055L453.428,428.928L426.525,428.928Z" style="fill:rgb(0,37,84);fill-rule:nonzero;"/>
            </g>
        </g>
        <g transform="matrix(4.166667,0,0,4.166667,0,0)">
            <g transform="matrix(1,0,0,1,356.6289,435.9988)">
                <path d="M0,-14.121L-0.951,-14.444L-2.224,-10.694L-1.272,-10.371L-0.615,-11.644L5.314,-7.706L-1.891,-7.915L-1.581,-9.451L-2.536,-9.775L-4.036,-5.353L-3.08,-5.029L-2.829,-5.551C-2.611,-6.003 -2.036,-6.146 -1.632,-5.849L3.363,-2.175L-3.676,-2.706L-3.395,-4.108L-4.35,-4.432L-5.853,-0.001L-4.896,0.323L-4.694,-0.1C-4.459,-0.589 -3.954,-0.889 -3.412,-0.857L6.455,-0.291L6.757,-1.18L-0.192,-6.139L8.392,-5.996L8.698,-6.898L-0.241,-12.762L0,-14.121Z" style="fill:white;fill-rule:nonzero;"/>
            </g>
        </g>
        <g transform="matrix(4.166667,0,0,4.166667,0,0)">
            <g transform="matrix(1,0,0,1,368.1533,417.0467)">
                <path d="M0,-3.267L-4.724,-6.161L-4.168,-7.436L-5.027,-7.962L-7.202,-4.413L-6.344,-3.887L-5.892,-4.435C-5.553,-4.847 -4.963,-4.946 -4.508,-4.667L-0.953,-2.49C0.25,-1.752 0.978,-1.057 1.271,-0.363C1.543,0.278 1.454,0.929 0.991,1.685C0.395,2.658 -0.635,3.565 -3.322,1.919L-4.437,1.235C-5.405,0.643 -6.667,-0.135 -7.922,-0.935L-7.241,-2.415L-8.103,-2.943L-10.632,1.185L-9.771,1.712L-9.533,1.411C-9.201,0.991 -8.608,0.881 -8.148,1.155C-7.14,1.755 -6.179,2.341 -5.405,2.816L-3.877,3.752C-2.848,4.382 -1.883,4.695 -1.008,4.695C0.269,4.695 1.354,4.027 2.164,2.707C2.795,1.676 2.965,0.66 2.669,-0.314C2.341,-1.389 1.443,-2.383 0,-3.267" style="fill:white;fill-rule:nonzero;"/>
            </g>
        </g>
        <g transform="matrix(4.166667,0,0,4.166667,0,0)">
            <g transform="matrix(1,0,0,1,379.7896,405.6963)">
                <path d="M0,-0.088C-1.115,-1.086 -2.212,-2.099 -3.051,-2.877L-3.65,-3.433C-4.494,-4.216 -5.59,-5.238 -6.659,-6.267L-5.794,-7.456L-6.534,-8.143L-9.82,-4.601L-9.08,-3.914L-8.673,-4.259C-8.265,-4.606 -7.662,-4.596 -7.264,-4.236C-6.48,-3.527 -5.737,-2.841 -5.122,-2.271L-8.373,1.234C-9.501,0.185 -10.375,-0.638 -11.171,-1.404L-10.308,-2.591L-11.048,-3.277L-14.334,0.265L-13.594,0.952L-13.185,0.604C-12.776,0.258 -12.173,0.267 -11.776,0.627C-10.909,1.412 -10.084,2.173 -9.421,2.788L-8.822,3.345C-8.118,3.999 -7.315,4.746 -6.492,5.529C-6.104,5.899 -6.047,6.5 -6.363,6.933L-6.678,7.368L-5.938,8.055L-2.652,4.513L-3.393,3.826L-4.514,4.778C-5.477,3.916 -6.462,3.006 -7.546,2.001L-4.295,-1.504C-3.467,-0.736 -2.701,-0.022 -1.977,0.664C-1.587,1.034 -1.533,1.634 -1.849,2.068L-2.165,2.502L-1.424,3.189L1.862,-0.353L1.122,-1.04L0,-0.088Z" style="fill:white;fill-rule:nonzero;"/>
            </g>
        </g>
        <g transform="matrix(4.166667,0,0,4.166667,0,0)">
            <g transform="matrix(1,0,0,1,385.1353,399.0754)">
                <path d="M0,-2.244L-2.185,-0.659L-3.541,-4.842L0,-2.244ZM3.884,-1.648L-4.258,-7.556L-5.268,-6.823L-1.956,3.518L-2.942,4.499L-2.352,5.312L0.879,2.967L0.288,2.153L-1.045,2.856L-1.819,0.469L0.955,-1.544L2.996,-0.046L1.889,0.989L2.48,1.805L6.264,-0.941L5.672,-1.756L5.312,-1.558C4.859,-1.309 4.303,-1.344 3.884,-1.648" style="fill:white;fill-rule:nonzero;"/>
            </g>
        </g>
        <g transform="matrix(4.166667,0,0,4.166667,0,0)">
            <g transform="matrix(1,0,0,1,397.8472,396.527)">
                <path d="M0,-13.134L-0.428,-14.042L-4.215,-12.257L-3.785,-11.345L-2.959,-11.611C-2.512,-11.756 -2.027,-11.545 -1.826,-11.12L0.646,-5.873L-7.641,-10.642L-10.101,-9.482L-9.671,-8.569L-9.476,-8.618C-8.857,-8.773 -8.215,-8.468 -7.943,-7.891L-4.583,-0.759L-5.718,-0.002L-5.29,0.908L-1.502,-0.878L-1.932,-1.789L-3.544,-1.279L-6.658,-7.887L2.533,-2.657L3.279,-3.009L-1.131,-12.367L0,-13.134Z" style="fill:white;fill-rule:nonzero;"/>
            </g>
        </g>
        <g transform="matrix(4.166667,0,0,4.166667,0,0)">
            <g transform="matrix(1,0,0,1,428.188,388.1203)">
                <path d="M0,-9.429L0.742,-9.31C1.272,-9.224 1.656,-8.759 1.64,-8.222L1.468,-2.542L-3.756,-10.551L-6.475,-10.634L-6.505,-9.625L-6.309,-9.58C-5.687,-9.437 -5.253,-8.875 -5.272,-8.238L-5.512,-0.357L-6.868,-0.196L-6.898,0.808L-2.713,0.935L-2.683,-0.072L-4.351,-0.349L-4.129,-7.651L1.691,1.18L2.515,1.205L2.829,-9.136L4.185,-9.306L4.215,-10.309L0.03,-10.436L0,-9.429Z" style="fill:white;fill-rule:nonzero;"/>
            </g>
        </g>
        <g transform="matrix(4.166667,0,0,4.166667,0,0)">
            <g transform="matrix(1,0,0,1,435.8862,389.5733)">
                <path d="M0,-10.153L0.849,-9.889C1.167,-9.79 1.365,-9.469 1.309,-9.14C1.098,-7.893 0.879,-6.689 0.687,-5.646L0.539,-4.843C0.352,-3.829 0.134,-2.665 -0.103,-1.471C-0.181,-1.078 -0.539,-0.804 -0.939,-0.829L-1.709,-0.878L-1.893,0.115L2.866,0.993L3.048,0L2.311,-0.229C1.927,-0.349 1.691,-0.734 1.759,-1.13C1.97,-2.369 2.187,-3.561 2.361,-4.507L2.509,-5.31C2.702,-6.357 2.927,-7.563 3.173,-8.796C3.238,-9.124 3.537,-9.352 3.871,-9.331L4.758,-9.275L4.941,-10.268L0.183,-11.146L0,-10.153Z" style="fill:white;fill-rule:nonzero;"/>
            </g>
        </g>
        <g transform="matrix(4.166667,0,0,4.166667,0,0)">
            <g transform="matrix(1,0,0,1,454.0005,388.4053)">
                <path d="M0,-4.007L0.327,-4.959L-3.464,-6.262L-3.818,-5.233L-2.596,-4.659L-7.163,1.42L-7.111,-6.224L-5.69,-5.874L-5.336,-6.905L-9.771,-8.429L-10.099,-7.474L-9.706,-7.284C-9.249,-7.064 -8.957,-6.603 -8.952,-6.096L-8.843,4.116L-7.954,4.422L-1.409,-4.278L0,-4.007Z" style="fill:white;fill-rule:nonzero;"/>
            </g>
        </g>
        <g transform="matrix(4.166667,0,0,4.166667,0,0)">
            <g transform="matrix(1,0,0,1,458.0044,387.2027)">
                <path d="M0,9.784L-2.461,8.415C-1.849,7.264 -1.205,6.101 -0.496,4.825L0.766,5.526C1.059,5.689 1.186,6.044 1.062,6.356L0.698,7.272L1.623,7.786L3.695,4.06L2.771,3.547L2.167,4.353C1.967,4.62 1.6,4.699 1.308,4.536L0.053,3.839C0.586,2.882 1.261,1.676 1.953,0.485L4.133,1.698C4.59,1.951 4.796,2.498 4.621,2.99L4.206,4.153L5.296,4.759L6.791,1.815L-0.419,-2.194L-0.911,-1.312L-0.475,-0.996C-0.041,-0.682 0.093,-0.094 -0.161,0.377C-0.716,1.406 -1.26,2.388 -1.7,3.179L-2.097,3.892C-2.539,4.687 -3.088,5.669 -3.665,6.679C-3.931,7.143 -4.501,7.339 -4.997,7.137L-5.495,6.933L-5.985,7.815L1.502,11.978L3.215,9.155L2.125,8.549L1.355,9.516C1.03,9.924 0.457,10.038 0,9.784" style="fill:white;fill-rule:nonzero;"/>
            </g>
        </g>
        <g transform="matrix(4.166667,0,0,4.166667,0,0)">
            <g transform="matrix(1,0,0,1,468.625,399.6224)">
                <path d="M0,-1.371L-0.821,-2.035C0.091,-3.162 0.923,-4.188 1.766,-5.192L2.697,-4.439C3.282,-3.968 3.61,-3.484 3.674,-3.003C3.736,-2.538 3.563,-2.062 3.146,-1.546C2.302,-0.502 1.155,-0.437 0,-1.371M4.646,-0.347C5.248,-1.091 5.452,-1.942 5.235,-2.806C5.023,-3.652 4.405,-4.509 3.446,-5.284L-0.147,-8.186L-0.782,-7.401L-0.407,-7.016C-0.032,-6.632 -0.002,-6.029 -0.334,-5.607C-1.04,-4.711 -1.726,-3.859 -2.329,-3.113L-2.843,-2.477C-3.566,-1.582 -4.511,-0.419 -5.465,0.718L-6.711,-0.065L-7.346,0.721L-3.583,3.761L-2.948,2.976L-3.98,1.916C-3.187,0.898 -2.363,-0.126 -1.519,-1.171L-1.048,-0.791C-0.086,-0.014 0.157,0.463 -0.392,1.594L-1.572,4.058C-1.956,4.86 -1.772,5.443 -0.916,6.134C-0.551,6.429 -0.201,6.637 0.156,6.77L0.275,6.815L0.879,6.068L0.496,5.673C0.193,5.362 0.109,4.9 0.282,4.503L0.963,2.935C1.404,1.917 1.463,1.137 1.134,0.442C2.499,0.972 3.807,0.692 4.646,-0.347" style="fill:white;fill-rule:nonzero;"/>
            </g>
        </g>
        <g transform="matrix(4.166667,0,0,4.166667,0,0)">
            <g transform="matrix(1,0,0,1,477.7231,406.7349)">
                <path d="M0,-0.32L-0.229,-0.958C-0.659,-2.151 -0.562,-2.912 0.096,-3.502C0.489,-3.853 0.939,-4.002 1.399,-3.93C1.843,-3.862 2.282,-3.596 2.669,-3.165C2.673,-3.16 2.677,-3.156 2.681,-3.152C3.097,-2.682 3.087,-1.97 2.7,-1.477L2.009,-0.597L2.875,0.37L4.755,-1.168L4.749,-1.259C4.675,-2.249 4.294,-3.136 3.615,-3.894C2.916,-4.676 2.056,-5.177 1.195,-5.306C0.28,-5.444 -0.587,-5.172 -1.312,-4.522C-2.492,-3.465 -2.717,-2.048 -2.019,-0.061L-1.802,0.561C-1.288,2.01 -1.336,2.634 -2.006,3.235C-2.43,3.614 -2.901,3.76 -3.408,3.674C-3.911,3.588 -4.423,3.266 -4.889,2.746C-5.015,2.606 -5.121,2.472 -5.212,2.337C-5.537,1.859 -5.491,1.221 -5.127,0.772L-4.343,-0.197L-5.212,-1.168L-7.219,0.488L-7.204,0.587C-7.053,1.594 -6.495,2.739 -5.747,3.574C-4.987,4.422 -4.107,4.945 -3.202,5.086C-3.039,5.111 -2.877,5.124 -2.718,5.124C-1.959,5.124 -1.245,4.839 -0.627,4.286C0.596,3.19 0.778,1.856 0,-0.32" style="fill:white;fill-rule:nonzero;"/>
            </g>
        </g>
        <g transform="matrix(4.166667,0,0,4.166667,0,0)">
            <g transform="matrix(1,0,0,1,482.2847,412.4787)">
                <path d="M0,1.987L0.672,1.523C1.546,0.919 2.556,0.225 3.604,-0.477C3.882,-0.663 4.255,-0.614 4.477,-0.364L5.066,0.302L5.897,-0.271L3.145,-4.251L2.314,-3.678L2.729,-2.892C2.885,-2.596 2.798,-2.23 2.525,-2.035C1.463,-1.279 0.432,-0.564 -0.382,-0.002L-1.054,0.463C-1.851,1.013 -2.852,1.702 -3.888,2.397C-4.222,2.62 -4.67,2.563 -4.936,2.262L-5.447,1.684L-6.278,2.258L-3.527,6.238L-2.696,5.664L-3.057,4.981C-3.244,4.626 -3.139,4.186 -2.812,3.953C-1.786,3.223 -0.791,2.533 0,1.987" style="fill:white;fill-rule:nonzero;"/>
            </g>
        </g>
        <g transform="matrix(4.166667,0,0,4.166667,0,0)">
            <g transform="matrix(1,0,0,1,487.0947,419.0763)">
                <path d="M0,3.761L0.729,3.394C1.828,2.843 3.12,2.198 4.433,1.569L4.968,2.636C5.202,3.101 5.065,3.668 4.646,3.976L3.637,4.718L4.196,5.832L7.095,4.223L3.036,-3.862L0.013,-2.499L0.573,-1.384L1.771,-1.75C2.269,-1.903 2.804,-1.674 3.038,-1.208L3.573,-0.142C2.269,0.544 0.987,1.192 -0.103,1.739L-0.833,2.105C-1.856,2.619 -3.193,3.286 -4.532,3.929L-5.421,2.562L-6.325,3.015L-4.011,7.623L-3.107,7.17L-3.674,5.64C-2.372,4.956 -1.089,4.308 0,3.761" style="fill:white;fill-rule:nonzero;"/>
            </g>
        </g>
        <g transform="matrix(4.166667,0,0,4.166667,0,0)">
            <g transform="matrix(1,0,0,1,497.2314,431.2275)">
                <path d="M0,0.978L-0.963,1.27L-0.757,2.614L-5.571,1.974L-1.891,-1.188L-1.312,0.131L-0.345,-0.161L-1.747,-4.792L-2.714,-4.5L-2.613,-3.928C-2.533,-3.475 -2.691,-3.012 -3.033,-2.704L-6.614,0.527C-7.055,0.925 -7.581,1.221 -8.15,1.391C-8.766,1.575 -9.314,1.738 -9.831,1.887C-10.155,1.98 -10.496,1.817 -10.629,1.508L-11.042,0.542L-12.011,0.835L-10.517,5.77L-9.549,5.477L-9.847,3.866C-8.834,3.539 -7.729,3.202 -6.678,2.883L-0.446,3.761L0.193,5.083L1.154,4.792L0,0.978Z" style="fill:white;fill-rule:nonzero;"/>
            </g>
        </g>
        <g transform="matrix(4.166667,0,0,4.166667,0,0)">
            <g transform="matrix(1,0,0,1,417.4614,383.5303)">
                <path d="M0,1.076L-0.904,-4.39L0.424,-4.804L0.259,-5.798L-3.848,-5.119L-3.684,-4.126L-2.973,-4.143C-2.44,-4.157 -1.979,-3.776 -1.892,-3.25L-1.211,0.864C-0.981,2.256 -1.031,3.262 -1.363,3.938C-1.67,4.563 -2.221,4.921 -3.095,5.066C-4.222,5.252 -5.581,5.068 -6.095,1.959L-6.308,0.668C-6.494,-0.452 -6.732,-1.915 -6.948,-3.387L-5.383,-3.841L-5.548,-4.838L-10.325,-4.049L-10.16,-3.052L-9.776,-3.07C-9.241,-3.094 -8.771,-2.717 -8.676,-2.19C-8.47,-1.035 -8.284,0.075 -8.136,0.97L-7.844,2.738C-7.647,3.929 -7.252,4.864 -6.679,5.525C-5.843,6.491 -4.628,6.874 -3.101,6.621C-1.907,6.425 -1.028,5.888 -0.486,5.027C0.113,4.075 0.276,2.746 0,1.076" style="fill:white;fill-rule:nonzero;"/>
            </g>
        </g>
        <g transform="matrix(4.166667,0,0,4.166667,0,0)">
            <g transform="matrix(1,0,0,1,562.4932,412.5531)">
                <path d="M0,1.19C0.07,1.68 1.539,4.583 5.002,6.333C8.466,8.082 11.369,8.256 12.629,7.662C13.888,7.067 17.421,4.688 19.94,3.289C22.459,1.89 24.348,1.33 24.348,-0.209C24.348,-1.748 23.089,-6.646 20.605,-6.856C18.121,-7.066 15.812,-5.632 14.098,-4.442C12.384,-3.253 7.696,-0.944 4.792,-0.279C1.889,0.385 0.699,0.07 0.455,0.28C0.209,0.49 -0.07,0.7 0,1.19" style="fill:rgb(192,13,30);fill-rule:nonzero;"/>
            </g>
        </g>
        <g transform="matrix(4.166667,0,0,4.166667,0,0)">
            <g transform="matrix(1,0,0,1,609.6851,414.967)">
                <path d="M0,-17.596C0,-17.596 3.079,-12.768 3.394,-9.375C3.708,-5.982 3.114,-0.524 3.219,-0.349C3.324,-0.175 4.093,0.28 5.562,-0.349C7.032,-0.979 13.399,-3.358 12.594,-9.69C11.79,-16.022 6.437,-17.316 4.478,-17.596C2.519,-17.876 0,-17.596 0,-17.596" style="fill:rgb(192,13,30);fill-rule:nonzero;"/>
            </g>
        </g>
        <g transform="matrix(4.166667,0,0,4.166667,0,0)">
            <g transform="matrix(1,0,0,1,550.9834,450.1599)">
                <path d="M0,14.694C1.154,14.938 7.452,11.65 8.256,11.23C9.061,10.81 12.349,9.586 10.81,6.368C9.271,3.149 7.452,-0.104 6.717,-0.174C5.982,-0.244 6.157,1.924 4.828,3.989C3.499,6.052 1.749,7.557 0.979,7.977C0.21,8.396 -1.504,9.061 -1.399,10.076C-1.294,11.09 -1.154,14.449 0,14.694" style="fill:rgb(192,13,30);fill-rule:nonzero;"/>
            </g>
        </g>
        <g transform="matrix(4.166667,0,0,4.166667,0,0)">
            <g transform="matrix(1,0,0,1,591.1094,421.2654)">
                <path d="M0,18.295C-0.385,19.065 -1.959,17.876 -2.799,16.721C-3.564,15.669 -4.443,14.902 -4.898,12.348C-5.353,9.794 -5.003,7.975 -4.373,7.101C-3.743,6.226 -2.169,5.946 -1.54,6.401C-0.91,6.856 0.035,8.605 0.28,11.893C0.524,15.182 0.385,17.525 0,18.295M-10.11,18.365C-10.703,19.009 -11.405,19.415 -14.763,18.715C-18.122,18.015 -20.255,15.392 -19.94,14.657C-19.626,13.922 -19.059,13.102 -17.072,12.208C-14.973,11.264 -12.979,10.669 -11.439,10.564C-9.919,10.46 -9.681,10.608 -9.236,11.858C-8.676,13.433 -9.306,17.49 -10.11,18.365M23.823,20.045C23.753,19.31 23.194,19.24 22.039,18.05C20.885,16.861 20.465,16.126 19.87,15.497C19.275,14.867 19.136,15.986 19.136,16.126C19.136,16.266 19.136,16.231 19.241,19.52C19.346,22.808 18.716,29.875 18.366,31.204C18.016,32.533 16.792,33.898 15.882,33.233C14.973,32.568 12.594,28.336 10.6,23.298C8.605,18.26 7.102,7.765 6.892,4.932C6.682,2.098 8.605,2.203 9.55,1.748C10.495,1.294 13.993,-0.141 14.868,-1.19C15.742,-2.24 16.092,-3.045 15.288,-5.109C14.483,-7.173 12.349,-6.193 11.579,-5.704C10.81,-5.214 8.151,-4.724 7.241,-5.528C6.332,-6.333 6.402,-6.718 6.472,-14.834C6.542,-22.95 8.151,-30.856 8.431,-34.354C8.71,-37.853 8.92,-38.518 7.521,-39.742C6.122,-40.966 3.218,-42.086 1.224,-42.75C-0.77,-43.415 -2.169,-43.17 -3.604,-42.821C-5.038,-42.471 -4.968,-41.316 -4.828,-40.896C-4.688,-40.476 -3.604,-37.258 -2.659,-31.416C-1.714,-25.574 -1.189,-9.307 -1.225,-6.683C-1.26,-4.059 -1.645,-3.674 -2.274,-2.66C-2.904,-1.645 -21.165,6.296 -30.436,10.389C-39.706,14.482 -42.295,15.182 -46.108,15.951C-49.921,16.721 -50.236,16.441 -51.181,16.616C-52.125,16.791 -51.985,18.82 -51.985,18.82C-51.985,18.82 -51.496,19.379 -50.306,20.324C-49.117,21.269 -45.723,22.213 -44.429,23.123C-43.134,24.032 -41.35,25.292 -40.756,25.327C-40.161,25.362 -39.077,23.578 -35.823,21.409C-32.569,19.24 -27.777,17.036 -25.748,16.686C-23.719,16.336 -23.404,16.826 -23.264,17.42C-23.124,18.015 -23.579,18.505 -24.383,23.018C-25.188,27.531 -23.579,31.903 -23.089,32.743C-22.599,33.583 -20.955,33.233 -20.71,33.198C-20.465,33.163 -19.486,32.603 -17.702,30.959C-15.917,29.315 -14.238,25.362 -13.539,24.417C-12.839,23.473 -10.565,22.913 -9.9,22.668C-9.236,22.423 -8.326,22.388 -8.081,22.983C-7.836,23.578 -7.521,27.811 -8.291,30.574C-9.061,33.338 -14.623,36.976 -27.077,44.953C-39.531,52.928 -49.606,53.138 -50.691,53.244C-51.775,53.348 -52.23,52.718 -52.405,52.683C-52.58,52.649 -52.93,53.244 -53.209,53.733C-53.49,54.223 -53.594,56.077 -51.425,58.42C-49.256,60.765 -46.388,61.71 -44.604,61.674C-42.82,61.639 -30.4,56.636 -22.809,52.159C-15.218,47.681 -0.77,33.723 0.14,32.953C1.049,32.184 2.169,31.694 2.449,31.764C2.729,31.834 6.052,35.926 8.501,40.089C10.95,44.253 15.603,54.608 15.987,55.062C16.372,55.517 18.051,55.378 18.541,55.342C19.031,55.307 19.765,54.993 20.605,54.118C21.444,53.244 22.809,50.305 23.159,49.501C23.509,48.696 23.823,47.646 23.823,46.912C23.823,46.176 23.404,42.048 23.264,34.912C23.124,27.775 23.894,20.779 23.823,20.045" style="fill:rgb(192,13,30);fill-rule:nonzero;"/>
            </g>
        </g>
        <g transform="matrix(4.166667,0,0,4.166667,0,0)">
            <g transform="matrix(1,0,0,1,751.1367,425.9172)">
                <path d="M0,8.571C0.35,9.585 1.26,10.81 1.819,11.474C2.379,12.139 3.394,12.489 4.478,12.314C5.562,12.139 6.997,11.474 8.256,10.53C9.516,9.585 12.279,8.116 13.294,7.871C14.309,7.626 14.763,7.521 15.043,7.731C15.322,7.941 15.463,9.655 15.218,10.81C14.973,11.964 11.335,16.722 7.172,19.731C3.009,22.739 1.609,24.698 2.729,26.552C3.849,28.406 6.821,29.141 8.99,27.462C11.159,25.782 17.736,18.576 18.296,17.527C18.855,16.477 19.381,15.078 20.71,15.427C22.039,15.778 25.118,16.652 25.992,17.596C26.867,18.541 26.937,19.765 26.937,20.78C26.937,21.795 28.756,23.928 32.465,23.859C36.173,23.789 37.992,22.669 38.236,21.759C38.481,20.85 38.762,17.632 36.907,15.463C35.053,13.294 32.779,11.824 30.96,11.859C29.141,11.894 24.593,11.999 23.403,10.81C22.214,9.62 21.829,8.361 22.844,6.717C23.858,5.072 25.572,4.198 29.281,2.134C32.989,0.07 33.898,-0.98 34.039,-1.889C34.179,-2.799 33.724,-4.303 31.729,-5.247C29.735,-6.192 27.637,-6.017 26.832,-5.423C26.027,-4.828 25.678,-3.708 25.187,-3.953C24.698,-4.198 24.278,-7.731 24.313,-8.676C24.349,-9.62 26.797,-12.664 27.042,-13.504C27.287,-14.343 27.182,-15.148 25.958,-16.337C24.733,-17.527 24.174,-18.016 23.369,-18.052C22.564,-18.086 21.725,-17.911 21.234,-18.471C20.745,-19.031 19.206,-20.5 18.506,-20.535C17.807,-20.57 16.372,-20.116 16.337,-19.346C16.302,-18.576 16.372,-17.491 16.092,-16.197C15.813,-14.903 15.498,-14.483 15.777,-13.958C16.058,-13.433 17.491,-11.754 17.807,-9.551C18.121,-7.346 18.227,-2.694 17.072,-0.63C15.917,1.434 14.868,2.554 14.203,2.939C13.538,3.323 12.594,3.743 9.655,4.268C6.717,4.793 5.457,4.723 5.037,4.583C4.618,4.443 2.483,3.883 1.294,5.177C0.104,6.472 -0.35,7.556 0,8.571" style="fill:rgb(192,13,30);fill-rule:nonzero;"/>
            </g>
        </g>
        <g transform="matrix(4.166667,0,0,4.166667,0,0)">
            <g transform="matrix(1,0,0,1,884.2715,453.4139)">
                <path d="M0,-46.248C-0.595,-45.828 -1.434,-45.408 -2.519,-45.793C-3.603,-46.178 -3.883,-46.877 -3.953,-47.087C-4.022,-47.297 -4.093,-47.822 -3.078,-48.067C-2.063,-48.312 -0.699,-48.207 -0.21,-47.927C0.28,-47.647 0.595,-46.667 0,-46.248M-10.354,-39.881C-11.404,-39.251 -13.014,-38.307 -14.343,-38.936C-15.672,-39.566 -16.022,-40.406 -15.672,-41.105C-15.301,-41.849 -13.328,-43.589 -10.949,-43.239C-9.144,-42.974 -9.306,-40.511 -10.354,-39.881M11.614,-51.88C10.565,-54.574 8.991,-57.373 7.802,-57.442C6.612,-57.512 6.297,-57.827 4.479,-57.232C2.659,-56.638 -0.909,-54.748 -0.805,-57.477C-0.699,-60.206 0.49,-63.774 0,-65.349C-0.489,-66.923 -1.889,-68.252 -3.184,-69.092C-4.478,-69.932 -5.387,-71.051 -6.122,-70.281C-6.856,-69.512 -8.955,-65.838 -9.83,-63.495C-10.704,-61.151 -11.509,-58.387 -13.153,-58.002C-14.798,-57.617 -19.03,-60.626 -20.08,-60.381C-21.13,-60.136 -23.299,-59.751 -22.844,-58.072C-22.389,-56.393 -21.234,-53.769 -22.004,-52.79C-22.773,-51.81 -25.503,-50.061 -25.678,-48.417C-25.853,-46.772 -24.628,-44.184 -22.109,-45.164C-19.59,-46.143 -18.051,-44.534 -19.521,-43.169C-20.989,-41.805 -21.969,-40.406 -25.327,-40.335C-28.686,-40.266 -32.464,-42.155 -31.449,-39.111C-30.436,-36.068 -29.28,-34.144 -30.4,-32.43C-31.52,-30.715 -32.324,-30.156 -33.199,-29.946C-34.073,-29.736 -34.668,-29.211 -33.759,-27.882C-32.849,-26.552 -31.869,-26.308 -30.785,-26.027C-29.7,-25.748 -28.196,-25.328 -28.756,-23.963C-29.315,-22.599 -29.7,-21.689 -30.26,-21.445C-30.49,-21.344 -33.145,-21.614 -35.963,-20.255C-39.881,-18.366 -45.443,-15.672 -50.585,-15.113C-59.161,-14.179 -60.065,-13.608 -61.92,-14.343C-63.418,-14.936 -63.494,-15.323 -64.054,-15.323C-64.613,-15.323 -65.559,-14.588 -65.628,-13.958C-65.698,-13.329 -67.098,-9.201 -64.229,-7.032C-61.36,-4.863 -57.617,-3.253 -53.943,-4.233C-50.271,-5.212 -22.319,-21.095 -19.8,-21.584C-17.281,-22.074 -14.938,-20.395 -15.393,-19.486C-15.847,-18.576 -17.142,-16.512 -20.325,-15.357C-23.509,-14.203 -26.027,-14.028 -26.482,-13.539C-26.937,-13.049 -27.252,-10.67 -27.986,-8.676C-28.663,-6.838 -29.456,-6.332 -29.456,-4.688C-29.456,-3.043 -29.246,-1.435 -29.386,-1.189C-29.525,-0.944 -32.849,0.944 -37.852,3.008C-42.854,5.073 -43.903,5.318 -45.548,5.387C-47.192,5.458 -48.767,5.073 -49.187,5.703C-49.605,6.332 -49.746,8.221 -48.416,9.48C-47.087,10.74 -45.828,11.509 -44.533,11.299C-43.239,11.089 -40.335,9.201 -36.767,7.872C-33.199,6.542 -31.939,5.703 -31.17,5.737C-30.4,5.772 -28.686,7.662 -29.176,9.831C-29.665,12 -30.68,13.853 -33.374,14.728C-36.067,15.602 -39.146,14.938 -39.601,15.288C-40.056,15.637 -41.07,17.841 -38.201,20.22C-35.333,22.599 -33.618,22.564 -31.904,22.949C-30.19,23.334 -28.931,24.803 -27.356,24.664C-25.782,24.523 -22.424,22.179 -21.444,18.226C-20.465,14.273 -20.185,12.384 -20.15,10.18C-20.115,7.976 -20.22,3.008 -17.281,2.624C-14.343,2.239 -13.363,2.309 -12.419,2.624C-11.475,2.939 -8.326,2.519 -7.766,0.839C-7.206,-0.84 -7.836,-3.323 -9.096,-3.463C-10.354,-3.603 -13.259,-1.784 -15.322,-1.574C-17.387,-1.364 -20.29,-1.154 -20.85,-3.603C-21.409,-6.052 -21.479,-8.571 -21.13,-9.34C-20.779,-10.11 -17.736,-10.705 -14.413,-12.489C-11.09,-14.273 -4.128,-18.681 -2.693,-22.529C-1.259,-26.377 -2.448,-27.882 -3.394,-28.196C-4.338,-28.511 -9.165,-28.931 -9.096,-31.135C-9.025,-33.339 -7.661,-34.808 -3.988,-36.627C-0.314,-38.447 1.854,-40.266 2.624,-41.175C3.394,-42.085 4.059,-43.064 5.808,-43.134C7.557,-43.204 10.635,-42.365 11.439,-44.883C12.244,-47.402 12.664,-49.186 11.614,-51.88" style="fill:rgb(192,13,30);fill-rule:nonzero;"/>
            </g>
        </g>
        <g transform="matrix(4.166667,0,0,4.166667,0,0)">
            <g transform="matrix(1,0,0,1,828.6133,410.4895)">
                <path d="M0,12.944C0.011,12.731 0.56,12.279 1.364,12.314C2.169,12.349 5.178,10.6 5.143,6.857C5.107,3.113 4.373,-1.224 4.653,-1.959C4.933,-2.694 5.492,-3.533 7.557,-3.114C9.62,-2.694 11.02,-2.624 11.649,-3.848C12.279,-5.073 12.034,-5.667 12.909,-5.982C13.783,-6.297 15.183,-6.472 17.142,-3.324C19.101,-0.175 19.171,3.218 19.101,4.198C19.031,5.177 18.856,6.472 16.547,7.941C14.238,9.41 10.985,10.25 10.32,11.475C9.655,12.699 9.971,14.028 9.551,14.658C9.131,15.288 6.402,18.716 4.583,19.066C2.764,19.416 1.154,17.772 0.63,16.057C0.105,14.343 -0.035,13.678 0,12.944" style="fill:rgb(192,13,30);fill-rule:nonzero;"/>
            </g>
        </g>
        <g transform="matrix(4.166667,0,0,4.166667,0,0)">
            <g transform="matrix(1,0,0,1,708.5312,469.6114)">
                <path d="M0,-10.985C0.21,-9.796 2.414,-6.647 2.239,-5.528C2.063,-4.408 0.84,-2.798 -0.28,-1.889C-1.399,-0.98 -1.889,-0.14 -2.029,0.28C-2.169,0.7 -1.399,0.945 -0.105,1.224C1.189,1.504 5.527,3.743 6.856,3.463C8.186,3.183 11.614,0.14 11.649,-1.575C11.685,-3.289 11.194,-3.008 9.726,-5.248C8.256,-7.487 7.241,-11.02 5.388,-12.524C3.533,-14.029 2.519,-14.728 1.539,-14.728C0.56,-14.728 0.385,-14.518 0.28,-14.273C0.175,-14.029 -0.21,-12.174 0,-10.985" style="fill:rgb(192,13,30);fill-rule:nonzero;"/>
            </g>
        </g>
        <g transform="matrix(4.166667,0,0,4.166667,0,0)">
            <g transform="matrix(1,0,0,1,658.1553,459.2213)">
                <path d="M0,-20.78C-1.189,-17.492 -0.805,-9.515 -2.063,-4.723C-3.323,0.07 -5.107,5.912 -6.122,7.521C-7.137,9.131 -8.151,10.635 -7.661,12.454C-7.172,14.273 -4.023,19.695 -0.734,20.011C2.554,20.325 3.568,17.212 4.338,13.084C5.107,8.956 6.332,-1.645 8.606,-9.935C10.88,-18.226 11.685,-22.809 13.644,-25.118C15.603,-27.427 17.282,-29.211 17.212,-30.716C17.142,-32.219 16.442,-32.639 16.303,-32.639C16.162,-32.639 15.428,-31.555 14.238,-31.625C13.049,-31.695 12.559,-32.71 11.789,-34.319C11.02,-35.928 10.32,-37.502 8.921,-39.076C7.521,-40.651 6.577,-41.105 5.877,-41.071C5.301,-41.042 4.701,-40.766 4.268,-40.231C3.594,-39.398 3.228,-34.843 2.869,-30.68C2.519,-26.622 0.515,-22.204 0,-20.78" style="fill:rgb(192,13,30);fill-rule:nonzero;"/>
            </g>
        </g>
        <g transform="matrix(4.166667,0,0,4.166667,0,0)">
            <g transform="matrix(1,0,0,1,662.0039,386.07)">
                <path d="M0,28.093C-0.315,27.673 -0.319,19.931 0.104,17.178C0.595,13.994 1.854,12.28 1.679,8.852C1.504,5.424 1.294,2.905 1.574,2.1C1.854,1.296 2.833,-0.419 3.883,-0.243C4.933,-0.069 6.599,3.514 7.94,6.718C9.48,10.391 10.075,14.275 9.061,16.758C8.046,19.242 5.597,21.201 4.303,23.475C3.008,25.749 3.008,26.833 1.994,27.498C0.979,28.163 0.314,28.512 0,28.093" style="fill:rgb(192,13,30);fill-rule:nonzero;"/>
            </g>
        </g>
        <g transform="matrix(4.166667,0,0,4.166667,0,0)">
            <g transform="matrix(1,0,0,1,701.1846,420.7047)">
                <path d="M0,8.326C-0.874,8.991 -2.903,9.551 -3.988,8.886C-5.072,8.221 -4.862,7.347 -4.862,7.347C-4.652,5.877 -2.099,4.443 -0.595,5.352C0.91,6.262 0.875,7.661 0,8.326M-6.052,16.477C-8.641,16.582 -8.746,15.743 -8.921,15.287C-9.096,14.833 -8.57,13.364 -7.137,12.804C-5.702,12.244 -4.478,12.524 -3.883,12.804C-3.288,13.084 -1.714,14.378 -1.714,14.378C-1.714,14.378 -3.463,16.372 -6.052,16.477M-8.57,-5.597C-7.976,-6.437 -6.927,-6.962 -5.143,-7.102C-3.358,-7.241 -2.099,-7.031 -1.504,-5.597C-0.909,-4.163 -1.574,-3.323 -4.303,-3.008C-7.031,-2.694 -9.165,-4.758 -8.57,-5.597M18.576,18.891C16.219,18.034 13.434,17.842 11.72,17.911C10.005,17.981 10.355,20.29 10.215,21.619C10.075,22.949 8.851,24.488 6.157,25.468C3.464,26.447 4.239,23.427 4.968,22.389C5.877,21.095 7.451,19.346 10.32,15.358C13.188,11.369 12.839,9.201 11.999,7.696C11.16,6.192 10.222,3.102 10.74,2.239C11.265,1.364 11.789,1.574 14.588,-0.455C17.387,-2.484 17.316,-3.708 16.197,-6.402C15.078,-9.096 9.41,-9.41 8.361,-10.495C7.312,-11.579 7.731,-14.168 8.781,-16.687C9.83,-19.206 17.002,-24.104 19.346,-27.112C21.689,-30.121 22.04,-32.499 21.654,-34.144C21.27,-35.788 20.046,-37.117 18.191,-38.132C16.337,-39.146 14.203,-37.292 14.063,-36.628C13.873,-35.723 14.134,-35.193 13.714,-32.114C13.294,-29.036 12.244,-27.602 9.516,-26.447C6.787,-25.293 4.758,-30.296 3.988,-31.03C3.219,-31.765 2.938,-30.016 2.869,-28.616C2.799,-27.217 3.607,-21.32 2.554,-20.92C1.539,-20.535 -0.77,-24.768 -2.134,-25.643C-2.595,-25.938 -3.358,-25.468 -4.128,-24.558C-4.897,-23.649 -4.827,-22.11 -4.933,-19.661C-5.037,-17.212 -5.178,-16.512 -7.731,-13.748C-10.285,-10.985 -20.955,-7.836 -21.375,-7.626C-21.619,-7.504 -21.829,-7.312 -21.794,-7.031C-21.76,-6.752 -21.55,-5.982 -20.22,-4.618C-18.891,-3.254 -16.651,-2.309 -15.043,-2.064C-13.434,-1.819 -12.279,-1.749 -11.51,-0.07C-10.739,1.609 -11.124,6.227 -11.229,8.431C-11.334,10.635 -13.118,12.664 -15.777,14.763C-18.436,16.862 -19.346,19.451 -19.275,21.34C-19.206,23.229 -14.623,25.083 -12.454,24.558C-10.285,24.034 -8.081,22.039 -7.521,21.445C-6.962,20.85 -6.087,20.64 -5.667,20.885C-5.247,21.13 -4.163,22.459 -3.883,24.593C-3.604,26.727 -6.962,29.211 -8.36,29.946C-9.76,30.68 -11.334,30.366 -12.209,30.261C-13.084,30.156 -13.294,30.61 -13.434,30.995C-13.573,31.38 -12.979,32.464 -12.104,33.164C-11.229,33.864 -7.871,33.199 -7.416,33.549C-6.962,33.899 -6.052,34.948 -6.087,37.327C-6.122,39.706 -10.46,43.345 -11.964,45.408C-13.469,47.472 -10.635,47.437 -9.096,46.737C-7.557,46.038 -3.918,43.519 -1.399,40.615C1.119,37.712 2.624,31.695 2.624,31.695C2.624,31.695 5.178,32.01 7.941,31.59C10.705,31.17 13.188,29.701 16.093,27.392C19.11,24.992 21.235,22.529 21.479,21.69C21.725,20.85 20.885,19.73 18.576,18.891" style="fill:rgb(192,13,30);fill-rule:nonzero;"/>
            </g>
        </g>
        <g transform="matrix(4.166667,0,0,4.166667,0,0)">
            <g transform="matrix(1,0,0,1,560.563,526.5052)">
                <path d="M0,-19.621L2.907,-19.185L-0.994,-4.463L-5.52,-19.207L-2.327,-19.617L-2.327,-21.312L-11.394,-21.312L-11.394,-19.617L-10.129,-19.463C-9.146,-19.342 -8.515,-18.358 -8.813,-17.414L-12.872,-4.604L-16.634,-19.241L-13.725,-19.619L-13.725,-21.312L-22.812,-21.312L-22.812,-19.616L-21.955,-19.514C-20.839,-19.379 -19.915,-18.585 -19.616,-17.502L-14.312,1.691L-12.691,1.691L-7.583,-15.263L-2.147,1.691L-0.497,1.691L4.457,-17.438C4.735,-18.51 5.624,-19.313 6.718,-19.481L7.635,-19.621L7.635,-21.312L0,-21.312L0,-19.621Z" style="fill:rgb(17,87,64);fill-rule:nonzero;"/>
            </g>
        </g>
        <g transform="matrix(4.166667,0,0,4.166667,0,0)">
            <g transform="matrix(1,0,0,1,585.5806,526.5052)">
                <path d="M0,-19.62L1.585,-19.399C2.559,-19.264 3.286,-18.432 3.29,-17.448L3.321,-8.983C3.321,-3.418 1.729,-1.044 -2.001,-1.044C-5.556,-1.044 -7.141,-3.315 -7.141,-8.409L-7.141,-11.053C-7.141,-13.394 -7.172,-16.176 -7.114,-19.226L-3.848,-19.616L-3.848,-21.312L-13.266,-21.312L-13.266,-19.616L-12.336,-19.505C-11.355,-19.389 -10.61,-18.564 -10.592,-17.577C-10.55,-15.225 -10.52,-13.083 -10.52,-11.053L-10.52,-7.432C-10.52,-1.55 -7.681,1.692 -2.526,1.692C1.044,1.692 5.302,-0.017 5.302,-8.161L5.264,-19.23L8.047,-19.62L8.047,-21.312L0,-21.312L0,-19.62Z" style="fill:rgb(17,87,64);fill-rule:nonzero;"/>
            </g>
        </g>
        <g transform="matrix(4.166667,0,0,4.166667,0,0)">
            <g transform="matrix(1,0,0,1,611.1577,526.5001)">
                <path d="M0,-19.612L1.225,-19.466C2.209,-19.347 2.955,-18.524 2.968,-17.533C2.993,-15.663 3.005,-13.616 3.005,-11.145L-7.019,-11.145C-7.019,-13.417 -7.01,-16.345 -6.955,-19.26L-4.015,-19.612L-4.015,-21.308L-13.412,-21.308L-13.412,-19.612L-12.18,-19.465C-11.195,-19.346 -10.45,-18.515 -10.437,-17.523C-10.404,-15.049 -10.399,-12.656 -10.399,-10.745L-10.399,-9.093C-10.399,-7.047 -10.404,-4.556 -10.437,-2.088C-10.45,-1.095 -11.195,-0.266 -12.18,-0.149L-13.412,-0.001L-13.412,1.696L-4.015,1.696L-4.015,-0.001L-6.963,-0.354C-7.014,-3.109 -7.02,-6.244 -7.02,-9.232L3.006,-9.232C3.006,-6.761 3.003,-4.341 2.976,-2.092C2.964,-1.098 2.22,-0.266 1.233,-0.149L0,-0.001L0,1.696L9.398,1.696L9.398,-0.001L6.451,-0.354C6.393,-3.395 6.385,-6.586 6.385,-9.093L6.385,-10.745C6.385,-13.272 6.393,-16.254 6.45,-19.258L9.398,-19.612L9.398,-21.308L0,-21.308L0,-19.612Z" style="fill:rgb(17,87,64);fill-rule:nonzero;"/>
            </g>
        </g>
        <g transform="matrix(4.166667,0,0,4.166667,0,0)">
            <g transform="matrix(1,0,0,1,637.5576,514.456)">
                <path d="M0,4.476L-5.958,4.476L-2.956,-4.751L0,4.476ZM-1.003,-9.144L-1.042,-9.264L-3.3,-9.264L-9.645,10.078C-9.955,11.025 -10.771,11.719 -11.757,11.872L-12.885,12.048L-12.885,13.74L-5.182,13.74L-5.182,12.047L-8.256,11.606L-6.579,6.389L0.613,6.389L2.282,11.66L-0.816,12.048L-0.816,13.74L8.266,13.74L8.266,12.048L7.46,11.947C6.439,11.819 5.585,11.112 5.268,10.134L-1.003,-9.144Z" style="fill:rgb(17,87,64);fill-rule:nonzero;"/>
            </g>
        </g>
        <g transform="matrix(4.166667,0,0,4.166667,0,0)">
            <g transform="matrix(1,0,0,1,671.3457,528.2018)">
                <path d="M0,-23.01L0,-21.322L-0.153,-21.293L-2.734,-20.889L-2.763,0L-4.144,0L-16.688,-17.889L-16.688,-2.162L-13.312,-1.702L-13.312,0L-21.405,0L-21.405,-1.702L-20.029,-1.906C-19.248,-2.022 -18.67,-2.692 -18.67,-3.481L-18.67,-18.543C-18.67,-19.957 -19.735,-21.144 -21.142,-21.295L-21.251,-21.308L-21.251,-23.01L-16.032,-23.01L-15.977,-22.94L-4.716,-6.753L-4.716,-19.142C-4.716,-20.134 -5.451,-20.972 -6.435,-21.102L-8.093,-21.322L-8.093,-23.01L0,-23.01Z" style="fill:rgb(17,87,64);fill-rule:nonzero;"/>
            </g>
        </g>
        <g transform="matrix(4.166667,0,0,4.166667,0,0)">
            <g transform="matrix(1,0,0,1,734.4961,528.2018)">
                <path d="M0,-23.01L0,-21.322L-0.153,-21.293L-2.735,-20.889L-2.763,0L-4.145,0L-16.689,-17.889L-16.689,-2.162L-13.313,-1.702L-13.313,0L-21.405,0L-21.405,-1.702L-20.03,-1.906C-19.249,-2.022 -18.671,-2.692 -18.671,-3.481L-18.671,-18.543C-18.671,-19.957 -19.736,-21.144 -21.142,-21.295L-21.252,-21.308L-21.252,-23.01L-16.033,-23.01L-15.978,-22.94L-4.717,-6.753L-4.717,-19.142C-4.717,-20.134 -5.451,-20.972 -6.436,-21.102L-8.094,-21.322L-8.094,-23.01L0,-23.01Z" style="fill:rgb(17,87,64);fill-rule:nonzero;"/>
            </g>
        </g>
        <g transform="matrix(4.166667,0,0,4.166667,0,0)">
            <g transform="matrix(1,0,0,1,700.9258,526.5042)">
                <path d="M0,-19.62L1.578,-19.399C2.556,-19.264 3.282,-18.428 3.282,-17.441L3.282,-8.982C3.282,-3.418 1.691,-1.044 -2.04,-1.044C-5.595,-1.044 -7.18,-3.315 -7.18,-8.409L-7.18,-11.053C-7.18,-13.393 -7.172,-16.175 -7.114,-19.226L-3.849,-19.616L-3.849,-21.312L-13.266,-21.312L-13.266,-19.616L-12.34,-19.506C-11.357,-19.389 -10.61,-18.562 -10.597,-17.573C-10.563,-15.223 -10.559,-13.082 -10.559,-11.053L-10.559,-7.432C-10.559,-1.549 -7.719,1.692 -2.564,1.692C1.006,1.692 5.264,-0.017 5.264,-8.161L5.264,-19.23L8.047,-19.62L8.047,-21.312L0,-21.312L0,-19.62Z" style="fill:rgb(17,87,64);fill-rule:nonzero;"/>
            </g>
        </g>
        <g transform="matrix(4.166667,0,0,4.166667,0,0)">
            <g transform="matrix(1,0,0,1,738.6133,526.5001)">
                <path d="M0,-19.612L1.922,-19.382C2.511,-19.311 2.959,-18.816 2.968,-18.223C3.011,-15.503 3.016,-12.836 3.016,-10.745L3.016,-9.093C3.016,-6.951 3.01,-4.322 2.974,-1.741C2.962,-0.948 2.367,-0.284 1.579,-0.19L0,-0.001L0,1.696L9.411,1.696L9.411,-0.001L7.832,-0.19C7.045,-0.284 6.449,-0.947 6.437,-1.74C6.4,-4.391 6.396,-7.089 6.396,-9.094L6.396,-10.745C6.396,-12.981 6.401,-15.572 6.442,-18.22C6.452,-18.814 6.9,-19.311 7.489,-19.382L9.411,-19.612L9.411,-21.308L0,-21.308L0,-19.612Z" style="fill:rgb(17,87,64);fill-rule:nonzero;"/>
            </g>
        </g>
        <g transform="matrix(4.166667,0,0,4.166667,0,0)">
            <g transform="matrix(1,0,0,1,840.5439,526.5011)">
                <path d="M0,-19.612L1.923,-19.382C2.512,-19.311 2.959,-18.816 2.969,-18.223C3.011,-15.503 3.016,-12.836 3.016,-10.745L3.016,-9.093C3.016,-6.951 3.01,-4.322 2.974,-1.741C2.962,-0.948 2.367,-0.285 1.579,-0.19L0,-0.002L0,1.696L9.411,1.696L9.411,-0.002L7.832,-0.19C7.045,-0.285 6.449,-0.947 6.437,-1.74C6.4,-4.391 6.396,-7.089 6.396,-9.094L6.396,-10.745C6.396,-12.981 6.401,-15.573 6.443,-18.22C6.452,-18.814 6.9,-19.311 7.49,-19.383L9.411,-19.612L9.411,-21.308L0,-21.308L0,-19.612Z" style="fill:rgb(17,87,64);fill-rule:nonzero;"/>
            </g>
        </g>
        <g transform="matrix(4.166667,0,0,4.166667,0,0)">
            <g transform="matrix(1,0,0,1,765.6133,526.3443)">
                <path d="M0,-19.3L2.772,-19L-2.198,-3.64L-7.371,-19.028L-4.363,-19.297L-4.363,-21.152L-13.472,-21.152L-13.472,-19.455L-12.688,-19.362C-11.644,-19.236 -10.761,-18.53 -10.408,-17.539L-3.554,1.736L-3.512,1.852L-1.873,1.852L4.397,-17.482C4.71,-18.446 5.545,-19.148 6.548,-19.29L7.734,-19.459L7.734,-21.152L0,-21.152L0,-19.3Z" style="fill:rgb(17,87,64);fill-rule:nonzero;"/>
            </g>
        </g>
        <g transform="matrix(4.166667,0,0,4.166667,0,0)">
            <g transform="matrix(1,0,0,1,790.0977,507.2285)">
                <path d="M0,18.932L-6.181,18.932C-6.232,16.185 -6.237,13.162 -6.237,10.071L-2.835,10.071C-2.238,10.071 -1.734,10.512 -1.658,11.104L-1.382,13.221L0.412,13.221L0.412,4.97L-1.382,4.97L-1.676,7.127C-1.756,7.716 -2.258,8.155 -2.852,8.155L-6.237,8.155C-6.236,4.855 -6.217,2.325 -6.172,0.001L-0.642,0.001C0.325,0.001 1.15,0.701 1.31,1.654L1.745,4.268L3.92,4.268L3.682,-2.036L-12.633,-2.036L-12.633,-0.339L-11.397,-0.192C-10.413,-0.074 -9.668,0.757 -9.654,1.748C-9.621,4.224 -9.617,6.617 -9.617,8.528L-9.617,10.179C-9.617,12.225 -9.622,14.716 -9.654,17.185C-9.668,18.176 -10.413,19.005 -11.397,19.123L-12.633,19.271L-12.633,20.968L4.323,20.968L4.562,14.663L2.387,14.663L1.951,17.28C1.792,18.233 0.967,18.932 0,18.932" style="fill:rgb(17,87,64);fill-rule:nonzero;"/>
            </g>
        </g>
        <g transform="matrix(4.166667,0,0,4.166667,0,0)">
            <g transform="matrix(1,0,0,1,812.3857,522.24)">
                <path d="M0,-10.972C0,-8.144 -1.787,-6.521 -4.904,-6.521L-7.219,-6.521C-7.219,-9.573 -7.214,-12.343 -7.159,-15.134L-4.562,-15.134C-1.492,-15.134 0,-13.773 0,-10.972M1.902,-1.11C1.249,-3.46 0.237,-4.765 -1.411,-5.338C1.647,-6.111 3.516,-8.23 3.516,-10.993C3.516,-14.784 0.536,-17.047 -4.457,-17.047L-13.608,-17.047L-13.608,-15.351L-12.374,-15.203C-11.389,-15.085 -10.644,-14.253 -10.631,-13.261C-10.598,-10.786 -10.593,-8.395 -10.593,-6.484L-10.593,-4.832C-10.593,-2.691 -10.599,-0.063 -10.636,2.517C-10.646,3.314 -11.248,3.977 -12.039,4.072L-13.608,4.259L-13.608,5.957L-4.199,5.957L-4.199,4.259L-7.163,3.905C-7.214,1.171 -7.219,-1.818 -7.219,-4.643L-5.814,-4.643C-3.324,-4.643 -2.186,-4.217 -1.576,-1.586L-0.301,3.787C0.096,5.455 1.041,6.075 3.19,6.075C4.118,6.075 4.916,5.959 5.626,5.722L5.744,5.682L5.744,4.036L4.557,3.892C3.762,3.796 3.103,3.228 2.889,2.456L1.902,-1.11Z" style="fill:rgb(17,87,64);fill-rule:nonzero;"/>
            </g>
        </g>
        <g transform="matrix(4.166667,0,0,4.166667,0,0)">
            <g transform="matrix(1,0,0,1,830.5107,518.7438)">
                <path d="M0,-3.304L-1.266,-3.819C-3.725,-4.81 -4.772,-6.032 -4.772,-7.906C-4.772,-10.128 -3.18,-11.508 -0.613,-11.508C-0.555,-11.508 -0.497,-11.508 -0.439,-11.506C0.849,-11.473 1.91,-10.485 2.134,-9.216L2.516,-7.054L4.812,-7.054L5.02,-11.687L4.948,-11.742C3.391,-12.942 1.579,-13.551 -0.437,-13.551C-4.866,-13.551 -7.844,-10.984 -7.844,-7.161C-7.844,-4.043 -6.048,-1.847 -2.191,-0.251L-0.965,0.259C1.652,1.334 2.898,2.219 2.898,4.341C2.898,6.759 1.101,8.204 -1.909,8.204C-2.371,8.204 -2.784,8.175 -3.172,8.11C-4.314,7.921 -5.184,6.975 -5.368,5.832L-5.758,3.415L-8.061,3.415L-8.264,8.389L-8.181,8.444C-6.488,9.556 -4.05,10.247 -1.818,10.247C2.844,10.247 5.976,7.609 5.976,3.682C5.976,0.408 4.301,-1.551 0,-3.304" style="fill:rgb(17,87,64);fill-rule:nonzero;"/>
            </g>
        </g>
        <g transform="matrix(4.166667,0,0,4.166667,0,0)">
            <g transform="matrix(1,0,0,1,854.335,528.1968)">
                <path d="M0,-23.004L-0.256,-16.856L-0.263,-16.675L1.912,-16.675L2.361,-19.32C2.523,-20.272 3.347,-20.967 4.312,-20.967L7.208,-20.967C7.267,-17.927 7.274,-14.955 7.274,-12.441L7.274,-10.789C7.274,-8.654 7.269,-6.035 7.232,-3.464C7.221,-2.663 6.613,-1.997 5.817,-1.907L3.938,-1.697L3.938,0L13.991,0L13.991,-1.698L10.72,-2.063C10.661,-5.128 10.654,-8.437 10.654,-10.79L10.654,-12.441C10.654,-14.973 10.662,-17.958 10.72,-20.967L13.617,-20.967C14.581,-20.967 15.405,-20.272 15.566,-19.32L16.017,-16.675L18.191,-16.675L17.93,-23.004L0,-23.004Z" style="fill:rgb(17,87,64);fill-rule:nonzero;"/>
            </g>
        </g>
        <g transform="matrix(4.166667,0,0,4.166667,0,0)">
            <g transform="matrix(1,0,0,1,888.8242,528.1968)">
                <path d="M0,-23.004L0,-21.312L2.805,-20.912L-1.52,-11.382L-5.745,-20.949L-2.771,-21.309L-2.771,-23.004L-12.181,-23.004L-12.181,-21.308L-11.117,-21.181C-10.17,-21.067 -9.348,-20.474 -8.941,-19.61L-4.726,-10.66C-4.225,-9.596 -3.969,-8.435 -3.972,-7.259C-3.975,-5.879 -3.982,-4.442 -4.001,-3.098C-4.01,-2.5 -4.463,-2.016 -5.057,-1.949L-7.304,-1.698L-7.304,0L2.749,0L2.749,-1.698L-0.537,-2.065C-0.579,-4.125 -0.587,-6.547 -0.587,-9.196L4.218,-19.575C4.59,-20.378 5.338,-20.943 6.213,-21.081L7.687,-21.315L7.687,-23.004L0,-23.004Z" style="fill:rgb(17,87,64);fill-rule:nonzero;"/>
            </g>
        </g>
    </g>
</svg>
